SplineFontDB: 3.0
FontName: AndadaSC-Regular
FullName: Andada SC
FamilyName: Andada SC
Weight: Book
Copyright: Copyright (c) 2011-2012, Carolina Giovagnoli (huertatipografica.com.ar), with Reserved Font Name 'Andada'
Version: 1.003
ItalicAngle: 0
UnderlinePosition: -50
UnderlineWidth: 50
Ascent: 800
Descent: 200
sfntRevision: 0x000100c5
LayerCount: 2
Layer: 0 1 "Back"  1
Layer: 1 1 "Fore"  0
XUID: [1021 424 1365800378 8125452]
FSType: 0
OS2Version: 3
OS2_WeightWidthSlopeOnly: 0
OS2_UseTypoMetrics: 1
CreationTime: 1337959620
ModificationTime: 1352840400
PfmFamily: 17
TTFWeight: 400
TTFWidth: 5
LineGap: 0
VLineGap: 0
Panose: 2 0 0 0 0 0 0 0 0 0
OS2TypoAscent: 1039
OS2TypoAOffset: 0
OS2TypoDescent: -280
OS2TypoDOffset: 0
OS2TypoLinegap: 0
OS2WinAscent: 1039
OS2WinAOffset: 0
OS2WinDescent: 280
OS2WinDOffset: 0
HheadAscent: 1039
HheadAOffset: 0
HheadDescent: -280
HheadDOffset: 0
OS2SubXSize: 650
OS2SubYSize: 600
OS2SubXOff: 0
OS2SubYOff: 75
OS2SupXSize: 650
OS2SupYSize: 600
OS2SupXOff: 0
OS2SupYOff: 350
OS2StrikeYSize: 50
OS2StrikeYPos: 296
OS2Vendor: 'pyrs'
OS2CodePages: 20000093.00000000
OS2UnicodeRanges: a000006f.4000204b.00000000.00000000
Lookup: 258 0 0 "'kern' Horizontal Kerning in Latin lookup 0"  {"'kern' Horizontal Kerning in Latin lookup 0 per glyph data 0"  "'kern' Horizontal Kerning in Latin lookup 0 per glyph data 1"  "'kern' Horizontal Kerning in Latin lookup 0 kerning class 2"  } ['kern' ('DFLT' <'dflt' > 'latn' <'ESP ' 'GUA ' 'dflt' > ) ]
DEI: 91125
KernClass2: 20+ 15 "'kern' Horizontal Kerning in Latin lookup 0 kerning class 2" 
 99 S s Sacute sacute Scircumflex scircumflex Scedilla scedilla Scaron scaron Scommaaccent scommaaccent
 53 T t Tcedilla tcedilla Tcaron tcaron Tbar tbar uni021A
 79 V W v w Wcircumflex wcircumflex Wgrave wgrave Wacute wacute Wdieresis wdieresis
 175 U u Ugrave Uacute Ucircumflex Udieresis ugrave uacute ucircumflex udieresis Utilde utilde Umacron umacron Ubreve ubreve Uring uring Uhungarumlaut uhungarumlaut Uogonek uogonek

StartChar: exclam
Encoding: 33 33 4
Width: 229
GlyphClass: 2
Flags: W
LayerCount: 2
Fore
SplineSet
129 -10 m 128,-1,1
 101 -10 101 -10 85.5 7 c 128,-1,2
 70 24 70 24 70 54 c 128,-1,3
 70 84 70 84 85.5 101.5 c 128,-1,4
 101 119 101 119 129 119 c 128,-1,5
 157 119 157 119 172.5 101.5 c 128,-1,6
 188 84 188 84 188 55 c 128,-1,7
 188 26 188 26 172.5 8 c 128,-1,0
 157 -10 157 -10 129 -10 c 128,-1,1
166 223 m 1,8,-1
 159 217 l 1,9,10
 141 220 141 220 87 220 c 1,11,12
 88 256 88 256 88 286 c 2,13,-1
 79 713 l 1,14,-1
 169 720 l 1,15,-1
 188 702 l 1,16,17
 163 465 163 465 163 308 c 1,18,-1
 166 223 l 1,8,-1
EndSplineSet
EndChar

StartChar: quotedbl
Encoding: 34 34 5
Width: 299
GlyphClass: 2
Flags: W
LayerCount: 2
Fore
SplineSet
35 756 m 1,0,-1
 124 756 l 1,1,-1
 111 513 l 1,2,-1
 53 516 l 1,3,-1
 54 610 l 1,4,-1
 35 756 l 1,0,-1
175 756 m 1,5,-1
 264 756 l 1,6,-1
 251 513 l 1,7,-1
 193 516 l 1,8,-1
 194 610 l 1,9,-1
 175 756 l 1,5,-1
EndSplineSet
EndChar

StartChar: numbersign
Encoding: 35 35 6
Width: 570
GlyphClass: 2
Flags: W
LayerCount: 2
Fore
SplineSet
527 150 m 1,0,-1
 384 150 l 1,1,-1
 358 -15 l 1,2,-1
 298 -5 l 1,3,-1
 322 150 l 1,4,-1
 212 150 l 1,5,-1
 186 -15 l 1,6,-1
 126 -5 l 1,7,-1
 150 150 l 1,8,-1
 32 150 l 1,9,-1
 32 216 l 1,10,-1
 161 217 l 1,11,-1
 180 338 l 1,12,-1
 52 337 l 1,13,-1
 52 408 l 1,14,-1
 191 408 l 1,15,-1
 217 572 l 1,16,-1
 277 562 l 1,17,-1
 252 408 l 1,18,-1
 363 408 l 1,19,-1
 389 572 l 1,20,-1
 449 562 l 1,21,-1
 424 408 l 1,22,-1
 547 408 l 1,23,-1
 547 342 l 1,24,-1
 414 340 l 1,25,-1
 395 219 l 1,26,-1
 527 221 l 1,27,-1
 527 150 l 1,0,-1
241 339 m 1,28,-1
 222 218 l 1,29,-1
 333 219 l 1,30,-1
 352 340 l 1,31,-1
 241 339 l 1,28,-1
EndSplineSet
EndChar

StartChar: dollar
Encoding: 36 36 7
Width: 521
GlyphClass: 2
Flags: W
LayerCount: 2
Fore
SplineSet
97.5 382.5 m 128,-1,1
 54 425 54 425 54 499 c 128,-1,2
 54 573 54 573 109.5 617 c 128,-1,3
 165 661 165 661 255 661 c 2,4,-1
 257 661 l 1,5,-1
 261 759 l 1,6,-1
 295 756 l 1,7,-1
 291 659 l 1,8,9
 346 654 346 654 438 631 c 1,10,-1
 423 487 l 1,11,-1
 369 493 l 1,12,-1
 370 540 l 2,13,14
 370 544 370 544 357 589 c 1,15,16
 322 603 322 603 289 607 c 1,17,-1
 279 379 l 1,18,19
 405 314 405 314 437 270 c 0,20,21
 471 225 471 225 471 168 c 0,22,23
 471 86 471 86 413 39.5 c 128,-1,24
 355 -7 355 -7 264 -10 c 1,25,-1
 261 -92 l 1,26,-1
 226 -89 l 1,27,-1
 229 -9 l 1,28,29
 180 -6 180 -6 135.5 6 c 128,-1,30
 91 18 91 18 70 28 c 1,31,-1
 50 39 l 1,32,-1
 65 189 l 1,33,-1
 127 183 l 1,34,-1
 126 129 l 2,35,36
 126 121 126 121 136 71 c 1,37,38
 186 52 186 52 232 48 c 1,39,-1
 242 292 l 1,40,-1
 212 306 l 2,41,0
 141 340 141 340 97.5 382.5 c 128,-1,1
344.5 80.5 m 128,-1,43
 373 109 373 109 373 152.5 c 128,-1,44
 373 196 373 196 347.5 223 c 128,-1,45
 322 250 322 250 275 275 c 1,46,-1
 266 48 l 1,47,42
 316 52 316 52 344.5 80.5 c 128,-1,43
176.5 583 m 128,-1,49
 147 557 147 557 147 515.5 c 128,-1,50
 147 474 147 474 172 448 c 128,-1,51
 197 422 197 422 246 396 c 1,52,-1
 255 609 l 1,53,-1
 252 609 l 2,54,48
 206 609 206 609 176.5 583 c 128,-1,49
EndSplineSet
EndChar

StartChar: percent
Encoding: 37 37 8
Width: 785
GlyphClass: 2
Flags: W
LayerCount: 2
Fore
SplineSet
341 493 m 2,0,-1
 341 492 l 2,1,2
 341 417 341 417 301.5 368 c 128,-1,3
 262 319 262 319 191 319 c 128,-1,4
 120 319 120 319 80.5 368 c 128,-1,5
 41 417 41 417 41 492.5 c 128,-1,6
 41 568 41 568 80.5 617 c 128,-1,7
 120 666 120 666 191 666 c 128,-1,8
 262 666 262 666 301.5 617 c 128,-1,9
 341 568 341 568 341 493 c 2,0,-1
133.5 578 m 128,-1,11
 116 543 116 543 116 492.5 c 128,-1,12
 116 442 116 442 133.5 407 c 128,-1,13
 151 372 151 372 191 372 c 128,-1,14
 231 372 231 372 248.5 407 c 128,-1,15
 266 442 266 442 266 492.5 c 128,-1,16
 266 543 266 543 248.5 578 c 128,-1,17
 231 613 231 613 191 613 c 128,-1,10
 151 613 151 613 133.5 578 c 128,-1,11
723 163 m 2,18,-1
 723 162 l 2,19,20
 723 87 723 87 683.5 38 c 128,-1,21
 644 -11 644 -11 573 -11 c 128,-1,22
 502 -11 502 -11 462.5 38 c 128,-1,23
 423 87 423 87 423 162.5 c 128,-1,24
 423 238 423 238 462.5 287 c 128,-1,25
 502 336 502 336 573 336 c 128,-1,26
 644 336 644 336 683.5 287 c 128,-1,27
 723 238 723 238 723 163 c 2,18,-1
515.5 248 m 128,-1,29
 498 213 498 213 498 162.5 c 128,-1,30
 498 112 498 112 515.5 77 c 128,-1,31
 533 42 533 42 573 42 c 128,-1,32
 613 42 613 42 630.5 77 c 128,-1,33
 648 112 648 112 648 162.5 c 128,-1,34
 648 213 648 213 630.5 248 c 128,-1,35
 613 283 613 283 573 283 c 128,-1,28
 533 283 533 283 515.5 248 c 128,-1,29
195 -49 m 1,36,-1
 144 -17 l 1,37,-1
 578 721 l 1,38,-1
 628 689 l 1,39,-1
 195 -49 l 1,36,-1
EndSplineSet
EndChar

StartChar: ampersand
Encoding: 38 38 9
Width: 640
GlyphClass: 2
Flags: W
LayerCount: 2
Fore
SplineSet
349 402 m 1,0,-1
 351 437 l 1,1,-1
 341 475 l 1,2,3
 317 492 317 492 279.5 492 c 128,-1,4
 242 492 242 492 222 473.5 c 128,-1,5
 202 455 202 455 202 424 c 0,6,7
 202 379 202 379 251 324 c 0,8,9
 307 260 307 260 426 156 c 1,10,11
 437 189 437 189 437 213.5 c 128,-1,12
 437 238 437 238 429 274 c 1,13,-1
 375 279 l 1,14,-1
 380 329 l 1,15,-1
 463 329 l 1,16,-1
 562 332 l 1,17,-1
 566 285 l 1,18,-1
 503 274 l 1,19,20
 500 254 500 254 499 209.5 c 128,-1,21
 498 165 498 165 473 114 c 1,22,-1
 497 93 l 1,23,24
 512 78 512 78 549 54 c 1,25,-1
 611 48 l 1,26,-1
 606 -4 l 1,27,28
 558 1 558 1 483 1 c 2,29,-1
 466 1 l 1,30,-1
 459 18 l 1,31,-1
 425 52 l 1,32,33
 350 -8 350 -8 244 -8 c 0,34,35
 160 -8 160 -8 105 35 c 128,-1,36
 50 78 50 78 50 153 c 0,37,38
 50 251 50 251 156 312 c 1,39,40
 110 372 110 372 110 427.5 c 128,-1,41
 110 483 110 483 156 512.5 c 128,-1,42
 202 542 202 542 269.5 542 c 128,-1,43
 337 542 337 542 406 516 c 1,44,-1
 397 399 l 1,45,-1
 349 402 l 1,0,-1
194 263 m 1,46,47
 140 221 140 221 140 166.5 c 128,-1,48
 140 112 140 112 173 82 c 128,-1,49
 206 52 206 52 256 52 c 0,50,51
 332 52 332 52 381 92 c 1,52,53
 278 181 278 181 247.5 209.5 c 128,-1,54
 217 238 217 238 194 263 c 1,46,47
EndSplineSet
EndChar

StartChar: quotesingle
Encoding: 39 39 10
Width: 159
GlyphClass: 2
Flags: W
LayerCount: 2
Fore
SplineSet
35 756 m 1,0,-1
 124 756 l 1,1,-1
 111 513 l 1,2,-1
 53 516 l 1,3,-1
 54 610 l 1,4,-1
 35 756 l 1,0,-1
EndSplineSet
EndChar

StartChar: parenleft
Encoding: 40 40 11
Width: 271
GlyphClass: 2
Flags: W
LayerCount: 2
Fore
SplineSet
132 317 m 128,-1,1
 132 159 132 159 191 3 c 1,2,3
 199 -15 199 -15 246 -86 c 2,4,-1
 261 -109 l 1,5,-1
 229 -135 l 1,6,7
 50 44 50 44 50 317 c 128,-1,8
 50 590 50 590 229 769 c 1,9,-1
 261 743 l 1,10,11
 199 652 199 652 191 631 c 0,12,0
 132 475 132 475 132 317 c 128,-1,1
EndSplineSet
EndChar

StartChar: parenright
Encoding: 41 41 12
Width: 271
GlyphClass: 2
Flags: W
LayerCount: 2
Fore
SplineSet
139 317 m 128,-1,1
 139 475 139 475 80 631 c 1,2,3
 72 649 72 649 26 720 c 1,4,-1
 10 743 l 1,5,-1
 42 769 l 1,6,7
 221 590 221 590 221 317 c 128,-1,8
 221 44 221 44 42 -135 c 1,9,-1
 10 -109 l 1,10,11
 72 -18 72 -18 80 3 c 0,12,0
 139 159 139 159 139 317 c 128,-1,1
EndSplineSet
EndChar

StartChar: asterisk
Encoding: 42 42 13
Width: 409
GlyphClass: 2
Flags: W
LayerCount: 2
Fore
SplineSet
179 685 m 2,0,-1
 179 741 l 1,1,-1
 222 746 l 1,2,-1
 234 627 l 1,3,4
 287 648 287 648 290 650 c 2,5,-1
 339 678 l 1,6,-1
 365 643 l 1,7,-1
 267 573 l 1,8,9
 305 541 305 541 315 536 c 2,10,-1
 364 508 l 1,11,-1
 347 468 l 1,12,-1
 237 517 l 1,13,14
 229 467 229 467 229 456 c 2,15,-1
 229 401 l 1,16,-1
 186 396 l 1,17,-1
 174 515 l 1,18,19
 130 498 130 498 117 492 c 1,20,-1
 69 464 l 1,21,-1
 43 499 l 1,22,-1
 140 569 l 1,23,-1
 92 607 l 1,24,-1
 44 634 l 1,25,-1
 61 674 l 1,26,-1
 170 624 l 1,27,28
 179 680 179 680 179 685 c 2,0,-1
EndSplineSet
EndChar

StartChar: plus
Encoding: 43 43 14
Width: 560
GlyphClass: 2
Flags: W
LayerCount: 2
Fore
SplineSet
242 0 m 1,0,-1
 242 220 l 1,1,-1
 22 218 l 1,2,-1
 22 293 l 1,3,-1
 242 293 l 1,4,-1
 242 511 l 1,5,-1
 312 511 l 1,6,-1
 314 293 l 1,7,-1
 537 293 l 1,8,-1
 537 223 l 1,9,-1
 314 220 l 1,10,-1
 317 0 l 1,11,-1
 242 0 l 1,0,-1
EndSplineSet
EndChar

StartChar: comma
Encoding: 44 44 15
Width: 220
GlyphClass: 2
Flags: W
LayerCount: 2
Fore
SplineSet
64.5 12 m 128,-1,1
 50 32 50 32 50 61 c 128,-1,2
 50 90 50 90 66.5 109.5 c 128,-1,3
 83 129 83 129 112 129 c 0,4,5
 175 129 175 129 175 40 c 0,6,7
 175 -20 175 -20 140.5 -71.5 c 128,-1,8
 106 -123 106 -123 44 -136 c 1,9,-1
 34 -104 l 1,10,11
 105 -74 105 -74 105 -10 c 1,12,0
 79 -8 79 -8 64.5 12 c 128,-1,1
EndSplineSet
EndChar

StartChar: hyphen
Encoding: 45 45 16
Width: 282
GlyphClass: 2
Flags: W
LayerCount: 2
Fore
SplineSet
32 216 m 1,0,-1
 30 291 l 1,1,-1
 252 291 l 1,2,-1
 247 216 l 1,3,-1
 32 216 l 1,0,-1
EndSplineSet
EndChar

StartChar: period
Encoding: 46 46 17
Width: 213
GlyphClass: 2
Flags: W
LayerCount: 2
Fore
SplineSet
104 129 m 128,-1,1
 134 129 134 129 151 110.5 c 128,-1,2
 168 92 168 92 168 60 c 128,-1,3
 168 28 168 28 151 9 c 128,-1,4
 134 -10 134 -10 104 -10 c 128,-1,5
 74 -10 74 -10 57 9 c 128,-1,6
 40 28 40 28 40 59 c 128,-1,7
 40 90 40 90 57 109.5 c 128,-1,0
 74 129 74 129 104 129 c 128,-1,1
EndSplineSet
EndChar

StartChar: slash
Encoding: 47 47 18
Width: 376
GlyphClass: 2
Flags: W
LayerCount: 2
Fore
SplineSet
71 -67 m 1,0,-1
 7 -47 l 1,1,-1
 318 773 l 1,2,-1
 381 753 l 1,3,-1
 71 -67 l 1,0,-1
EndSplineSet
EndChar

StartChar: zero
Encoding: 48 48 19
Width: 580
GlyphClass: 2
Flags: W
LayerCount: 2
Fore
SplineSet
50 326 m 128,-1,1
 50 473 50 473 109 567.5 c 128,-1,2
 168 662 168 662 290 662 c 128,-1,3
 412 662 412 662 471 567.5 c 128,-1,4
 530 473 530 473 530 326 c 128,-1,5
 530 179 530 179 471 84.5 c 128,-1,6
 412 -10 412 -10 290 -10 c 128,-1,7
 168 -10 168 -10 109 84.5 c 128,-1,0
 50 179 50 179 50 326 c 128,-1,1
431 326 m 128,-1,9
 431 602 431 602 290 602 c 128,-1,10
 149 602 149 602 149 326 c 128,-1,11
 149 50 149 50 290 50 c 128,-1,8
 431 50 431 50 431 326 c 128,-1,9
EndSplineSet
EndChar

StartChar: one
Encoding: 49 49 20
Width: 389
GlyphClass: 2
Flags: W
LayerCount: 2
Fore
SplineSet
165 137 m 2,0,-1
 165 524 l 1,1,-1
 51 465 l 1,2,-1
 24 507 l 1,3,4
 141 599 141 599 153.5 609 c 128,-1,5
 166 619 166 619 198 660 c 1,6,-1
 208 672 l 1,7,-1
 255 660 l 1,8,9
 248 476 248 476 248 426 c 2,10,-1
 248 167 l 2,11,12
 248 110 248 110 255 61 c 1,13,-1
 337 54 l 1,14,-1
 330 -5 l 1,15,16
 277 0 277 0 197 0 c 1,17,-1
 62 -5 l 1,18,-1
 57 45 l 1,19,-1
 156 61 l 1,20,21
 165 120 165 120 165 137 c 2,0,-1
EndSplineSet
EndChar

StartChar: two
Encoding: 50 50 21
Width: 515
GlyphClass: 2
Flags: W
LayerCount: 2
Fore
SplineSet
57 626 m 1,0,1
 148 662 148 662 242 662 c 128,-1,2
 336 662 336 662 389.5 619.5 c 128,-1,3
 443 577 443 577 443 495 c 128,-1,4
 443 413 443 413 381 330.5 c 128,-1,5
 319 248 319 248 129 73 c 1,6,-1
 317 73 l 2,7,8
 327 73 327 73 401 81 c 1,9,-1
 415 116 l 1,10,-1
 420 163 l 1,11,-1
 475 159 l 1,12,-1
 466 17 l 1,13,-1
 447 -3 l 1,14,15
 350 0 350 0 326 0 c 2,16,-1
 50 0 l 1,17,-1
 36 73 l 1,18,19
 182 220 182 220 243 289 c 128,-1,20
 304 358 304 358 326 399 c 128,-1,21
 348 440 348 440 348 489.5 c 128,-1,22
 348 539 348 539 316 572.5 c 128,-1,23
 284 606 284 606 232.5 606 c 128,-1,24
 181 606 181 606 133 578 c 1,25,26
 123 546 123 546 123 527 c 2,27,-1
 125 482 l 1,28,-1
 70 479 l 1,29,-1
 57 626 l 1,0,1
EndSplineSet
EndChar

StartChar: three
Encoding: 51 51 22
Width: 470
GlyphClass: 2
Flags: W
LayerCount: 2
Fore
SplineSet
30 633 m 1,0,1
 114 662 114 662 199.5 662 c 128,-1,2
 285 662 285 662 336 620 c 128,-1,3
 387 578 387 578 387 499 c 0,4,5
 387 444 387 444 356 401.5 c 128,-1,6
 325 359 325 359 268 335 c 1,7,8
 339 315 339 315 377 272 c 128,-1,9
 415 229 415 229 415 168 c 0,10,11
 415 66 415 66 308.5 -10 c 128,-1,12
 202 -86 202 -86 31 -105 c 1,13,-1
 13 -52 l 1,14,15
 151 -30 151 -30 235.5 31 c 128,-1,16
 320 92 320 92 320 166 c 0,17,18
 320 221 320 221 282.5 255 c 128,-1,19
 245 289 245 289 183 289 c 1,20,-1
 114 286 l 1,21,-1
 100 334 l 1,22,23
 293 358 293 358 293 485 c 0,24,25
 293 544 293 544 265 576 c 128,-1,26
 237 608 237 608 188.5 608 c 128,-1,27
 140 608 140 608 106 586 c 1,28,29
 96 546 96 546 96 536 c 2,30,-1
 98 491 l 1,31,-1
 43 488 l 1,32,-1
 30 633 l 1,0,1
EndSplineSet
EndChar

StartChar: four
Encoding: 52 52 23
Width: 529
GlyphClass: 2
Flags: W
LayerCount: 2
Fore
SplineSet
478 201 m 1,0,-1
 386 201 l 1,1,-1
 386 167 l 2,2,3
 386 110 386 110 393 61 c 1,4,-1
 476 54 l 1,5,-1
 469 -5 l 1,6,7
 419 0 419 0 339 0 c 1,8,-1
 201 -5 l 1,9,-1
 196 45 l 1,10,-1
 299 61 l 1,11,12
 308 124 308 124 308 137 c 2,13,-1
 308 201 l 1,14,-1
 49 201 l 1,15,-1
 5 254 l 1,16,-1
 365 739 l 1,17,-1
 434 688 l 1,18,19
 310 557 310 557 295 534 c 2,20,-1
 108 254 l 1,21,-1
 308 257 l 1,22,-1
 308 399 l 1,23,-1
 386 426 l 1,24,-1
 386 262 l 1,25,-1
 478 268 l 1,26,-1
 478 201 l 1,0,-1
EndSplineSet
EndChar

StartChar: five
Encoding: 53 53 24
Width: 462
GlyphClass: 2
Flags: W
LayerCount: 2
Fore
SplineSet
198 572 m 2,0,-1
 134 572 l 1,1,2
 125 445 125 445 122 355 c 1,3,4
 163 364 163 364 204 364 c 0,5,6
 308 364 308 364 367.5 315.5 c 128,-1,7
 427 267 427 267 427 176 c 0,8,9
 427 57 427 57 325.5 -15.5 c 128,-1,10
 224 -88 224 -88 60 -105 c 1,11,-1
 42 -52 l 1,12,13
 173 -33 173 -33 252.5 21 c 128,-1,14
 332 75 332 75 332 166 c 0,15,16
 332 230 332 230 294.5 263.5 c 128,-1,17
 257 297 257 297 186 297 c 0,18,19
 145 297 145 297 90 284 c 1,20,-1
 53 305 l 1,21,-1
 70 634 l 1,22,-1
 89 652 l 1,23,-1
 157 652 l 1,24,-1
 400 662 l 1,25,-1
 406 595 l 1,26,27
 228 572 228 572 198 572 c 2,0,-1
EndSplineSet
EndChar

StartChar: six
Encoding: 54 54 25
Width: 522
GlyphClass: 2
Flags: W
LayerCount: 2
Fore
SplineSet
289 403 m 0,0,1
 386 403 386 403 441.5 349.5 c 128,-1,2
 497 296 497 296 497 202.5 c 128,-1,3
 497 109 497 109 433 49 c 128,-1,4
 369 -11 369 -11 267.5 -11 c 128,-1,5
 166 -11 166 -11 105.5 59.5 c 128,-1,6
 45 130 45 130 45 246 c 0,7,8
 45 412 45 412 149 555 c 0,9,10
 200 625 200 625 283 676 c 128,-1,11
 366 727 366 727 470 747 c 1,12,-1
 482 696 l 1,13,14
 388 669 388 669 318.5 618.5 c 128,-1,15
 249 568 249 568 212 506 c 0,16,17
 139 385 139 385 139 246 c 0,18,19
 139 166 139 166 174 106 c 128,-1,20
 209 46 209 46 271.5 46 c 128,-1,21
 334 46 334 46 368 91.5 c 128,-1,22
 402 137 402 137 402 200 c 128,-1,23
 402 263 402 263 370.5 303.5 c 128,-1,24
 339 344 339 344 280 344 c 1,25,-1
 215 339 l 1,26,-1
 209 387 l 1,27,28
 256 403 256 403 289 403 c 0,0,1
EndSplineSet
EndChar

StartChar: seven
Encoding: 55 55 26
Width: 506
GlyphClass: 2
Flags: W
LayerCount: 2
Fore
SplineSet
210 652 m 2,0,-1
 477 652 l 1,1,-1
 493 613 l 1,2,-1
 207 -105 l 1,3,-1
 129 -80 l 1,4,-1
 343 422 l 2,5,6
 351 439 351 439 387 579 c 1,7,-1
 219 579 l 2,8,9
 197 579 197 579 134 573 c 1,10,11
 122 548 122 548 120 539 c 1,12,-1
 115 489 l 1,13,-1
 60 493 l 1,14,-1
 69 641 l 1,15,-1
 88 661 l 1,16,17
 186 652 186 652 210 652 c 2,0,-1
EndSplineSet
EndChar

StartChar: eight
Encoding: 56 56 27
Width: 520
GlyphClass: 2
Flags: W
LayerCount: 2
Fore
SplineSet
93.5 419.5 m 128,-1,1
 62 460 62 460 62 527.5 c 128,-1,2
 62 595 62 595 120 638.5 c 128,-1,3
 178 682 178 682 259.5 682 c 128,-1,4
 341 682 341 682 399.5 638 c 128,-1,5
 458 594 458 594 458 519 c 0,6,7
 458 423 458 423 336 348 c 1,8,9
 403 312 403 312 441.5 269 c 128,-1,10
 480 226 480 226 480 162 c 0,11,12
 480 80 480 80 417 35 c 128,-1,13
 354 -10 354 -10 260 -10 c 128,-1,14
 166 -10 166 -10 103 34.5 c 128,-1,15
 40 79 40 79 40 164 c 0,16,17
 40 266 40 266 181 347 c 1,18,0
 125 379 125 379 93.5 419.5 c 128,-1,1
131 164 m 0,19,20
 131 107 131 107 167.5 72 c 128,-1,21
 204 37 204 37 259 37 c 128,-1,22
 314 37 314 37 351.5 71.5 c 128,-1,23
 389 106 389 106 389 160 c 128,-1,24
 389 214 389 214 342 252 c 0,25,26
 307 280 307 280 242 316 c 1,27,28
 236 318 236 318 233 320 c 1,29,30
 131 248 131 248 131 164 c 0,19,20
371 519 m 0,31,32
 371 568 371 568 339 601.5 c 128,-1,33
 307 635 307 635 261.5 635 c 128,-1,34
 216 635 216 635 182.5 601.5 c 128,-1,35
 149 568 149 568 149 523 c 0,36,37
 149 461 149 461 208 420 c 0,38,39
 234 402 234 402 288 372 c 1,40,-1
 289 371 l 1,41,42
 371 439 371 439 371 519 c 0,31,32
EndSplineSet
EndChar

StartChar: nine
Encoding: 57 57 28
Width: 525
GlyphClass: 2
Flags: W
LayerCount: 2
Fore
SplineSet
239 248 m 0,0,1
 145 248 145 248 85 303 c 128,-1,2
 25 358 25 358 25 449.5 c 128,-1,3
 25 541 25 541 88.5 601.5 c 128,-1,4
 152 662 152 662 254.5 662 c 128,-1,5
 357 662 357 662 418.5 590 c 128,-1,6
 480 518 480 518 480 401 c 0,7,8
 480 230 480 230 382 90 c 0,9,10
 333 20 333 20 250.5 -32.5 c 128,-1,11
 168 -85 168 -85 62 -107 c 1,12,-1
 48 -55 l 1,13,14
 143 -25 143 -25 211 26.5 c 128,-1,15
 279 78 279 78 315 142 c 0,16,17
 382 260 382 260 382 401 c 0,18,19
 382 482 382 482 346.5 543.5 c 128,-1,20
 311 605 311 605 248.5 605 c 128,-1,21
 186 605 186 605 154 560 c 128,-1,22
 122 515 122 515 122 453 c 128,-1,23
 122 391 122 391 157.5 349 c 128,-1,24
 193 307 193 307 241 307 c 128,-1,25
 289 307 289 307 310 310 c 1,26,-1
 317 263 l 1,27,28
 282 248 282 248 239 248 c 0,0,1
EndSplineSet
EndChar

StartChar: colon
Encoding: 58 58 29
Width: 203
GlyphClass: 2
Flags: W
LayerCount: 2
Fore
SplineSet
99 472 m 128,-1,1
 127 472 127 472 142.5 455 c 128,-1,2
 158 438 158 438 158 408 c 128,-1,3
 158 378 158 378 142.5 360.5 c 128,-1,4
 127 343 127 343 99 343 c 128,-1,5
 71 343 71 343 55.5 360.5 c 128,-1,6
 40 378 40 378 40 407 c 128,-1,7
 40 436 40 436 55.5 454 c 128,-1,0
 71 472 71 472 99 472 c 128,-1,1
99 119 m 128,-1,9
 127 119 127 119 142.5 102 c 128,-1,10
 158 85 158 85 158 55 c 128,-1,11
 158 25 158 25 142.5 7.5 c 128,-1,12
 127 -10 127 -10 99 -10 c 128,-1,13
 71 -10 71 -10 55.5 7.5 c 128,-1,14
 40 25 40 25 40 54 c 128,-1,15
 40 83 40 83 55.5 101 c 128,-1,8
 71 119 71 119 99 119 c 128,-1,9
EndSplineSet
EndChar

StartChar: semicolon
Encoding: 59 59 30
Width: 220
GlyphClass: 2
Flags: W
LayerCount: 2
Fore
SplineSet
111 472 m 128,-1,1
 139 472 139 472 154.5 455 c 128,-1,2
 170 438 170 438 170 408 c 128,-1,3
 170 378 170 378 154.5 360.5 c 128,-1,4
 139 343 139 343 111 343 c 128,-1,5
 83 343 83 343 67.5 360.5 c 128,-1,6
 52 378 52 378 52 407 c 128,-1,7
 52 436 52 436 67.5 454 c 128,-1,0
 83 472 83 472 111 472 c 128,-1,1
64.5 12 m 128,-1,9
 50 32 50 32 50 61 c 128,-1,10
 50 90 50 90 66.5 109.5 c 128,-1,11
 83 129 83 129 112 129 c 0,12,13
 175 129 175 129 175 40 c 0,14,15
 175 -20 175 -20 140.5 -71.5 c 128,-1,16
 106 -123 106 -123 44 -136 c 1,17,-1
 34 -104 l 1,18,19
 105 -74 105 -74 105 -10 c 1,20,8
 79 -8 79 -8 64.5 12 c 128,-1,9
EndSplineSet
EndChar

StartChar: less
Encoding: 60 60 31
Width: 560
GlyphClass: 2
Flags: W
LayerCount: 2
Fore
SplineSet
102 247 m 1,0,-1
 404 513 l 1,1,-1
 457 460 l 1,2,-1
 204 248 l 1,3,-1
 458 38 l 1,4,-1
 405 -15 l 1,5,-1
 102 247 l 1,0,-1
EndSplineSet
EndChar

StartChar: equal
Encoding: 61 61 32
Width: 560
GlyphClass: 2
Flags: W
LayerCount: 2
Fore
SplineSet
52 378 m 1,0,-1
 507 378 l 1,1,-1
 507 312 l 1,2,-1
 52 307 l 1,3,-1
 52 378 l 1,0,-1
507 119 m 1,4,-1
 52 119 l 1,5,-1
 52 185 l 1,6,-1
 507 190 l 1,7,-1
 507 119 l 1,4,-1
EndSplineSet
EndChar

StartChar: greater
Encoding: 62 62 33
Width: 560
GlyphClass: 2
Flags: W
LayerCount: 2
Fore
SplineSet
156 513 m 1,0,-1
 458 247 l 1,1,-1
 155 -15 l 1,2,-1
 102 38 l 1,3,-1
 356 248 l 1,4,-1
 103 460 l 1,5,-1
 156 513 l 1,0,-1
EndSplineSet
EndChar

StartChar: question
Encoding: 63 63 34
Width: 403
GlyphClass: 2
Flags: W
LayerCount: 2
Fore
SplineSet
155 -10 m 128,-1,1
 127 -10 127 -10 111.5 7 c 128,-1,2
 96 24 96 24 96 54 c 128,-1,3
 96 84 96 84 111.5 101.5 c 128,-1,4
 127 119 127 119 155 119 c 128,-1,5
 183 119 183 119 198.5 101.5 c 128,-1,6
 214 84 214 84 214 55 c 128,-1,7
 214 26 214 26 198.5 8 c 128,-1,0
 183 -10 183 -10 155 -10 c 128,-1,1
282.5 410.5 m 128,-1,9
 316 449 316 449 316 514.5 c 128,-1,10
 316 580 316 580 284 625 c 128,-1,11
 252 670 252 670 196.5 670 c 128,-1,12
 141 670 141 670 107 644 c 1,13,14
 101 623 101 623 101 586 c 1,15,-1
 103 550 l 1,16,-1
 45 550 l 1,17,-1
 33 688 l 1,18,19
 118 727 118 727 190 727 c 0,20,21
 292 727 292 727 351 669.5 c 128,-1,22
 410 612 410 612 410 515.5 c 128,-1,23
 410 419 410 419 347 365 c 128,-1,24
 284 311 284 311 188 311 c 1,25,-1
 192 223 l 1,26,-1
 185 217 l 1,27,28
 167 220 167 220 117 220 c 1,29,-1
 113 223 l 1,30,-1
 113 352 l 1,31,-1
 139 376 l 1,32,33
 169 372 169 372 190 372 c 0,34,8
 249 372 249 372 282.5 410.5 c 128,-1,9
EndSplineSet
EndChar

StartChar: at
Encoding: 64 64 35
Width: 912
GlyphClass: 2
Flags: W
LayerCount: 2
Fore
SplineSet
511 16 m 128,-1,1
 463 -10 463 -10 405.5 -10 c 128,-1,2
 348 -10 348 -10 311.5 26 c 128,-1,3
 275 62 275 62 275 123 c 0,4,5
 275 218 275 218 390 247 c 0,6,7
 429 257 429 257 569 278 c 1,8,-1
 569 311 l 2,9,10
 569 449 569 449 475 449 c 0,11,12
 420 449 420 449 382 430 c 1,13,14
 373 385 373 385 373 383 c 2,15,-1
 373 347 l 1,16,-1
 315 344 l 1,17,-1
 304 479 l 1,18,19
 394 503 394 503 487 503 c 128,-1,20
 580 503 580 503 615 451.5 c 128,-1,21
 650 400 650 400 650 291 c 2,22,-1
 650 137 l 1,23,-1
 662 46 l 1,24,25
 707 56 707 56 738 97 c 0,26,27
 791 169 791 169 791 287 c 0,28,29
 791 436 791 436 702.5 527 c 128,-1,30
 614 618 614 618 461 618 c 0,31,32
 380 618 380 618 318 589.5 c 128,-1,33
 256 561 256 561 221.5 519 c 128,-1,34
 187 477 187 477 166 422 c 0,35,36
 131 332 131 332 131 239 c 128,-1,37
 131 146 131 146 149.5 78 c 128,-1,38
 168 10 168 10 206 -42 c 0,39,40
 286 -151 286 -151 466 -151 c 0,41,42
 497 -151 497 -151 616 -121 c 2,43,-1
 655 -111 l 1,44,-1
 671 -142 l 1,45,46
 518 -213 518 -213 466 -213 c 0,47,48
 369 -213 369 -213 293 -186 c 128,-1,49
 217 -159 217 -159 170.5 -116 c 128,-1,50
 124 -73 124 -73 94 -14 c 0,51,52
 40 91 40 91 40 232 c 0,53,54
 40 371 40 371 100 478 c 0,55,56
 132 535 132 535 179.5 576 c 128,-1,57
 227 617 227 617 299.5 642 c 128,-1,58
 372 667 372 667 461 667 c 0,59,60
 650 667 650 667 761 566 c 128,-1,61
 872 465 872 465 872 287 c 0,62,63
 872 178 872 178 801.5 92 c 128,-1,64
 731 6 731 6 610 -4 c 1,65,-1
 592 10 l 1,66,-1
 579 79 l 1,67,0
 559 42 559 42 511 16 c 128,-1,1
363 128 m 0,68,69
 363 54 363 54 444 54 c 0,70,71
 486 54 486 54 523.5 86 c 128,-1,72
 561 118 561 118 569 167 c 1,73,-1
 569 227 l 1,74,75
 464 210 464 210 426 200 c 0,76,77
 363 184 363 184 363 128 c 0,68,69
EndSplineSet
EndChar

StartChar: A
Encoding: 65 65 36
Width: 664
GlyphClass: 2
Flags: W
LayerCount: 2
Fore
SplineSet
660 54 m 1,0,-1
 655 0 l 1,1,-1
 554 0 l 1,2,-1
 411 -5 l 1,3,-1
 407 44 l 1,4,-1
 480 64 l 1,5,-1
 453 172 l 1,6,-1
 432 232 l 1,7,-1
 212 232 l 1,8,-1
 180 127 l 1,9,-1
 170 64 l 1,10,-1
 240 54 l 1,11,-1
 235 0 l 1,12,-1
 149 0 l 1,13,-1
 14 -5 l 1,14,-1
 10 44 l 1,15,-1
 73 61 l 1,16,-1
 116 160 l 1,17,-1
 295 705 l 1,18,-1
 353 715 l 1,19,-1
 559 149 l 1,20,-1
 598 64 l 1,21,-1
 660 54 l 1,0,-1
318 557 m 1,22,-1
 230 282 l 1,23,-1
 412 286 l 1,24,-1
 318 557 l 1,22,-1
EndSplineSet
EndChar

StartChar: B
Encoding: 66 66 37
Width: 598
GlyphClass: 2
Flags: W
LayerCount: 2
Fore
SplineSet
157 705 m 1,0,-1
 332 715 l 1,1,2
 413 715 413 715 467.5 669 c 128,-1,3
 522 623 522 623 522 550.5 c 128,-1,4
 522 478 522 478 483.5 431.5 c 128,-1,5
 445 385 445 385 383 370 c 1,6,-1
 383 363 l 1,7,8
 460 351 460 351 506.5 304.5 c 128,-1,9
 553 258 553 258 553 178 c 128,-1,10
 553 98 553 98 494.5 46.5 c 128,-1,11
 436 -5 436 -5 349 -5 c 1,12,-1
 157 0 l 1,13,-1
 53 -5 l 1,14,-1
 48 45 l 1,15,-1
 121 61 l 1,16,17
 130 120 130 120 130 137 c 2,18,-1
 130 568 l 2,19,20
 130 586 130 586 121 644 c 1,21,-1
 50 656 l 1,22,-1
 55 710 l 1,23,24
 129 706 129 706 157 705 c 1,0,-1
221 538 m 2,25,-1
 221 167 l 2,26,27
 221 95 221 95 227 59 c 1,28,29
 277 53 277 53 318 53 c 0,30,31
 379 53 379 53 415.5 89 c 128,-1,32
 452 125 452 125 452 194 c 128,-1,33
 452 263 452 263 404 300 c 128,-1,34
 356 337 356 337 284 337 c 2,35,-1
 273 337 l 1,36,-1
 280 394 l 1,37,-1
 287 394 l 2,38,39
 349 394 349 394 389 430 c 128,-1,40
 429 466 429 466 429 528 c 128,-1,41
 429 590 429 590 396.5 625.5 c 128,-1,42
 364 661 364 661 311 661 c 0,43,44
 278 661 278 661 228 655 c 1,45,46
 221 610 221 610 221 538 c 2,25,-1
EndSplineSet
EndChar

StartChar: C
Encoding: 67 67 38
Width: 610
GlyphClass: 2
Flags: W
LayerCount: 2
Fore
SplineSet
359 -15 m 0,0,1
 205 -15 205 -15 123.5 84.5 c 128,-1,2
 42 184 42 184 42 352 c 128,-1,3
 42 520 42 520 123.5 620 c 128,-1,4
 205 720 205 720 359 720 c 0,5,6
 432 720 432 720 566 686 c 1,7,-1
 556 538 l 1,8,-1
 497 542 l 1,9,-1
 497 589 l 2,10,11
 497 599 497 599 485 639 c 1,12,13
 416 662 416 662 359 662 c 0,14,15
 255 662 255 662 200 575.5 c 128,-1,16
 145 489 145 489 145 353 c 128,-1,17
 145 217 145 217 200 130 c 128,-1,18
 255 43 255 43 358 43 c 0,19,20
 423 43 423 43 494 65 c 1,21,22
 508 111 508 111 508 121 c 2,23,-1
 510 168 l 1,24,-1
 569 170 l 1,25,-1
 575 19 l 1,26,27
 441 -15 441 -15 359 -15 c 0,0,1
EndSplineSet
EndChar

StartChar: D
Encoding: 68 68 39
Width: 721
GlyphClass: 2
Flags: W
LayerCount: 2
Fore
SplineSet
334 -6 m 1,0,-1
 165 0 l 1,1,-1
 47 -5 l 1,2,-1
 42 45 l 1,3,-1
 121 61 l 1,4,5
 130 120 130 120 130 137 c 2,6,-1
 130 568 l 2,7,8
 130 586 130 586 121 644 c 1,9,-1
 44 656 l 1,10,-1
 49 710 l 1,11,12
 113 707 113 707 147 705 c 1,13,14
 173 706 173 706 235 710.5 c 128,-1,15
 297 715 297 715 334 715 c 0,16,17
 499 715 499 715 589 618 c 128,-1,18
 679 521 679 521 679 355.5 c 128,-1,19
 679 190 679 190 586.5 92 c 128,-1,20
 494 -6 494 -6 334 -6 c 1,0,-1
335 655 m 0,21,22
 270 655 270 655 228 650 c 1,23,24
 221 584 221 584 221 538 c 2,25,-1
 221 167 l 2,26,27
 221 85 221 85 228 57 c 1,28,29
 280 53 280 53 335 53 c 0,30,31
 455 53 455 53 517.5 137 c 128,-1,32
 580 221 580 221 580 353 c 128,-1,33
 580 485 580 485 517.5 570 c 128,-1,34
 455 655 455 655 335 655 c 0,21,22
EndSplineSet
EndChar

StartChar: E
Encoding: 69 69 40
Width: 588
GlyphClass: 2
Flags: W
LayerCount: 2
Fore
SplineSet
165 705 m 2,0,-1
 389 705 l 1,1,-1
 503 715 l 1,2,-1
 522 697 l 1,3,-1
 529 561 l 1,4,-1
 471 556 l 1,5,6
 468 580 468 580 463.5 600 c 128,-1,7
 459 620 459 620 440 644 c 1,8,9
 385 649 385 649 359 649 c 2,10,-1
 228 649 l 1,11,12
 221 575 221 575 221 538 c 2,13,-1
 221 396 l 1,14,15
 255 394 255 394 264 394 c 2,16,-1
 337 394 l 1,17,-1
 397 403 l 1,18,-1
 406 469 l 1,19,-1
 452 464 l 1,20,21
 451 400 451 400 451 380 c 2,22,-1
 454 271 l 1,23,-1
 406 265 l 1,24,-1
 397 332 l 1,25,26
 337 338 337 338 317 338 c 2,27,-1
 264 338 l 2,28,29
 246 338 246 338 221 335 c 1,30,-1
 221 167 l 2,31,32
 221 124 221 124 228 57 c 1,33,-1
 372 57 l 2,34,35
 410 57 410 57 459 66 c 1,36,37
 478 92 478 92 479.5 99.5 c 128,-1,38
 481 107 481 107 487.5 134 c 128,-1,39
 494 161 494 161 495 170 c 1,40,-1
 550 165 l 1,41,-1
 535 14 l 1,42,-1
 516 -4 l 1,43,44
 422 0 422 0 402 0 c 2,45,-1
 165 0 l 1,46,-1
 47 -5 l 1,47,-1
 42 45 l 1,48,-1
 121 61 l 1,49,50
 130 120 130 120 130 137 c 2,51,-1
 130 568 l 2,52,53
 130 586 130 586 121 644 c 1,54,-1
 44 656 l 1,55,-1
 49 710 l 1,56,57
 145 705 145 705 165 705 c 2,0,-1
EndSplineSet
EndChar

StartChar: F
Encoding: 70 70 41
Width: 552
GlyphClass: 2
Flags: W
LayerCount: 2
Fore
SplineSet
359 649 m 2,0,-1
 228 649 l 1,1,2
 221 575 221 575 221 538 c 2,3,-1
 221 388 l 1,4,5
 255 386 255 386 264 386 c 2,6,-1
 337 386 l 1,7,-1
 397 395 l 1,8,-1
 406 461 l 1,9,-1
 452 456 l 1,10,11
 451 392 451 392 451 372 c 2,12,-1
 454 263 l 1,13,-1
 406 257 l 1,14,-1
 397 324 l 1,15,16
 337 330 337 330 317 330 c 2,17,-1
 264 330 l 2,18,19
 246 330 246 330 221 327 c 1,20,-1
 221 167 l 2,21,22
 221 110 221 110 228 61 c 1,23,-1
 328 54 l 1,24,-1
 321 -5 l 1,25,26
 245 0 245 0 165 0 c 1,27,-1
 47 -5 l 1,28,-1
 42 45 l 1,29,-1
 121 61 l 1,30,31
 130 120 130 120 130 137 c 2,32,-1
 130 568 l 2,33,34
 130 586 130 586 121 644 c 1,35,-1
 44 656 l 1,36,-1
 49 710 l 1,37,38
 145 705 145 705 165 705 c 2,39,-1
 389 705 l 1,40,-1
 503 715 l 1,41,-1
 522 697 l 1,42,-1
 529 561 l 1,43,-1
 471 556 l 1,44,45
 468 580 468 580 463.5 600 c 128,-1,46
 459 620 459 620 440 644 c 1,47,48
 385 649 385 649 359 649 c 2,0,-1
EndSplineSet
EndChar

StartChar: G
Encoding: 71 71 42
Width: 666
GlyphClass: 2
Flags: W
LayerCount: 2
Fore
SplineSet
376 720 m 0,0,1
 454 720 454 720 596 686 c 1,2,-1
 585 538 l 1,3,-1
 527 544 l 1,4,-1
 527 589 l 2,5,6
 527 598 527 598 515 638 c 1,7,8
 434 662 434 662 373 662 c 0,9,10
 261 662 261 662 202 575.5 c 128,-1,11
 143 489 143 489 143 352.5 c 128,-1,12
 143 216 143 216 202 129.5 c 128,-1,13
 261 43 261 43 373 43 c 0,14,15
 438 43 438 43 513 63 c 1,16,17
 525 115 525 115 525 128 c 2,18,-1
 525 196 l 1,19,-1
 515 267 l 1,20,-1
 409 275 l 1,21,-1
 414 333 l 1,22,-1
 525 333 l 1,23,-1
 596 336 l 1,24,-1
 614 319 l 1,25,26
 605 216 605 216 605 166 c 2,27,-1
 605 19 l 1,28,29
 463 -15 463 -15 376 -15 c 0,30,31
 214 -15 214 -15 128 84.5 c 128,-1,32
 42 184 42 184 42 352 c 128,-1,33
 42 520 42 520 128 620 c 128,-1,34
 214 720 214 720 376 720 c 0,0,1
EndSplineSet
EndChar

StartChar: H
Encoding: 72 72 43
Width: 773
GlyphClass: 2
Flags: W
LayerCount: 2
Fore
SplineSet
643 538 m 2,0,-1
 643 167 l 2,1,2
 643 110 643 110 650 61 c 1,3,-1
 740 54 l 1,4,-1
 733 -5 l 1,5,6
 667 0 667 0 587 0 c 1,7,-1
 469 -5 l 1,8,-1
 464 45 l 1,9,-1
 543 61 l 1,10,11
 552 119 552 119 552 137 c 2,12,-1
 552 327 l 1,13,-1
 221 327 l 1,14,-1
 221 167 l 2,15,16
 221 110 221 110 228 61 c 1,17,-1
 318 54 l 1,18,-1
 311 -5 l 1,19,20
 245 0 245 0 165 0 c 1,21,-1
 47 -5 l 1,22,-1
 42 45 l 1,23,-1
 121 61 l 1,24,25
 130 120 130 120 130 137 c 2,26,-1
 130 568 l 2,27,28
 130 586 130 586 121 644 c 1,29,-1
 44 656 l 1,30,-1
 49 710 l 1,31,32
 145 705 145 705 165 705 c 2,33,-1
 302 710 l 1,34,-1
 306 651 l 1,35,-1
 228 644 l 1,36,37
 221 595 221 595 221 538 c 2,38,-1
 221 378 l 1,39,-1
 552 383 l 1,40,-1
 552 568 l 2,41,42
 552 586 552 586 543 644 c 1,43,-1
 466 656 l 1,44,-1
 471 710 l 1,45,46
 567 705 567 705 587 705 c 2,47,-1
 724 710 l 1,48,-1
 728 651 l 1,49,-1
 650 644 l 1,50,51
 643 595 643 595 643 538 c 2,0,-1
EndSplineSet
EndChar

StartChar: I
Encoding: 73 73 44
Width: 363
GlyphClass: 2
Flags: W
LayerCount: 2
Fore
SplineSet
227 538 m 2,0,-1
 227 167 l 2,1,2
 227 110 227 110 234 61 c 1,3,-1
 324 54 l 1,4,-1
 317 -5 l 1,5,6
 251 0 251 0 171 0 c 1,7,-1
 53 -5 l 1,8,-1
 48 45 l 1,9,-1
 127 61 l 1,10,11
 136 120 136 120 136 137 c 2,12,-1
 136 568 l 2,13,14
 136 586 136 586 127 644 c 1,15,-1
 50 656 l 1,16,-1
 55 710 l 1,17,18
 151 705 151 705 171 705 c 2,19,-1
 308 710 l 1,20,-1
 312 651 l 1,21,-1
 234 644 l 1,22,23
 227 595 227 595 227 538 c 2,0,-1
EndSplineSet
EndChar

StartChar: J
Encoding: 74 74 45
Width: 332
GlyphClass: 2
Flags: W
LayerCount: 2
Fore
SplineSet
217 538 m 2,0,-1
 217 -10 l 2,1,2
 217 -37 217 -37 80 -200 c 1,3,-1
 46 -178 l 1,4,5
 126 -9 126 -9 126 11 c 2,6,-1
 126 568 l 2,7,8
 126 586 126 586 117 644 c 1,9,-1
 40 656 l 1,10,-1
 45 710 l 1,11,12
 141 705 141 705 161 705 c 2,13,-1
 298 710 l 1,14,-1
 302 651 l 1,15,-1
 224 644 l 1,16,17
 217 595 217 595 217 538 c 2,0,-1
EndSplineSet
EndChar

StartChar: K
Encoding: 75 75 46
Width: 698
GlyphClass: 2
Flags: W
LayerCount: 2
Fore
SplineSet
688 54 m 1,0,-1
 681 -5 l 1,1,2
 620 0 620 0 540 0 c 1,3,-1
 412 -5 l 1,4,-1
 407 45 l 1,5,-1
 466 59 l 1,6,7
 422 130 422 130 396 164 c 1,8,-1
 231 353 l 1,9,-1
 413 577 l 1,10,-1
 452 645 l 1,11,-1
 398 656 l 1,12,-1
 403 710 l 1,13,14
 489 705 489 705 509 705 c 2,15,-1
 636 710 l 1,16,-1
 640 651 l 1,17,-1
 564 644 l 1,18,19
 512 596 512 596 462 546 c 1,20,-1
 330 370 l 1,21,22
 354 342 354 342 396.5 294 c 128,-1,23
 439 246 439 246 474.5 205 c 128,-1,24
 510 164 510 164 533.5 137.5 c 128,-1,25
 557 111 557 111 618 61 c 1,26,-1
 688 54 l 1,0,-1
221 538 m 2,27,-1
 221 167 l 2,28,29
 221 110 221 110 228 61 c 1,30,-1
 318 54 l 1,31,-1
 311 -5 l 1,32,33
 245 0 245 0 165 0 c 1,34,-1
 47 -5 l 1,35,-1
 42 45 l 1,36,-1
 121 61 l 1,37,38
 130 120 130 120 130 137 c 2,39,-1
 130 568 l 2,40,41
 130 586 130 586 121 644 c 1,42,-1
 44 656 l 1,43,-1
 49 710 l 1,44,45
 145 705 145 705 165 705 c 2,46,-1
 302 710 l 1,47,-1
 306 651 l 1,48,-1
 228 644 l 1,49,50
 221 595 221 595 221 538 c 2,27,-1
EndSplineSet
PairPos2: "'kern' Horizontal Kerning in Latin lookup 0 per glyph data 1" ygrave dx=0 dy=0 dh=-80 dv=0 dx=0 dy=0 dh=0 dv=0
PairPos2: "'kern' Horizontal Kerning in Latin lookup 0 per glyph data 1" Ygrave dx=0 dy=0 dh=-80 dv=0 dx=0 dy=0 dh=0 dv=0
PairPos2: "'kern' Horizontal Kerning in Latin lookup 0 per glyph data 1" wdieresis dx=0 dy=0 dh=-80 dv=0 dx=0 dy=0 dh=0 dv=0
PairPos2: "'kern' Horizontal Kerning in Latin lookup 0 per glyph data 1" Wdieresis dx=0 dy=0 dh=-80 dv=0 dx=0 dy=0 dh=0 dv=0
PairPos2: "'kern' Horizontal Kerning in Latin lookup 0 per glyph data 1" wacute dx=0 dy=0 dh=-80 dv=0 dx=0 dy=0 dh=0 dv=0
PairPos2: "'kern' Horizontal Kerning in Latin lookup 0 per glyph data 1" Wacute dx=0 dy=0 dh=-80 dv=0 dx=0 dy=0 dh=0 dv=0
PairPos2: "'kern' Horizontal Kerning in Latin lookup 0 per glyph data 1" wgrave dx=0 dy=0 dh=-80 dv=0 dx=0 dy=0 dh=0 dv=0
PairPos2: "'kern' Horizontal Kerning in Latin lookup 0 per glyph data 1" Wgrave dx=0 dy=0 dh=-80 dv=0 dx=0 dy=0 dh=0 dv=0
PairPos2: "'kern' Horizontal Kerning in Latin lookup 0 per glyph data 1" Ydieresis dx=0 dy=0 dh=-80 dv=0 dx=0 dy=0 dh=0 dv=0
PairPos2: "'kern' Horizontal Kerning in Latin lookup 0 per glyph data 1" ycircumflex dx=0 dy=0 dh=-80 dv=0 dx=0 dy=0 dh=0 dv=0
PairPos2: "'kern' Horizontal Kerning in Latin lookup 0 per glyph data 1" Ycircumflex dx=0 dy=0 dh=-80 dv=0 dx=0 dy=0 dh=0 dv=0
PairPos2: "'kern' Horizontal Kerning in Latin lookup 0 per glyph data 1" wcircumflex dx=0 dy=0 dh=-80 dv=0 dx=0 dy=0 dh=0 dv=0
PairPos2: "'kern' Horizontal Kerning in Latin lookup 0 per glyph data 1" Wcircumflex dx=0 dy=0 dh=-80 dv=0 dx=0 dy=0 dh=0 dv=0
PairPos2: "'kern' Horizontal Kerning in Latin lookup 0 per glyph data 1" ydieresis dx=0 dy=0 dh=-80 dv=0 dx=0 dy=0 dh=0 dv=0
PairPos2: "'kern' Horizontal Kerning in Latin lookup 0 per glyph data 1" yacute dx=0 dy=0 dh=-80 dv=0 dx=0 dy=0 dh=0 dv=0
PairPos2: "'kern' Horizontal Kerning in Latin lookup 0 per glyph data 1" Yacute dx=0 dy=0 dh=-80 dv=0 dx=0 dy=0 dh=0 dv=0
PairPos2: "'kern' Horizontal Kerning in Latin lookup 0 per glyph data 1" y dx=0 dy=0 dh=-80 dv=0 dx=0 dy=0 dh=0 dv=0
PairPos2: "'kern' Horizontal Kerning in Latin lookup 0 per glyph data 1" w dx=0 dy=0 dh=-80 dv=0 dx=0 dy=0 dh=0 dv=0
PairPos2: "'kern' Horizontal Kerning in Latin lookup 0 per glyph data 1" v dx=0 dy=0 dh=-80 dv=0 dx=0 dy=0 dh=0 dv=0
PairPos2: "'kern' Horizontal Kerning in Latin lookup 0 per glyph data 1" Y dx=0 dy=0 dh=-80 dv=0 dx=0 dy=0 dh=0 dv=0
PairPos2: "'kern' Horizontal Kerning in Latin lookup 0 per glyph data 1" W dx=0 dy=0 dh=-80 dv=0 dx=0 dy=0 dh=0 dv=0
PairPos2: "'kern' Horizontal Kerning in Latin lookup 0 per glyph data 1" V dx=0 dy=0 dh=-80 dv=0 dx=0 dy=0 dh=0 dv=0
PairPos2: "'kern' Horizontal Kerning in Latin lookup 0 per glyph data 1" O dx=0 dy=0 dh=-30 dv=0 dx=0 dy=0 dh=0 dv=0
PairPos2: "'kern' Horizontal Kerning in Latin lookup 0 per glyph data 1" hyphen dx=0 dy=0 dh=-80 dv=0 dx=0 dy=0 dh=0 dv=0
EndChar

StartChar: L
Encoding: 76 76 47
Width: 534
GlyphClass: 2
Flags: W
LayerCount: 2
Fore
SplineSet
221 538 m 2,0,-1
 221 167 l 2,1,2
 221 110 221 110 228 57 c 1,3,-1
 346 57 l 2,4,5
 384 57 384 57 433 66 c 1,6,7
 453 94 453 94 454 103 c 1,8,9
 466 150 466 150 469 170 c 1,10,-1
 524 165 l 1,11,-1
 509 14 l 1,12,-1
 490 -4 l 1,13,14
 396 0 396 0 376 0 c 2,15,-1
 165 0 l 1,16,-1
 47 -5 l 1,17,-1
 42 45 l 1,18,-1
 121 61 l 1,19,20
 130 120 130 120 130 137 c 2,21,-1
 130 568 l 2,22,23
 130 586 130 586 121 644 c 1,24,-1
 44 656 l 1,25,-1
 49 710 l 1,26,27
 145 705 145 705 165 705 c 2,28,-1
 302 710 l 1,29,-1
 306 651 l 1,30,-1
 228 644 l 1,31,32
 221 595 221 595 221 538 c 2,0,-1
EndSplineSet
EndChar

StartChar: M
Encoding: 77 77 48
Width: 928
GlyphClass: 2
Flags: W
LayerCount: 2
Fore
SplineSet
674 705 m 1,0,-1
 700 705 l 1,1,-1
 855 710 l 1,2,-1
 859 651 l 1,3,-1
 779 644 l 1,4,5
 776 626 776 626 776 569 c 1,6,-1
 810 132 l 2,7,8
 811 125 811 125 826 61 c 1,9,-1
 907 54 l 1,10,-1
 901 -5 l 1,11,12
 835 0 835 0 755 0 c 1,13,-1
 636 -5 l 1,14,-1
 631 45 l 1,15,-1
 709 61 l 1,16,17
 714 136 714 136 714 162 c 1,18,-1
 687 584 l 1,19,-1
 468 0 l 1,20,-1
 432 0 l 1,21,-1
 213 584 l 1,22,-1
 189 162 l 1,23,24
 189 141 189 141 194 61 c 1,25,-1
 275 54 l 1,26,-1
 268 -5 l 1,27,28
 217 0 217 0 139 0 c 1,29,-1
 32 -5 l 1,30,-1
 27 45 l 1,31,-1
 105 61 l 1,32,33
 106 65 106 65 110 80 c 0,34,35
 120 121 120 121 122 132 c 1,36,-1
 148 569 l 1,37,38
 148 616 148 616 144 644 c 1,39,-1
 62 656 l 1,40,-1
 67 710 l 1,41,-1
 205 706 l 1,42,-1
 261 706 l 1,43,-1
 280 685 l 1,44,45
 323 553 323 553 332 529 c 2,46,-1
 465 175 l 1,47,-1
 601 537 l 1,48,-1
 654 685 l 1,49,-1
 674 705 l 1,0,-1
EndSplineSet
EndChar

StartChar: N
Encoding: 78 78 49
Width: 761
GlyphClass: 2
Flags: W
LayerCount: 2
Fore
SplineSet
652 528 m 2,0,-1
 652 297 l 1,1,-1
 651 -7 l 1,2,-1
 591 -7 l 1,3,-1
 197 556 l 1,4,-1
 197 167 l 2,5,6
 197 110 197 110 204 61 c 1,7,-1
 285 54 l 1,8,-1
 278 -5 l 1,9,10
 235 0 235 0 155 0 c 1,11,-1
 47 -5 l 1,12,-1
 42 45 l 1,13,-1
 121 61 l 1,14,15
 130 120 130 120 130 137 c 2,16,-1
 130 568 l 2,17,18
 130 576 130 576 121 644 c 1,19,-1
 41 656 l 1,20,-1
 46 710 l 1,21,22
 142 705 142 705 162 705 c 2,23,-1
 206 706 l 1,24,-1
 226 685 l 1,25,26
 308 552 308 552 323 530 c 2,27,-1
 585 163 l 1,28,-1
 585 558 l 2,29,30
 585 587 585 587 576 641 c 1,31,-1
 497 647 l 1,32,-1
 503 707 l 1,33,-1
 585 705 l 1,34,-1
 741 710 l 1,35,-1
 746 657 l 1,36,-1
 667 641 l 1,37,38
 652 570 652 570 652 528 c 2,0,-1
EndSplineSet
EndChar

StartChar: O
Encoding: 79 79 50
Width: 740
GlyphClass: 2
Flags: W
LayerCount: 2
Fore
SplineSet
698 352 m 128,-1,1
 698 184 698 184 613.5 84.5 c 128,-1,2
 529 -15 529 -15 370 -15 c 128,-1,3
 211 -15 211 -15 126.5 84.5 c 128,-1,4
 42 184 42 184 42 352 c 128,-1,5
 42 520 42 520 126.5 620 c 128,-1,6
 211 720 211 720 370 720 c 128,-1,7
 529 720 529 720 613.5 620 c 128,-1,0
 698 520 698 520 698 352 c 128,-1,1
149 352 m 128,-1,9
 149 214 149 214 206 126 c 128,-1,10
 263 38 263 38 370 38 c 128,-1,11
 477 38 477 38 534 126 c 128,-1,12
 591 214 591 214 591 352 c 128,-1,13
 591 490 591 490 534 578.5 c 128,-1,14
 477 667 477 667 370 667 c 128,-1,15
 263 667 263 667 206 578.5 c 128,-1,8
 149 490 149 490 149 352 c 128,-1,9
EndSplineSet
EndChar

StartChar: P
Encoding: 80 80 51
Width: 586
GlyphClass: 2
Flags: W
LayerCount: 2
Fore
SplineSet
148 705 m 1,0,-1
 333 715 l 1,1,2
 438 715 438 715 497 661 c 128,-1,3
 556 607 556 607 556 505.5 c 128,-1,4
 556 404 556 404 485.5 347.5 c 128,-1,5
 415 291 415 291 310 291 c 0,6,7
 249 291 249 291 221 292 c 1,8,-1
 221 167 l 2,9,10
 221 110 221 110 228 61 c 1,11,-1
 322 54 l 1,12,-1
 315 -5 l 1,13,14
 245 0 245 0 165 0 c 1,15,-1
 47 -5 l 1,16,-1
 42 45 l 1,17,-1
 121 61 l 1,18,19
 130 120 130 120 130 137 c 2,20,-1
 130 568 l 2,21,22
 130 586 130 586 121 644 c 1,23,-1
 44 656 l 1,24,-1
 49 710 l 1,25,26
 114 706 114 706 148 705 c 1,0,-1
221 538 m 2,27,-1
 221 345 l 1,28,29
 273 341 273 341 290 341 c 0,30,31
 370 341 370 341 416 382 c 128,-1,32
 462 423 462 423 462 502 c 128,-1,33
 462 581 462 581 416.5 623 c 128,-1,34
 371 665 371 665 291 665 c 0,35,36
 271 665 271 665 228 660 c 1,37,38
 221 599 221 599 221 538 c 2,27,-1
EndSplineSet
EndChar

StartChar: Q
Encoding: 81 81 52
Width: 745
GlyphClass: 2
Flags: W
LayerCount: 2
Fore
SplineSet
370 -15 m 0,0,1
 211 -15 211 -15 126.5 84.5 c 128,-1,2
 42 184 42 184 42 352 c 128,-1,3
 42 520 42 520 126.5 620 c 128,-1,4
 211 720 211 720 370 720 c 128,-1,5
 529 720 529 720 613.5 620 c 128,-1,6
 698 520 698 520 698 352 c 0,7,8
 698 218 698 218 643 125.5 c 128,-1,9
 588 33 588 33 483 1 c 1,10,-1
 570 -60 l 2,11,12
 584 -70 584 -70 692 -116 c 1,13,-1
 728 -132 l 1,14,-1
 669 -224 l 1,15,-1
 407 -13 l 1,16,17
 383 -15 383 -15 370 -15 c 0,0,1
149 352 m 128,-1,19
 149 214 149 214 206 126 c 128,-1,20
 263 38 263 38 370 38 c 128,-1,21
 477 38 477 38 534 126 c 128,-1,22
 591 214 591 214 591 352 c 128,-1,23
 591 490 591 490 534 578.5 c 128,-1,24
 477 667 477 667 370 667 c 128,-1,25
 263 667 263 667 206 578.5 c 128,-1,18
 149 490 149 490 149 352 c 128,-1,19
EndSplineSet
EndChar

StartChar: R
Encoding: 82 82 53
Width: 646
GlyphClass: 2
Flags: W
LayerCount: 2
Fore
SplineSet
149 705 m 1,0,-1
 332 715 l 1,1,2
 437 715 437 715 495 662.5 c 128,-1,3
 553 610 553 610 553 508 c 0,4,5
 553 437 553 437 513 387.5 c 128,-1,6
 473 338 473 338 407 316 c 1,7,8
 482 173 482 173 513 131 c 1,9,10
 522 116 522 116 562 61 c 1,11,-1
 634 54 l 1,12,-1
 627 -5 l 1,13,14
 549 0 549 0 469 0 c 1,15,16
 427 92 427 92 414 116 c 2,17,-1
 316 301 l 1,18,-1
 309 301 l 2,19,20
 248 301 248 301 221 302 c 1,21,-1
 221 167 l 2,22,23
 221 110 221 110 228 61 c 1,24,-1
 318 54 l 1,25,-1
 311 -5 l 1,26,27
 245 0 245 0 165 0 c 1,28,-1
 47 -5 l 1,29,-1
 42 45 l 1,30,-1
 121 61 l 1,31,32
 130 120 130 120 130 137 c 2,33,-1
 130 568 l 2,34,35
 130 581 130 581 121 644 c 1,36,-1
 44 656 l 1,37,-1
 49 710 l 1,38,39
 116 707 116 707 149 705 c 1,0,-1
290 665 m 0,40,41
 279 665 279 665 229 659 c 1,42,43
 221 609 221 609 221 538 c 2,44,-1
 221 355 l 1,45,46
 271 351 271 351 289 351 c 0,47,48
 368 351 368 351 413.5 390.5 c 128,-1,49
 459 430 459 430 459 507 c 128,-1,50
 459 584 459 584 414 624.5 c 128,-1,51
 369 665 369 665 290 665 c 0,40,41
EndSplineSet
EndChar

StartChar: S
Encoding: 83 83 54
Width: 559
GlyphClass: 2
Flags: W
LayerCount: 2
Fore
SplineSet
131 138 m 2,0,1
 131 120 131 120 142 72 c 1,2,3
 210 45 210 45 271.5 45 c 128,-1,4
 333 45 333 45 368.5 77.5 c 128,-1,5
 404 110 404 110 404 170 c 0,6,7
 404 208 404 208 378.5 239 c 128,-1,8
 353 270 353 270 315.5 289.5 c 128,-1,9
 278 309 278 309 233.5 333 c 128,-1,10
 189 357 189 357 151.5 380.5 c 128,-1,11
 114 404 114 404 88.5 444 c 128,-1,12
 63 484 63 484 63 535 c 0,13,14
 63 622 63 622 123.5 671 c 128,-1,15
 184 720 184 720 269 720 c 128,-1,16
 354 720 354 720 482 688 c 1,17,-1
 468 537 l 1,18,-1
 409 543 l 1,19,-1
 409 587 l 2,20,21
 409 593 409 593 396 643 c 1,22,23
 345 665 345 665 286.5 665 c 128,-1,24
 228 665 228 665 195.5 636 c 128,-1,25
 163 607 163 607 163 554 c 0,26,27
 163 494 163 494 232 451 c 0,28,29
 262 432 262 432 299 413.5 c 128,-1,30
 336 395 336 395 373 374 c 128,-1,31
 410 353 410 353 440.5 328 c 128,-1,32
 471 303 471 303 490 265.5 c 128,-1,33
 509 228 509 228 509 182 c 0,34,35
 509 86 509 86 442 35.5 c 128,-1,36
 375 -15 375 -15 270 -15 c 0,37,38
 210 -15 210 -15 155 -1.5 c 128,-1,39
 100 12 100 12 75 25 c 2,40,-1
 50 38 l 1,41,-1
 65 192 l 1,42,-1
 131 186 l 1,43,-1
 131 138 l 2,0,1
EndSplineSet
EndChar

StartChar: T
Encoding: 84 84 55
Width: 595
GlyphClass: 2
Flags: W
LayerCount: 2
Fore
SplineSet
252 568 m 2,0,1
 252 595 252 595 243 649 c 1,2,-1
 180 649 l 2,3,4
 154 649 154 649 99 644 c 1,5,6
 80 620 80 620 76.5 603.5 c 128,-1,7
 73 587 73 587 68 548 c 1,8,-1
 10 553 l 1,9,-1
 17 697 l 1,10,-1
 36 715 l 1,11,12
 130 705 130 705 150 705 c 2,13,-1
 445 705 l 1,14,-1
 559 715 l 1,15,-1
 578 697 l 1,16,-1
 585 553 l 1,17,-1
 527 548 l 1,18,19
 522 587 522 587 518.5 603.5 c 128,-1,20
 515 620 515 620 496 644 c 1,21,22
 441 649 441 649 415 649 c 2,23,-1
 350 649 l 1,24,25
 343 579 343 579 343 538 c 2,26,-1
 343 167 l 2,27,28
 343 110 343 110 350 61 c 1,29,-1
 440 54 l 1,30,-1
 433 -5 l 1,31,32
 367 0 367 0 287 0 c 1,33,-1
 169 -5 l 1,34,-1
 164 45 l 1,35,-1
 243 61 l 1,36,37
 252 120 252 120 252 137 c 2,38,-1
 252 568 l 2,0,1
EndSplineSet
EndChar

StartChar: U
Encoding: 85 85 56
Width: 727
GlyphClass: 2
Flags: W
LayerCount: 2
Fore
SplineSet
622 533 m 2,0,-1
 622 266 l 2,1,2
 622 135 622 135 555.5 60 c 128,-1,3
 489 -15 489 -15 363 -15 c 128,-1,4
 237 -15 237 -15 171 60 c 128,-1,5
 105 135 105 135 105 266 c 2,6,-1
 105 563 l 2,7,8
 105 576 105 576 96 644 c 1,9,-1
 17 656 l 1,10,-1
 22 710 l 1,11,12
 118 705 118 705 138 705 c 2,13,-1
 282 710 l 1,14,-1
 286 651 l 1,15,-1
 207 644 l 1,16,17
 200 592 200 592 200 533 c 2,18,-1
 200 266 l 2,19,20
 200 167 200 167 244 108 c 128,-1,21
 288 49 288 49 373.5 49 c 128,-1,22
 459 49 459 49 504.5 108.5 c 128,-1,23
 550 168 550 168 550 266 c 2,24,-1
 550 563 l 2,25,26
 550 574 550 574 540 644 c 1,27,-1
 462 656 l 1,28,-1
 467 710 l 1,29,30
 553 705 553 705 573 705 c 2,31,-1
 704 710 l 1,32,-1
 708 651 l 1,33,-1
 629 644 l 1,34,35
 622 592 622 592 622 533 c 2,0,-1
EndSplineSet
EndChar

StartChar: V
Encoding: 86 86 57
Width: 693
GlyphClass: 2
Flags: W
LayerCount: 2
Fore
SplineSet
323 0 m 1,0,-1
 108 556 l 2,1,2
 97 586 97 586 72 628 c 1,3,-1
 65 641 l 1,4,-1
 -1 651 l 1,5,-1
 4 705 l 1,6,-1
 113 705 l 1,7,-1
 260 710 l 1,8,-1
 264 661 l 1,9,-1
 185 641 l 1,10,11
 193 590 193 590 215 533 c 2,12,-1
 362 148 l 1,13,-1
 511 578 l 1,14,-1
 522 641 l 1,15,-1
 446 651 l 1,16,-1
 451 705 l 1,17,-1
 541 705 l 1,18,-1
 684 710 l 1,19,-1
 688 661 l 1,20,-1
 620 644 l 1,21,22
 593 599 593 599 574 545 c 2,23,-1
 384 0 l 1,24,-1
 323 0 l 1,0,-1
EndSplineSet
EndChar

StartChar: W
Encoding: 87 87 58
Width: 1011
GlyphClass: 2
Flags: W
LayerCount: 2
Fore
SplineSet
1009 661 m 1,0,-1
 941 644 l 1,1,2
 907 584 907 584 895 545 c 2,3,-1
 731 0 l 1,4,-1
 670 0 l 1,5,-1
 503 506 l 1,6,-1
 351 0 l 1,7,-1
 290 0 l 1,8,-1
 107 556 l 2,9,10
 96 592 96 592 74 629 c 2,11,-1
 67 641 l 1,12,-1
 1 651 l 1,13,-1
 6 705 l 1,14,-1
 115 705 l 1,15,-1
 262 710 l 1,16,-1
 266 661 l 1,17,-1
 187 641 l 1,18,19
 199 584 199 584 214 533 c 2,20,-1
 329 148 l 1,21,-1
 487 685 l 1,22,-1
 540 685 l 1,23,-1
 709 148 l 1,24,-1
 832 578 l 1,25,-1
 843 641 l 1,26,-1
 767 651 l 1,27,-1
 772 705 l 1,28,-1
 862 705 l 1,29,-1
 1005 710 l 1,30,-1
 1009 661 l 1,0,-1
EndSplineSet
EndChar

StartChar: X
Encoding: 88 88 59
Width: 718
GlyphClass: 2
Flags: W
LayerCount: 2
Fore
SplineSet
306 355 m 1,0,-1
 162 558 l 2,1,2
 141 587 141 587 100 641 c 1,3,-1
 19 651 l 1,4,-1
 26 706 l 1,5,6
 95 705 95 705 115 705 c 2,7,-1
 302 710 l 1,8,-1
 307 663 l 1,9,-1
 228 641 l 1,10,11
 257 571 257 571 269 555 c 2,12,-1
 364 422 l 1,13,-1
 461 578 l 2,14,15
 470 593 470 593 494 641 c 1,16,-1
 416 651 l 1,17,-1
 423 706 l 1,18,19
 475 705 475 705 503 705 c 2,20,-1
 675 710 l 1,21,-1
 680 663 l 1,22,-1
 611 647 l 1,23,24
 549 590 549 590 532 569 c 1,25,-1
 403 368 l 1,26,-1
 572 132 l 1,27,28
 594 104 594 104 633 64 c 1,29,-1
 712 54 l 1,30,-1
 705 -1 l 1,31,32
 640 0 640 0 625 0 c 2,33,-1
 441 -5 l 1,34,-1
 436 42 l 1,35,-1
 502 60 l 1,36,37
 477 116 477 116 457 142 c 1,38,-1
 344 301 l 1,39,-1
 230 132 l 2,40,41
 219 115 219 115 195 64 c 1,42,-1
 275 54 l 1,43,-1
 268 -1 l 1,44,45
 210 0 210 0 188 0 c 2,46,-1
 23 -5 l 1,47,-1
 18 42 l 1,48,-1
 79 59 l 1,49,50
 161 145 161 145 175 164 c 2,51,-1
 306 355 l 1,0,-1
EndSplineSet
EndChar

StartChar: Y
Encoding: 89 89 60
Width: 663
GlyphClass: 2
Flags: W
LayerCount: 2
Fore
SplineSet
374 167 m 2,0,1
 374 110 374 110 381 61 c 1,2,-1
 471 54 l 1,3,-1
 464 -5 l 1,4,5
 398 0 398 0 318 0 c 1,6,-1
 200 -5 l 1,7,-1
 195 45 l 1,8,-1
 274 61 l 1,9,10
 283 119 283 119 283 137 c 2,11,-1
 283 257 l 1,12,-1
 128 556 l 1,13,14
 109 595 109 595 82 629 c 1,15,-1
 72 641 l 1,16,-1
 6 651 l 1,17,-1
 11 705 l 1,18,-1
 120 705 l 1,19,-1
 267 710 l 1,20,-1
 271 661 l 1,21,-1
 192 641 l 1,22,23
 203 592 203 592 235 533 c 2,24,-1
 336 344 l 1,25,-1
 451 578 l 1,26,-1
 479 641 l 1,27,-1
 403 651 l 1,28,-1
 408 705 l 1,29,-1
 498 705 l 1,30,-1
 641 710 l 1,31,-1
 645 661 l 1,32,-1
 577 644 l 1,33,34
 541 597 541 597 514 545 c 2,35,-1
 374 273 l 1,36,-1
 374 167 l 2,0,1
EndSplineSet
EndChar

StartChar: Z
Encoding: 90 90 61
Width: 557
GlyphClass: 2
Flags: W
LayerCount: 2
Fore
SplineSet
216 646 m 2,0,1
 185 646 185 646 130 641 c 1,2,-1
 114 607 l 1,3,4
 105 573 105 573 101 523 c 1,5,-1
 43 528 l 1,6,-1
 50 697 l 1,7,-1
 69 715 l 1,8,9
 163 705 163 705 183 705 c 2,10,-1
 514 705 l 1,11,-1
 521 649 l 1,12,-1
 413 494 l 1,13,-1
 222 191 l 1,14,-1
 149 59 l 1,15,-1
 352 59 l 2,16,17
 390 59 390 59 440 68 c 1,18,19
 458 92 458 92 464 116.5 c 128,-1,20
 470 141 470 141 475 180 c 1,21,-1
 530 175 l 1,22,-1
 515 14 l 1,23,-1
 496 -4 l 1,24,25
 402 0 402 0 382 0 c 2,26,-1
 34 0 l 1,27,-1
 27 57 l 1,28,29
 109 171 109 171 139 219 c 2,30,-1
 329 520 l 1,31,-1
 399 646 l 1,32,-1
 216 646 l 2,0,1
EndSplineSet
EndChar

StartChar: bracketleft
Encoding: 91 91 62
Width: 265
GlyphClass: 2
Flags: W
LayerCount: 2
Fore
SplineSet
85 90 m 2,0,-1
 85 551 l 1,1,-1
 75 743 l 1,2,-1
 94 762 l 1,3,-1
 252 766 l 1,4,-1
 255 723 l 1,5,-1
 171 711 l 1,6,7
 157 651 157 651 157 601 c 2,8,-1
 157 40 l 2,9,10
 157 -4 157 -4 168 -54 c 1,11,-1
 171 -70 l 1,12,-1
 255 -82 l 1,13,-1
 252 -125 l 1,14,15
 163 -121 163 -121 94 -121 c 1,16,-1
 75 -102 l 1,17,18
 85 70 85 70 85 90 c 2,0,-1
EndSplineSet
EndChar

StartChar: backslash
Encoding: 92 92 63
Width: 398
GlyphClass: 2
Flags: W
LayerCount: 2
Fore
SplineSet
381 -47 m 1,0,-1
 317 -67 l 1,1,-1
 7 753 l 1,2,-1
 70 773 l 1,3,-1
 381 -47 l 1,0,-1
EndSplineSet
EndChar

StartChar: bracketright
Encoding: 93 93 64
Width: 265
GlyphClass: 2
Flags: W
LayerCount: 2
Fore
SplineSet
180 551 m 2,0,-1
 180 90 l 1,1,-1
 190 -102 l 1,2,-1
 171 -121 l 1,3,-1
 13 -125 l 1,4,-1
 10 -82 l 1,5,-1
 94 -70 l 1,6,7
 108 -10 108 -10 108 40 c 2,8,-1
 108 601 l 2,9,10
 108 645 108 645 98 694 c 1,11,-1
 94 711 l 1,12,-1
 10 723 l 1,13,-1
 13 766 l 1,14,15
 102 762 102 762 171 762 c 1,16,-1
 190 743 l 1,17,18
 180 571 180 571 180 551 c 2,0,-1
EndSplineSet
EndChar

StartChar: asciicircum
Encoding: 94 94 65
Width: 560
GlyphClass: 2
Flags: W
LayerCount: 2
Fore
SplineSet
280 615 m 1,0,-1
 73 313 l 1,1,-1
 10 357 l 1,2,-1
 280 728 l 1,3,-1
 550 357 l 1,4,-1
 487 313 l 1,5,-1
 280 615 l 1,0,-1
EndSplineSet
EndChar

StartChar: underscore
Encoding: 95 95 66
Width: 504
GlyphClass: 2
Flags: W
LayerCount: 2
Fore
SplineSet
2 -232 m 1,0,-1
 0 -157 l 1,1,-1
 504 -157 l 1,2,-1
 499 -232 l 1,3,-1
 2 -232 l 1,0,-1
EndSplineSet
EndChar

StartChar: grave
Encoding: 96 96 67
Width: 360
GlyphClass: 2
Flags: W
LayerCount: 2
Fore
SplineSet
293 605 m 1,0,-1
 260 564 l 1,1,-1
 187 624 l 1,2,-1
 66 695 l 1,3,-1
 113 755 l 1,4,-1
 293 605 l 1,0,-1
EndSplineSet
EndChar

StartChar: a
Encoding: 97 97 68
Width: 537
GlyphClass: 2
Flags: W
LayerCount: 2
Fore
SplineSet
526 44 m 1,0,-1
 522 -1 l 1,1,2
 473 0 473 0 447 0 c 2,3,-1
 320 -4 l 1,4,-1
 317 40 l 1,5,-1
 370 52 l 1,6,-1
 355 117 l 1,7,-1
 340 159 l 1,8,-1
 177 159 l 1,9,-1
 156 92 l 1,10,-1
 149 52 l 1,11,-1
 200 44 l 1,12,-1
 196 -1 l 1,13,14
 152 0 152 0 124 0 c 1,15,-1
 18 -4 l 1,16,-1
 15 40 l 1,17,-1
 59 50 l 1,18,-1
 92 120 l 1,19,-1
 235 529 l 1,20,-1
 294 537 l 1,21,-1
 453 106 l 1,22,-1
 479 51 l 1,23,-1
 526 44 l 1,0,-1
258 401 m 1,24,-1
 193 205 l 1,25,-1
 323 208 l 1,26,-1
 258 401 l 1,24,-1
EndSplineSet
EndChar

StartChar: b
Encoding: 98 98 69
Width: 493
GlyphClass: 2
Flags: W
LayerCount: 2
Fore
SplineSet
129 529 m 1,0,-1
 273 536 l 1,1,2
 340 536 340 536 385 501.5 c 128,-1,3
 430 467 430 467 430 413 c 128,-1,4
 430 359 430 359 400 324.5 c 128,-1,5
 370 290 370 290 322 278 c 1,6,-1
 322 273 l 1,7,8
 382 264 382 264 418 229.5 c 128,-1,9
 454 195 454 195 454 134 c 128,-1,10
 454 73 454 73 406 34.5 c 128,-1,11
 358 -4 358 -4 286 -4 c 1,12,-1
 129 0 l 1,13,-1
 51 -4 l 1,14,-1
 47 40 l 1,15,-1
 101 50 l 1,16,17
 108 85 108 85 108 110 c 2,18,-1
 108 410 l 2,19,20
 108 432 108 432 101 477 c 1,21,-1
 49 486 l 1,22,-1
 52 533 l 1,23,24
 103 529 103 529 129 529 c 1,0,-1
195 405 m 2,25,-1
 195 133 l 2,26,27
 195 90 195 90 199 50 c 1,28,29
 226 47 226 47 266.5 47 c 128,-1,30
 307 47 307 47 334.5 73 c 128,-1,31
 362 99 362 99 362 148.5 c 128,-1,32
 362 198 362 198 327 223 c 128,-1,33
 292 248 292 248 238 248 c 2,34,-1
 230 248 l 1,35,-1
 235 299 l 1,36,-1
 240 299 l 2,37,38
 286 299 286 299 315 325 c 128,-1,39
 344 351 344 351 344 394.5 c 128,-1,40
 344 438 344 438 319.5 463 c 128,-1,41
 295 488 295 488 256 488 c 0,42,43
 234 488 234 488 200 484 c 1,44,45
 195 461 195 461 195 405 c 2,25,-1
EndSplineSet
EndChar

StartChar: c
Encoding: 99 99 70
Width: 500
GlyphClass: 2
Flags: W
LayerCount: 2
Fore
SplineSet
294 -11 m 0,0,1
 170 -11 170 -11 104 63.5 c 128,-1,2
 38 138 38 138 38 264.5 c 128,-1,3
 38 391 38 391 104 465.5 c 128,-1,4
 170 540 170 540 294 540 c 0,5,6
 355 540 355 540 457 515 c 1,7,-1
 449 395 l 1,8,-1
 398 398 l 1,9,-1
 398 437 l 2,10,11
 398 446 398 446 388 472 c 1,12,13
 334 486 334 486 294 486 c 0,14,15
 217 486 217 486 177.5 424.5 c 128,-1,16
 138 363 138 363 138 264.5 c 128,-1,17
 138 166 138 166 177 104 c 128,-1,18
 216 42 216 42 293 42 c 0,19,20
 339 42 339 42 396 57 c 1,21,22
 407 90 407 90 407 97 c 2,23,-1
 409 132 l 1,24,-1
 459 134 l 1,25,-1
 464 14 l 1,26,27
 362 -11 362 -11 294 -11 c 0,0,1
EndSplineSet
EndChar

StartChar: d
Encoding: 100 100 71
Width: 585
GlyphClass: 2
Flags: W
LayerCount: 2
Fore
SplineSet
125 529 m 1,0,-1
 276 536 l 1,1,2
 406 536 406 536 476.5 463 c 128,-1,3
 547 390 547 390 547 266 c 128,-1,4
 547 142 547 142 475 68.5 c 128,-1,5
 403 -5 403 -5 276 -5 c 1,6,7
 276 -5 276 -5 134 0 c 1,8,-1
 46 -4 l 1,9,-1
 43 40 l 1,10,-1
 101 50 l 1,11,12
 108 92 108 92 108 110 c 2,13,-1
 108 410 l 2,14,15
 108 435 108 435 101 477 c 1,16,-1
 44 486 l 1,17,-1
 48 533 l 1,18,19
 95 530 95 530 125 529 c 1,0,-1
273 485 m 0,20,21
 232 485 232 485 200 480 c 1,22,23
 195 410 195 410 195 405 c 2,24,-1
 195 133 l 2,25,26
 195 79 195 79 200 49 c 1,27,28
 232 47 232 47 273 47 c 0,29,30
 363 47 363 47 407.5 107.5 c 128,-1,31
 452 168 452 168 452 264.5 c 128,-1,32
 452 361 452 361 407 423 c 128,-1,33
 362 485 362 485 273 485 c 0,20,21
EndSplineSet
EndChar

StartChar: e
Encoding: 101 101 72
Width: 484
GlyphClass: 2
Flags: W
LayerCount: 2
Fore
SplineSet
200 479 m 1,0,-1
 195 405 l 1,1,-1
 195 298 l 1,2,3
 207 297 207 297 224 297 c 2,4,-1
 277 297 l 1,5,-1
 320 303 l 1,6,-1
 327 352 l 1,7,-1
 367 349 l 1,8,9
 366 301 366 301 366 286 c 2,10,-1
 368 199 l 1,11,-1
 327 194 l 1,12,-1
 320 243 l 1,13,14
 277 247 277 247 261 247 c 2,15,-1
 226 247 l 2,16,17
 206 247 206 247 195 245 c 1,18,-1
 195 133 l 2,19,20
 195 88 195 88 200 51 c 1,21,-1
 307 51 l 2,22,23
 335 51 335 51 372 58 c 1,24,25
 386 78 386 78 388 87 c 0,26,27
 398 129 398 129 399 135 c 1,28,-1
 446 131 l 1,29,-1
 434 11 l 1,30,-1
 419 -3 l 1,31,32
 346 0 346 0 330 0 c 2,33,-1
 134 0 l 1,34,-1
 46 -4 l 1,35,-1
 43 40 l 1,36,-1
 101 50 l 1,37,38
 108 82 108 82 108 110 c 2,39,-1
 108 410 l 2,40,41
 108 435 108 435 101 477 c 1,42,-1
 44 486 l 1,43,-1
 48 533 l 1,44,45
 114 529 114 529 134 529 c 2,46,-1
 320 529 l 1,47,-1
 409 536 l 1,48,-1
 424 523 l 1,49,-1
 429 415 l 1,50,-1
 380 411 l 1,51,52
 378 437 378 437 372 453 c 1,53,54
 372 459 372 459 359 476 c 1,55,56
 311 479 311 479 297 479 c 2,57,-1
 200 479 l 1,0,-1
EndSplineSet
EndChar

StartChar: f
Encoding: 102 102 73
Width: 453
GlyphClass: 2
Flags: W
LayerCount: 2
Fore
SplineSet
200 479 m 1,0,-1
 195 405 l 1,1,-1
 195 291 l 1,2,3
 207 290 207 290 224 290 c 2,4,-1
 277 290 l 1,5,-1
 320 297 l 1,6,-1
 327 345 l 1,7,-1
 367 342 l 1,8,9
 366 294 366 294 366 279 c 2,10,-1
 368 192 l 1,11,-1
 327 188 l 1,12,-1
 320 236 l 1,13,14
 277 240 277 240 261 240 c 2,15,-1
 224 240 l 2,16,17
 206 240 206 240 195 239 c 1,18,-1
 195 132 l 2,19,20
 195 86 195 86 201 50 c 1,21,-1
 278 45 l 1,22,-1
 273 -4 l 1,23,24
 205 0 205 0 134 0 c 1,25,-1
 46 -4 l 1,26,-1
 43 40 l 1,27,-1
 101 50 l 1,28,29
 108 82 108 82 108 110 c 2,30,-1
 108 410 l 2,31,32
 108 442 108 442 101 477 c 1,33,-1
 44 486 l 1,34,-1
 48 533 l 1,35,36
 112 529 112 529 134 529 c 2,37,-1
 320 529 l 1,38,-1
 409 536 l 1,39,-1
 424 523 l 1,40,-1
 429 415 l 1,41,-1
 380 411 l 1,42,43
 378 437 378 437 372 453 c 1,44,45
 372 459 372 459 360 475 c 1,46,47
 326 479 326 479 297 479 c 2,48,-1
 200 479 l 1,0,-1
EndSplineSet
EndChar

StartChar: g
Encoding: 103 103 74
Width: 545
GlyphClass: 2
Flags: W
LayerCount: 2
Fore
SplineSet
307 540 m 0,0,1
 371 540 371 540 481 515 c 1,2,-1
 472 399 l 1,3,-1
 421 403 l 1,4,-1
 420 437 l 2,5,6
 420 442 420 442 411 471 c 1,7,8
 354 486 354 486 305 486 c 0,9,10
 222 486 222 486 179.5 424.5 c 128,-1,11
 137 363 137 363 137 264.5 c 128,-1,12
 137 166 137 166 179.5 104 c 128,-1,13
 222 42 222 42 305 42 c 0,14,15
 347 42 347 42 404 54 c 1,16,17
 412 88 412 88 412 96 c 2,18,-1
 412 147 l 1,19,-1
 404 197 l 1,20,-1
 321 203 l 1,21,-1
 325 258 l 1,22,-1
 412 258 l 1,23,-1
 478 261 l 1,24,-1
 495 246 l 1,25,26
 488 171 488 171 488 133 c 2,27,-1
 488 14 l 1,28,29
 378 -11 378 -11 307 -11 c 0,30,31
 177 -11 177 -11 107.5 63.5 c 128,-1,32
 38 138 38 138 38 264 c 128,-1,33
 38 390 38 390 107.5 465 c 128,-1,34
 177 540 177 540 307 540 c 0,0,1
EndSplineSet
EndChar

StartChar: h
Encoding: 104 104 75
Width: 635
GlyphClass: 2
Flags: W
LayerCount: 2
Fore
SplineSet
101 50 m 1,0,-1
 108 110 l 1,1,-1
 108 410 l 2,2,3
 108 428 108 428 104.5 451 c 128,-1,4
 101 474 101 474 101 477 c 1,5,-1
 44 486 l 1,6,-1
 48 533 l 1,7,8
 112 529 112 529 134 529 c 2,9,-1
 256 533 l 1,10,-1
 259 482 l 1,11,-1
 201 477 l 1,12,13
 195 444 195 444 195 405 c 2,14,-1
 195 287 l 1,15,-1
 440 290 l 1,16,-1
 440 410 l 2,17,18
 440 428 440 428 436.5 451 c 128,-1,19
 433 474 433 474 433 477 c 1,20,-1
 376 486 l 1,21,-1
 379 533 l 1,22,23
 443 529 443 529 466 529 c 2,24,-1
 587 533 l 1,25,-1
 591 482 l 1,26,-1
 533 477 l 1,27,28
 527 444 527 444 527 405 c 2,29,-1
 527 133 l 2,30,31
 527 83 527 83 533 50 c 1,32,-1
 597 45 l 1,33,-1
 592 -4 l 1,34,35
 536 0 536 0 466 0 c 1,36,-1
 378 -4 l 1,37,-1
 374 40 l 1,38,-1
 433 50 l 1,39,-1
 440 110 l 1,40,-1
 440 238 l 1,41,-1
 195 238 l 1,42,-1
 195 133 l 2,43,44
 195 116 195 116 201 50 c 1,45,-1
 265 45 l 1,46,-1
 260 -4 l 1,47,48
 205 0 205 0 134 0 c 1,49,-1
 46 -4 l 1,50,-1
 43 40 l 1,51,-1
 101 50 l 1,0,-1
EndSplineSet
EndChar

StartChar: i
Encoding: 105 105 76
Width: 311
GlyphClass: 2
Flags: W
LayerCount: 2
Fore
SplineSet
200 405 m 2,0,-1
 200 133 l 2,1,2
 200 83 200 83 206 50 c 1,3,-1
 269 45 l 1,4,-1
 264 -4 l 1,5,6
 209 0 209 0 138 0 c 1,7,-1
 51 -4 l 1,8,-1
 47 40 l 1,9,-1
 105 50 l 1,10,11
 112 82 112 82 112 110 c 2,12,-1
 112 410 l 2,13,14
 112 438 112 438 105 477 c 1,15,-1
 48 486 l 1,16,-1
 52 533 l 1,17,18
 116 529 116 529 139 529 c 2,19,-1
 260 533 l 1,20,-1
 263 482 l 1,21,-1
 206 477 l 1,22,23
 200 444 200 444 200 405 c 2,0,-1
EndSplineSet
EndChar

StartChar: j
Encoding: 106 106 77
Width: 287
GlyphClass: 2
Flags: W
LayerCount: 2
Fore
SplineSet
190 405 m 2,0,-1
 190 -2 l 2,1,2
 190 -26 190 -26 73 -150 c 1,3,-1
 41 -131 l 1,4,5
 103 -7 103 -7 103 8 c 2,6,-1
 103 410 l 2,7,8
 103 428 103 428 99.5 451.5 c 128,-1,9
 96 475 96 475 96 477 c 1,10,-1
 39 486 l 1,11,-1
 43 533 l 1,12,13
 106 529 106 529 129 529 c 2,14,-1
 250 533 l 1,15,-1
 254 482 l 1,16,-1
 196 477 l 1,17,18
 190 450 190 450 190 405 c 2,0,-1
EndSplineSet
EndChar

StartChar: k
Encoding: 107 107 78
Width: 576
GlyphClass: 2
Flags: W
LayerCount: 2
Fore
SplineSet
563 45 m 1,0,-1
 558 -4 l 1,1,2
 503 0 503 0 432 0 c 1,3,-1
 341 -4 l 1,4,-1
 337 40 l 1,5,-1
 378 48 l 1,6,7
 349 94 349 94 326 123 c 1,8,-1
 201 265 l 1,9,-1
 338 433 l 1,10,-1
 366 479 l 1,11,-1
 330 486 l 1,12,-1
 334 533 l 1,13,14
 391 529 391 529 414 529 c 2,15,-1
 523 533 l 1,16,-1
 526 482 l 1,17,-1
 472 477 l 1,18,19
 424 434 424 434 399 410 c 1,20,-1
 297 278 l 1,21,-1
 460 97 l 2,22,23
 467 89 467 89 514 50 c 1,24,-1
 563 45 l 1,0,-1
101 50 m 1,25,-1
 108 110 l 1,26,-1
 108 410 l 2,27,28
 108 428 108 428 104.5 451 c 128,-1,29
 101 474 101 474 101 477 c 1,30,-1
 45 486 l 1,31,-1
 48 533 l 1,32,33
 111 529 111 529 134 529 c 2,34,-1
 255 533 l 1,35,-1
 258 482 l 1,36,-1
 201 477 l 1,37,38
 195 444 195 444 195 405 c 2,39,-1
 195 133 l 2,40,41
 195 116 195 116 201 50 c 1,42,-1
 264 45 l 1,43,-1
 259 -4 l 1,44,45
 204 0 204 0 134 0 c 1,46,-1
 47 -4 l 1,47,-1
 43 40 l 1,48,-1
 101 50 l 1,25,-1
EndSplineSet
EndChar

StartChar: l
Encoding: 108 108 79
Width: 443
GlyphClass: 2
Flags: W
LayerCount: 2
Fore
SplineSet
101 50 m 1,0,-1
 108 110 l 1,1,-1
 108 410 l 2,2,3
 108 428 108 428 104.5 451 c 128,-1,4
 101 474 101 474 101 477 c 1,5,-1
 44 486 l 1,6,-1
 48 533 l 1,7,8
 112 529 112 529 134 529 c 2,9,-1
 256 533 l 1,10,-1
 259 482 l 1,11,-1
 201 477 l 1,12,13
 195 444 195 444 195 405 c 2,14,-1
 195 133 l 2,15,16
 195 90 195 90 201 51 c 1,17,-1
 287 51 l 2,18,19
 315 51 315 51 352 58 c 1,20,21
 371 86 371 86 379 135 c 1,22,-1
 426 131 l 1,23,-1
 414 11 l 1,24,-1
 399 -3 l 1,25,26
 326 0 326 0 310 0 c 2,27,-1
 134 0 l 1,28,-1
 46 -4 l 1,29,-1
 43 40 l 1,30,-1
 101 50 l 1,0,-1
EndSplineSet
EndChar

StartChar: m
Encoding: 109 109 80
Width: 755
GlyphClass: 2
Flags: W
LayerCount: 2
Fore
SplineSet
164 529 m 2,0,-1
 229 529 l 1,1,-1
 244 514 l 1,2,3
 275 420 275 420 283 398 c 2,4,-1
 379 145 l 1,5,-1
 479 406 l 1,6,-1
 517 514 l 1,7,-1
 532 529 l 1,8,-1
 571 529 l 1,9,-1
 686 533 l 1,10,-1
 689 484 l 1,11,-1
 631 478 l 1,12,13
 628 461 628 461 628 427 c 1,14,-1
 654 99 l 2,15,16
 656 86 656 86 666 50 c 1,17,-1
 726 45 l 1,18,-1
 721 -4 l 1,19,20
 668 0 668 0 599 0 c 1,21,-1
 510 -4 l 1,22,-1
 506 39 l 1,23,-1
 564 50 l 1,24,25
 568 102 568 102 568 122 c 1,26,-1
 549 419 l 1,27,-1
 388 0 l 1,28,-1
 345 0 l 1,29,-1
 185 419 l 1,30,-1
 167 122 l 2,31,32
 167 106 167 106 171 50 c 1,33,-1
 231 45 l 1,34,-1
 225 -4 l 1,35,36
 187 0 187 0 118 0 c 1,37,-1
 37 -4 l 1,38,-1
 33 39 l 1,39,-1
 91 50 l 1,40,41
 101 86 101 86 103 99 c 1,42,-1
 124 427 l 2,43,44
 124 442 124 442 121 478 c 1,45,-1
 60 487 l 1,46,-1
 64 533 l 1,47,48
 142 529 142 529 164 529 c 2,0,-1
EndSplineSet
EndChar

StartChar: n
Encoding: 110 110 81
Width: 622
GlyphClass: 2
Flags: W
LayerCount: 2
Fore
SplineSet
101 50 m 1,0,-1
 108 110 l 1,1,-1
 108 410 l 2,2,3
 108 428 108 428 104.5 451.5 c 128,-1,4
 101 475 101 475 101 477 c 1,5,-1
 42 486 l 1,6,-1
 46 533 l 1,7,8
 110 529 110 529 133 529 c 2,9,-1
 182 529 l 1,10,-1
 197 514 l 1,11,12
 259 416 259 416 270 400 c 2,13,-1
 464 142 l 1,14,-1
 464 405 l 2,15,16
 464 431 464 431 457 476 c 1,17,-1
 399 482 l 1,18,-1
 403 531 l 1,19,-1
 472 529 l 1,20,-1
 596 533 l 1,21,-1
 600 485 l 1,22,-1
 542 476 l 1,23,24
 532 433 532 433 532 400 c 2,25,-1
 532 193 l 1,26,-1
 531 -3 l 1,27,-1
 465 -3 l 1,28,-1
 175 386 l 1,29,-1
 175 133 l 2,30,31
 175 110 175 110 181 50 c 1,32,-1
 240 45 l 1,33,-1
 236 -4 l 1,34,35
 199 0 199 0 129 0 c 1,36,-1
 46 -4 l 1,37,-1
 43 40 l 1,38,-1
 101 50 l 1,0,-1
EndSplineSet
EndChar

StartChar: o
Encoding: 111 111 82
Width: 602
GlyphClass: 2
Flags: W
LayerCount: 2
Fore
SplineSet
495 466 m 128,-1,1
 564 391 564 391 564 264.5 c 128,-1,2
 564 138 564 138 495 63 c 128,-1,3
 426 -12 426 -12 301 -12 c 128,-1,4
 176 -12 176 -12 107 63 c 128,-1,5
 38 138 38 138 38 264.5 c 128,-1,6
 38 391 38 391 107 466 c 128,-1,7
 176 541 176 541 301 541 c 128,-1,0
 426 541 426 541 495 466 c 128,-1,1
180.5 429 m 128,-1,9
 140 369 140 369 140 264.5 c 128,-1,10
 140 160 140 160 181 100 c 128,-1,11
 222 40 222 40 301 40 c 128,-1,12
 380 40 380 40 421 100 c 128,-1,13
 462 160 462 160 462 264.5 c 128,-1,14
 462 369 462 369 421.5 429 c 128,-1,15
 381 489 381 489 301 489 c 128,-1,8
 221 489 221 489 180.5 429 c 128,-1,9
EndSplineSet
EndChar

StartChar: p
Encoding: 112 112 83
Width: 484
GlyphClass: 2
Flags: W
LayerCount: 2
Fore
SplineSet
121 529 m 1,0,-1
 277 536 l 1,1,2
 360 536 360 536 407 494.5 c 128,-1,3
 454 453 454 453 454 376.5 c 128,-1,4
 454 300 454 300 396.5 256 c 128,-1,5
 339 212 339 212 256 212 c 2,6,-1
 195 212 l 1,7,-1
 195 133 l 2,8,9
 195 116 195 116 201 50 c 1,10,-1
 270 45 l 1,11,-1
 265 -4 l 1,12,13
 205 0 205 0 134 0 c 1,14,-1
 46 -4 l 1,15,-1
 43 40 l 1,16,-1
 101 50 l 1,17,18
 101 50 101 50 108 110 c 1,19,-1
 108 410 l 2,20,21
 108 428 108 428 104.5 451 c 128,-1,22
 101 474 101 474 101 477 c 1,23,-1
 44 486 l 1,24,-1
 48 533 l 1,25,26
 94 530 94 530 121 529 c 1,0,-1
195 405 m 2,27,-1
 195 260 l 1,28,29
 211 259 211 259 236 259 c 0,30,31
 296 259 296 259 330 289 c 128,-1,32
 364 319 364 319 364 375.5 c 128,-1,33
 364 432 364 432 331.5 461 c 128,-1,34
 299 490 299 490 240 490 c 0,35,36
 234 490 234 490 200 488 c 1,37,38
 195 440 195 440 195 405 c 2,27,-1
EndSplineSet
EndChar

StartChar: q
Encoding: 113 113 84
Width: 608
GlyphClass: 2
Flags: W
LayerCount: 2
Fore
SplineSet
301 -12 m 0,0,1
 176 -12 176 -12 107 63 c 128,-1,2
 38 138 38 138 38 264.5 c 128,-1,3
 38 391 38 391 107 466 c 128,-1,4
 176 541 176 541 301 541 c 128,-1,5
 426 541 426 541 495 466 c 128,-1,6
 564 391 564 391 564 264 c 0,7,8
 564 168 564 168 522.5 100 c 128,-1,9
 481 32 481 32 402 5 c 1,10,-1
 465 -37 l 1,11,-1
 588 -90 l 1,12,-1
 534 -168 l 1,13,-1
 326 -11 l 1,14,15
 318 -12 318 -12 301 -12 c 0,0,1
180.5 429 m 128,-1,17
 140 369 140 369 140 264.5 c 128,-1,18
 140 160 140 160 181 100 c 128,-1,19
 222 40 222 40 301 40 c 128,-1,20
 380 40 380 40 421 100 c 128,-1,21
 462 160 462 160 462 264.5 c 128,-1,22
 462 369 462 369 421.5 429 c 128,-1,23
 381 489 381 489 301 489 c 128,-1,16
 221 489 221 489 180.5 429 c 128,-1,17
EndSplineSet
EndChar

StartChar: r
Encoding: 114 114 85
Width: 525
GlyphClass: 2
Flags: W
LayerCount: 2
Fore
SplineSet
126 529 m 1,0,-1
 275 536 l 1,1,2
 357 536 357 536 404 495.5 c 128,-1,3
 451 455 451 455 451 380 c 0,4,5
 451 329 451 329 422 292 c 128,-1,6
 393 255 393 255 344 235 c 1,7,8
 397 134 397 134 461 50 c 1,9,-1
 511 45 l 1,10,-1
 506 -4 l 1,11,12
 445 0 445 0 374 0 c 1,13,14
 343 69 343 69 333 87 c 2,15,-1
 261 219 l 1,16,-1
 253 219 l 2,17,18
 235 219 235 219 195 221 c 1,19,-1
 195 133 l 2,20,21
 195 116 195 116 201 50 c 1,22,-1
 265 45 l 1,23,-1
 260 -4 l 1,24,25
 205 0 205 0 134 0 c 1,26,-1
 46 -4 l 1,27,-1
 43 40 l 1,28,-1
 101 50 l 1,29,-1
 108 110 l 1,30,-1
 108 410 l 1,31,-1
 101 477 l 1,32,-1
 44 486 l 1,33,-1
 48 533 l 1,34,35
 96 530 96 530 126 529 c 1,0,-1
238 490 m 0,36,37
 225 490 225 490 201 487 c 1,38,39
 195 445 195 445 195 405 c 2,40,-1
 195 267 l 1,41,42
 211 266 211 266 237 266 c 0,43,44
 296 266 296 266 328 294.5 c 128,-1,45
 360 323 360 323 360 378.5 c 128,-1,46
 360 434 360 434 328.5 462 c 128,-1,47
 297 490 297 490 238 490 c 0,36,37
EndSplineSet
EndChar

StartChar: s
Encoding: 115 115 86
Width: 457
GlyphClass: 2
Flags: W
LayerCount: 2
Fore
SplineSet
114 107 m 2,0,1
 114 95 114 95 124 65 c 1,2,3
 172 44 172 44 217.5 44 c 128,-1,4
 263 44 263 44 289 65.5 c 128,-1,5
 315 87 315 87 315 122.5 c 128,-1,6
 315 158 315 158 288 182.5 c 128,-1,7
 261 207 261 207 223 224.5 c 128,-1,8
 185 242 185 242 147 262 c 128,-1,9
 109 282 109 282 82 316.5 c 128,-1,10
 55 351 55 351 55 397 c 0,11,12
 55 464 55 464 103.5 502 c 128,-1,13
 152 540 152 540 222.5 540 c 128,-1,14
 293 540 293 540 391 515 c 1,15,-1
 380 389 l 1,16,-1
 328 394 l 1,17,-1
 328 435 l 2,18,19
 328 439 328 439 318 471 c 1,20,21
 278 488 278 488 238 488 c 128,-1,22
 198 488 198 488 174 468.5 c 128,-1,23
 150 449 150 449 150 416 c 128,-1,24
 150 383 150 383 177 359.5 c 128,-1,25
 204 336 204 336 242.5 318.5 c 128,-1,26
 281 301 281 301 319.5 280.5 c 128,-1,27
 358 260 358 260 385 225 c 128,-1,28
 412 190 412 190 412 143 c 0,29,30
 412 70 412 70 358 29.5 c 128,-1,31
 304 -11 304 -11 221 -11 c 0,32,33
 175 -11 175 -11 131 -1.5 c 128,-1,34
 87 8 87 8 66 18 c 2,35,-1
 46 27 l 1,36,-1
 58 154 l 1,37,-1
 114 150 l 1,38,-1
 114 107 l 2,0,1
EndSplineSet
EndChar

StartChar: t
Encoding: 116 116 87
Width: 490
GlyphClass: 2
Flags: W
LayerCount: 2
Fore
SplineSet
342 479 m 2,0,-1
 295 479 l 1,1,2
 289 437 289 437 289 405 c 2,3,-1
 289 133 l 2,4,5
 289 83 289 83 295 50 c 1,6,-1
 359 45 l 1,7,-1
 354 -4 l 1,8,9
 298 0 298 0 228 0 c 1,10,-1
 140 -4 l 1,11,-1
 136 40 l 1,12,-1
 194 50 l 1,13,14
 201 82 201 82 201 110 c 2,15,-1
 201 410 l 2,16,17
 201 434 201 434 194 479 c 1,18,-1
 149 479 l 2,19,20
 120 479 120 479 86 475 c 1,21,22
 74 459 74 459 71.5 446 c 128,-1,23
 69 433 69 433 66 405 c 1,24,-1
 17 408 l 1,25,-1
 22 523 l 1,26,-1
 37 536 l 1,27,28
 110 529 110 529 126 529 c 2,29,-1
 364 529 l 1,30,-1
 453 536 l 1,31,-1
 468 523 l 1,32,-1
 473 408 l 1,33,-1
 425 405 l 1,34,35
 425 407 425 407 422 426.5 c 128,-1,36
 419 446 419 446 417.5 452.5 c 128,-1,37
 416 459 416 459 404 475 c 1,38,39
 372 479 372 479 342 479 c 2,0,-1
EndSplineSet
EndChar

StartChar: u
Encoding: 117 117 88
Width: 598
GlyphClass: 2
Flags: W
LayerCount: 2
Fore
SplineSet
437 408 m 1,0,-1
 430 477 l 1,1,-1
 372 486 l 1,2,-1
 376 533 l 1,3,4
 435 529 435 529 457 529 c 2,5,-1
 570 533 l 1,6,-1
 573 482 l 1,7,-1
 515 477 l 1,8,9
 509 444 509 444 509 402 c 2,10,-1
 509 200 l 2,11,12
 509 102 509 102 455 45.5 c 128,-1,13
 401 -11 401 -11 299 -11 c 128,-1,14
 197 -11 197 -11 143.5 45.5 c 128,-1,15
 90 102 90 102 90 200 c 2,16,-1
 90 408 l 1,17,-1
 83 477 l 1,18,-1
 25 486 l 1,19,-1
 28 533 l 1,20,21
 92 529 92 529 115 529 c 2,22,-1
 241 533 l 1,23,-1
 245 482 l 1,24,-1
 186 477 l 1,25,26
 180 447 180 447 180 402 c 2,27,-1
 180 198 l 2,28,29
 180 132 180 132 213 91.5 c 128,-1,30
 246 51 246 51 309.5 51 c 128,-1,31
 373 51 373 51 405 90.5 c 128,-1,32
 437 130 437 130 437 198 c 2,33,-1
 437 408 l 1,0,-1
EndSplineSet
EndChar

StartChar: v
Encoding: 118 118 89
Width: 562
GlyphClass: 2
Flags: W
LayerCount: 2
Fore
SplineSet
254 0 m 1,0,-1
 88 423 l 1,1,-1
 58 478 l 1,2,-1
 8 485 l 1,3,-1
 12 530 l 1,4,5
 66 529 66 529 93 529 c 2,6,-1
 223 533 l 1,7,-1
 226 489 l 1,8,-1
 168 477 l 1,9,10
 173 444 173 444 186 412 c 2,11,-1
 293 128 l 1,12,-1
 403 437 l 1,13,-1
 411 477 l 1,14,-1
 355 485 l 1,15,-1
 359 530 l 1,16,17
 406 529 406 529 434 529 c 2,18,-1
 547 533 l 1,19,-1
 550 489 l 1,20,-1
 502 479 l 1,21,22
 479 442 479 442 466 408 c 2,23,-1
 315 0 l 1,24,-1
 254 0 l 1,0,-1
EndSplineSet
EndChar

StartChar: w
Encoding: 119 119 90
Width: 811
GlyphClass: 2
Flags: W
LayerCount: 2
Fore
SplineSet
800 489 m 1,0,-1
 751 479 l 1,1,2
 727 438 727 438 717 408 c 2,3,-1
 587 0 l 1,4,-1
 525 0 l 1,5,-1
 405 356 l 1,6,-1
 291 0 l 1,7,-1
 230 0 l 1,8,-1
 87 423 l 2,9,10
 80 446 80 446 60 478 c 1,11,-1
 10 485 l 1,12,-1
 14 530 l 1,13,14
 67 529 67 529 95 529 c 2,15,-1
 225 533 l 1,16,-1
 228 489 l 1,17,-1
 170 477 l 1,18,19
 176 443 176 443 185 412 c 2,20,-1
 269 128 l 1,21,-1
 386 511 l 1,22,-1
 442 511 l 1,23,-1
 564 128 l 1,24,-1
 655 437 l 1,25,-1
 661 477 l 1,26,-1
 605 485 l 1,27,-1
 609 530 l 1,28,29
 656 529 656 529 684 529 c 2,30,-1
 796 533 l 1,31,-1
 800 489 l 1,0,-1
EndSplineSet
EndChar

StartChar: x
Encoding: 120 120 91
Width: 573
GlyphClass: 2
Flags: W
LayerCount: 2
Fore
SplineSet
237 263 m 1,0,-1
 123 419 l 1,1,-1
 77 478 l 1,2,-1
 21 485 l 1,3,-1
 26 531 l 1,4,5
 77 529 77 529 97 529 c 2,6,-1
 245 533 l 1,7,-1
 248 489 l 1,8,-1
 196 478 l 1,9,10
 218 429 218 429 228 416 c 2,11,-1
 292 330 l 1,12,-1
 360 434 l 2,13,14
 370 449 370 449 385 478 c 1,15,-1
 334 485 l 1,16,-1
 339 531 l 1,17,18
 380 529 380 529 406 529 c 2,19,-1
 534 533 l 1,20,-1
 538 489 l 1,21,-1
 485 480 l 1,22,23
 480 475 480 475 466 463 c 0,24,25
 433 434 433 434 429 427 c 2,26,-1
 329 279 l 1,27,-1
 462 99 l 1,28,29
 492 66 492 66 507 51 c 1,30,-1
 561 45 l 1,31,-1
 556 -2 l 1,32,33
 501 0 501 0 464 0 c 1,34,-1
 345 -4 l 1,35,-1
 341 38 l 1,36,-1
 386 48 l 1,37,38
 365 90 365 90 352 107 c 2,39,-1
 273 212 l 1,40,-1
 192 99 l 2,41,42
 182 86 182 86 166 51 c 1,43,-1
 220 45 l 1,44,-1
 215 -2 l 1,45,46
 168 0 168 0 135 0 c 1,47,-1
 23 -4 l 1,48,-1
 20 38 l 1,49,-1
 65 49 l 1,50,51
 129 113 129 113 136 123 c 2,52,-1
 237 263 l 1,0,-1
EndSplineSet
EndChar

StartChar: y
Encoding: 121 121 92
Width: 548
GlyphClass: 2
Flags: W
LayerCount: 2
Fore
SplineSet
222 50 m 1,0,-1
 229 110 l 1,1,-1
 229 190 l 1,2,-1
 102 423 l 1,3,4
 93 442 93 442 68 470 c 2,5,-1
 61 478 l 1,6,-1
 11 485 l 1,7,-1
 15 530 l 1,8,9
 68 529 68 529 95 529 c 2,10,-1
 225 533 l 1,11,-1
 229 489 l 1,12,-1
 174 477 l 1,13,14
 181 445 181 445 201 412 c 1,15,-1
 281 265 l 1,16,-1
 369 437 l 1,17,-1
 385 477 l 1,18,-1
 334 485 l 1,19,-1
 337 530 l 1,20,21
 385 529 385 529 413 529 c 2,22,-1
 525 533 l 1,23,-1
 529 489 l 1,24,-1
 478 479 l 1,25,26
 447 442 447 442 429 408 c 2,27,-1
 316 198 l 1,28,-1
 316 133 l 2,29,30
 316 116 316 116 322 50 c 1,31,-1
 386 45 l 1,32,-1
 381 -4 l 1,33,34
 326 0 326 0 255 0 c 1,35,-1
 168 -4 l 1,36,-1
 164 40 l 1,37,-1
 222 50 l 1,0,-1
EndSplineSet
EndChar

StartChar: z
Encoding: 122 122 93
Width: 467
GlyphClass: 2
Flags: W
LayerCount: 2
Fore
SplineSet
177 476 m 2,0,1
 145 476 145 476 111 472 c 1,2,-1
 99 448 l 1,3,4
 91 418 91 418 89 388 c 1,5,-1
 40 391 l 1,6,-1
 45 523 l 1,7,-1
 60 536 l 1,8,9
 134 529 134 529 149 529 c 2,10,-1
 420 529 l 1,11,-1
 426 480 l 1,12,-1
 342 362 l 1,13,-1
 202 149 l 1,14,-1
 147 53 l 1,15,-1
 294 53 l 2,16,17
 328 53 328 53 362 59 c 1,18,19
 383 93 383 93 388 142 c 1,20,-1
 435 138 l 1,21,-1
 423 11 l 1,22,-1
 408 -3 l 1,23,24
 334 0 334 0 319 0 c 2,25,-1
 38 0 l 1,26,-1
 31 49 l 1,27,28
 97 135 97 135 118 169 c 1,29,-1
 263 389 l 1,30,-1
 312 476 l 1,31,-1
 177 476 l 2,0,1
EndSplineSet
EndChar

StartChar: braceleft
Encoding: 123 123 94
Width: 272
GlyphClass: 2
Flags: W
LayerCount: 2
Fore
SplineSet
176 284 m 1,0,-1
 167 40 l 1,1,-1
 175 -70 l 1,2,-1
 262 -82 l 1,3,-1
 259 -125 l 1,4,5
 166 -121 166 -121 97 -121 c 1,6,-1
 77 -101 l 1,7,8
 107 141 107 141 107 261 c 1,9,10
 100 275 100 275 73.5 290.5 c 128,-1,11
 47 306 47 306 35 306 c 1,12,-1
 39 335 l 1,13,14
 48 335 48 335 74 350.5 c 128,-1,15
 100 366 100 366 107 380 c 1,16,17
 107 486 107 486 84 678 c 1,18,-1
 77 742 l 1,19,-1
 97 762 l 1,20,-1
 259 766 l 1,21,-1
 262 723 l 1,22,-1
 175 711 l 1,23,24
 167 621 167 621 167 601 c 2,25,-1
 176 357 l 1,26,27
 158 341 158 341 130 329 c 2,28,-1
 120 325 l 1,29,-1
 120 316 l 1,30,31
 156 302 156 302 176 284 c 1,0,-1
EndSplineSet
EndChar

StartChar: bar
Encoding: 124 124 95
Width: 279
GlyphClass: 2
Flags: W
LayerCount: 2
Fore
SplineSet
172 -122 m 1,0,-1
 107 -113 l 1,1,-1
 107 760 l 1,2,-1
 172 752 l 1,3,-1
 172 -122 l 1,0,-1
EndSplineSet
EndChar

StartChar: braceright
Encoding: 125 125 96
Width: 272
GlyphClass: 2
Flags: W
LayerCount: 2
Fore
SplineSet
96 357 m 1,0,-1
 105 601 l 1,1,-1
 97 711 l 1,2,-1
 10 723 l 1,3,-1
 13 766 l 1,4,5
 106 762 106 762 175 762 c 1,6,-1
 195 742 l 1,7,8
 165 500 165 500 165 380 c 1,9,10
 172 366 172 366 198.5 350.5 c 128,-1,11
 225 335 225 335 237 335 c 1,12,-1
 233 306 l 1,13,14
 224 306 224 306 198 290.5 c 128,-1,15
 172 275 172 275 165 261 c 1,16,17
 165 155 165 155 188 -37 c 1,18,-1
 195 -101 l 1,19,-1
 175 -121 l 1,20,-1
 13 -125 l 1,21,-1
 10 -82 l 1,22,-1
 97 -70 l 1,23,24
 105 20 105 20 105 40 c 2,25,-1
 96 284 l 1,26,27
 114 300 114 300 142 312 c 2,28,-1
 152 316 l 1,29,-1
 152 325 l 1,30,31
 116 339 116 339 96 357 c 1,0,-1
EndSplineSet
EndChar

StartChar: asciitilde
Encoding: 126 126 97
Width: 560
GlyphClass: 2
Flags: W
LayerCount: 2
Fore
SplineSet
434.5 186 m 128,-1,1
 418 175 418 175 395.5 175 c 128,-1,2
 373 175 373 175 279 205 c 128,-1,3
 185 235 185 235 166 235 c 0,4,5
 132 235 132 235 98 194 c 1,6,-1
 87 180 l 1,7,-1
 47 213 l 1,8,9
 51 222 51 222 67.5 244.5 c 128,-1,10
 84 267 84 267 96 281 c 0,11,12
 129 317 129 317 161 317 c 128,-1,13
 193 317 193 317 284.5 287 c 128,-1,14
 376 257 376 257 395 257 c 0,15,16
 428 257 428 257 462 298 c 1,17,-1
 473 312 l 1,18,-1
 513 279 l 1,19,20
 508 270 508 270 492 247.5 c 128,-1,21
 476 225 476 225 463.5 211 c 128,-1,0
 451 197 451 197 434.5 186 c 128,-1,1
EndSplineSet
EndChar

StartChar: exclamdown
Encoding: 161 161 99
Width: 229
GlyphClass: 2
Flags: W
LayerCount: 2
Fore
SplineSet
100 503 m 128,-1,1
 128 503 128 503 143.5 486 c 128,-1,2
 159 469 159 469 159 439 c 128,-1,3
 159 409 159 409 143.5 391.5 c 128,-1,4
 128 374 128 374 100 374 c 128,-1,5
 72 374 72 374 56.5 391.5 c 128,-1,6
 41 409 41 409 41 438 c 128,-1,7
 41 467 41 467 56.5 485 c 128,-1,0
 72 503 72 503 100 503 c 128,-1,1
63 270 m 1,8,-1
 70 276 l 1,9,10
 88 273 88 273 142 273 c 1,11,12
 141 237 141 237 141 207 c 2,13,-1
 150 -220 l 1,14,-1
 60 -227 l 1,15,-1
 41 -209 l 1,16,17
 66 28 66 28 66 185 c 1,18,-1
 63 270 l 1,8,-1
EndSplineSet
EndChar

StartChar: cent
Encoding: 162 162 100
Width: 483
GlyphClass: 2
Flags: W
LayerCount: 2
Fore
SplineSet
90 146 m 128,-1,1
 40 214 40 214 40 326 c 128,-1,2
 40 438 40 438 96 507 c 128,-1,3
 152 576 152 576 258 580 c 1,4,-1
 263 689 l 1,5,-1
 297 686 l 1,6,-1
 293 579 l 1,7,8
 330 577 330 577 427 545 c 1,9,-1
 417 420 l 1,10,-1
 359 423 l 1,11,-1
 359 459 l 2,12,13
 359 469 359 469 352 493 c 1,14,15
 322 517 322 517 290 522 c 1,16,-1
 275 132 l 1,17,18
 308 132 308 132 342 141 c 128,-1,19
 376 150 376 150 393 159 c 2,20,-1
 410 168 l 1,21,-1
 438 121 l 1,22,23
 431 115 431 115 417.5 106 c 128,-1,24
 404 97 404 97 360.5 82 c 128,-1,25
 317 67 317 67 272 67 c 1,26,-1
 268 -42 l 1,27,-1
 233 -39 l 1,28,-1
 237 68 l 1,29,0
 140 78 140 78 90 146 c 128,-1,1
145 415.5 m 128,-1,31
 134 374 134 374 134 312 c 128,-1,32
 134 250 134 250 160 198 c 128,-1,33
 186 146 186 146 240 135 c 1,34,-1
 256 522 l 1,35,36
 213 518 213 518 184.5 487.5 c 128,-1,30
 156 457 156 457 145 415.5 c 128,-1,31
EndSplineSet
EndChar

StartChar: sterling
Encoding: 163 163 101
Width: 571
GlyphClass: 2
Flags: W
LayerCount: 2
Fore
SplineSet
152 495 m 2,0,1
 152 574 152 574 208 618 c 128,-1,2
 264 662 264 662 342.5 662 c 128,-1,3
 421 662 421 662 541 630 c 1,4,-1
 527 483 l 1,5,-1
 468 489 l 1,6,-1
 468 529 l 2,7,8
 468 537 468 537 456 585 c 1,9,10
 409 607 409 607 354.5 607 c 128,-1,11
 300 607 300 607 271.5 581.5 c 128,-1,12
 243 556 243 556 243 509 c 2,13,-1
 243 386 l 1,14,-1
 455 396 l 1,15,-1
 457 362 l 1,16,-1
 243 352 l 1,17,-1
 243 280 l 1,18,-1
 460 290 l 1,19,-1
 462 256 l 1,20,-1
 243 246 l 1,21,-1
 243 167 l 1,22,-1
 250 57 l 1,23,-1
 378 57 l 2,24,25
 416 57 416 57 465 66 c 1,26,27
 483 91 483 91 486 103 c 0,28,29
 498 150 498 150 501 170 c 1,30,-1
 556 165 l 1,31,-1
 541 14 l 1,32,-1
 522 -4 l 1,33,34
 428 0 428 0 408 0 c 2,35,-1
 187 0 l 1,36,-1
 69 -5 l 1,37,-1
 64 45 l 1,38,-1
 143 61 l 1,39,40
 152 120 152 120 152 137 c 2,41,-1
 152 241 l 1,42,-1
 52 237 l 1,43,-1
 50 272 l 1,44,-1
 152 276 l 1,45,-1
 152 348 l 1,46,-1
 47 343 l 1,47,-1
 45 378 l 1,48,-1
 152 382 l 1,49,-1
 152 495 l 2,0,1
EndSplineSet
EndChar

StartChar: yen
Encoding: 165 165 102
Width: 645
GlyphClass: 2
Flags: W
LayerCount: 2
Fore
SplineSet
271 137 m 2,0,-1
 271 244 l 1,1,-1
 117 237 l 1,2,-1
 116 272 l 1,3,-1
 266 278 l 1,4,-1
 224 348 l 1,5,-1
 114 343 l 1,6,-1
 112 378 l 1,7,-1
 204 382 l 1,8,-1
 119 523 l 1,9,10
 77 571 77 571 59 590 c 1,11,-1
 5 599 l 1,12,-1
 12 653 l 1,13,-1
 111 653 l 1,14,-1
 265 658 l 1,15,-1
 270 611 l 1,16,-1
 192 589 l 1,17,18
 227 511 227 511 234 499 c 2,19,-1
 326 346 l 1,20,-1
 444 545 l 2,21,22
 447 550 447 550 463 590 c 1,23,-1
 389 599 l 1,24,-1
 396 653 l 1,25,-1
 476 653 l 1,26,-1
 631 658 l 1,27,-1
 636 611 l 1,28,-1
 567 592 l 1,29,-1
 496 513 l 1,30,-1
 423 391 l 1,31,-1
 524 396 l 1,32,-1
 525 362 l 1,33,-1
 402 356 l 1,34,-1
 364 292 l 1,35,-1
 364 283 l 1,36,-1
 527 290 l 1,37,-1
 529 256 l 1,38,-1
 364 248 l 1,39,-1
 364 167 l 1,40,-1
 371 57 l 1,41,-1
 449 51 l 1,42,-1
 443 -4 l 1,43,44
 355 0 355 0 284 0 c 1,45,-1
 189 -4 l 1,46,-1
 184 48 l 1,47,-1
 261 57 l 1,48,49
 271 117 271 117 271 137 c 2,0,-1
EndSplineSet
EndChar

StartChar: brokenbar
Encoding: 166 166 103
Width: 279
GlyphClass: 2
Flags: W
LayerCount: 2
Fore
SplineSet
172 392 m 1,0,-1
 107 400 l 1,1,-1
 107 760 l 1,2,-1
 172 752 l 1,3,-1
 172 392 l 1,0,-1
107 212 m 1,4,-1
 172 205 l 1,5,-1
 172 -122 l 1,6,-1
 107 -113 l 1,7,-1
 107 212 l 1,4,-1
EndSplineSet
EndChar

StartChar: section
Encoding: 167 167 104
Width: 537
GlyphClass: 2
Flags: W
LayerCount: 2
Fore
SplineSet
175 394 m 1,0,1
 159 375 159 375 159 348 c 128,-1,2
 159 321 159 321 182 297 c 128,-1,3
 205 273 205 273 239 257.5 c 128,-1,4
 273 242 273 242 313 222 c 128,-1,5
 353 202 353 202 387 181.5 c 128,-1,6
 421 161 421 161 444 126 c 128,-1,7
 467 91 467 91 467 46 c 0,8,9
 467 -32 467 -32 412 -73.5 c 128,-1,10
 357 -115 357 -115 271 -115 c 0,11,12
 222 -115 222 -115 177 -104 c 128,-1,13
 132 -93 132 -93 111 -82 c 2,14,-1
 90 -71 l 1,15,-1
 102 65 l 1,16,-1
 157 60 l 1,17,-1
 157 21 l 2,18,19
 157 8 157 8 166 -33 c 1,20,21
 217 -55 217 -55 266 -55 c 128,-1,22
 315 -55 315 -55 340.5 -31.5 c 128,-1,23
 366 -8 366 -8 366 33 c 128,-1,24
 366 74 366 74 337 102 c 128,-1,25
 308 130 308 130 267 149 c 128,-1,26
 226 168 226 168 184.5 187.5 c 128,-1,27
 143 207 143 207 114 239 c 128,-1,28
 85 271 85 271 85 313 c 0,29,30
 85 338 85 338 104 366.5 c 128,-1,31
 123 395 123 395 147 411 c 1,32,-1
 175 394 l 1,0,1
368 226 m 1,33,34
 386 247 386 247 386 276.5 c 128,-1,35
 386 306 386 306 354.5 332 c 128,-1,36
 323 358 323 358 278 377 c 128,-1,37
 233 396 233 396 188 417.5 c 128,-1,38
 143 439 143 439 111.5 477 c 128,-1,39
 80 515 80 515 80 568 c 0,40,41
 80 639 80 639 130 679.5 c 128,-1,42
 180 720 180 720 250 720 c 128,-1,43
 320 720 320 720 424 694 c 1,44,-1
 412 563 l 1,45,-1
 365 568 l 1,46,-1
 365 601 l 2,47,48
 365 608 365 608 353 646 c 1,49,50
 307 665 307 665 264.5 665 c 128,-1,51
 222 665 222 665 199.5 643.5 c 128,-1,52
 177 622 177 622 177 586.5 c 128,-1,53
 177 551 177 551 206 524.5 c 128,-1,54
 235 498 235 498 276 478 c 128,-1,55
 317 458 317 458 358.5 436.5 c 128,-1,56
 400 415 400 415 429 382.5 c 128,-1,57
 458 350 458 350 458 308 c 0,58,59
 458 283 458 283 439.5 255 c 128,-1,60
 421 227 421 227 397 209 c 1,61,-1
 368 226 l 1,33,34
EndSplineSet
EndChar

StartChar: dieresis
Encoding: 168 168 105
Width: 360
GlyphClass: 2
Flags: W
LayerCount: 2
Fore
SplineSet
298 713 m 0,0,1
 352 713 352 713 352 653.5 c 128,-1,2
 352 594 352 594 298 594 c 128,-1,3
 244 594 244 594 244 653 c 0,4,5
 244 681 244 681 258 697 c 128,-1,6
 272 713 272 713 298 713 c 0,0,1
62 713 m 0,7,8
 116 713 116 713 116 653.5 c 128,-1,9
 116 594 116 594 62 594 c 128,-1,10
 8 594 8 594 8 653 c 0,11,12
 8 681 8 681 22 697 c 128,-1,13
 36 713 36 713 62 713 c 0,7,8
EndSplineSet
EndChar

StartChar: copyright
Encoding: 169 169 106
Width: 845
GlyphClass: 2
Flags: W
LayerCount: 2
Fore
SplineSet
430 29 m 0,0,1
 330 29 330 29 277.5 88.5 c 128,-1,2
 225 148 225 148 225 249 c 128,-1,3
 225 350 225 350 278 410 c 128,-1,4
 331 470 331 470 430 470 c 0,5,6
 473 470 473 470 562 450 c 1,7,-1
 555 349 l 1,8,-1
 514 352 l 1,9,-1
 514 384 l 2,10,11
 514 391 514 391 507 412 c 1,12,13
 463 423 463 423 431 423 c 0,14,15
 372 423 372 423 340 374.5 c 128,-1,16
 308 326 308 326 308 250 c 128,-1,17
 308 174 308 174 340 125 c 128,-1,18
 372 76 372 76 431 76 c 0,19,20
 470 76 470 76 512 86 c 1,21,22
 521 106 521 106 521 118 c 2,23,-1
 522 151 l 1,24,-1
 564 152 l 1,25,-1
 567 49 l 1,26,27
 478 29 478 29 430 29 c 0,0,1
681.5 509 m 128,-1,29
 788 403 788 403 788 252 c 128,-1,30
 788 101 788 101 680.5 -7 c 128,-1,31
 573 -115 573 -115 422.5 -115 c 128,-1,32
 272 -115 272 -115 164.5 -9 c 128,-1,33
 57 97 57 97 57 249 c 128,-1,34
 57 401 57 401 164.5 508 c 128,-1,35
 272 615 272 615 423.5 615 c 128,-1,28
 575 615 575 615 681.5 509 c 128,-1,29
743 250 m 128,-1,37
 743 382 743 382 648.5 476.5 c 128,-1,38
 554 571 554 571 421.5 571 c 128,-1,39
 289 571 289 571 195 477.5 c 128,-1,40
 101 384 101 384 101 251 c 128,-1,41
 101 118 101 118 195.5 23.5 c 128,-1,42
 290 -71 290 -71 422.5 -71 c 128,-1,43
 555 -71 555 -71 649 23.5 c 128,-1,36
 743 118 743 118 743 250 c 128,-1,37
EndSplineSet
EndChar

StartChar: ordfeminine
Encoding: 170 170 107
Width: 331
GlyphClass: 2
Flags: W
LayerCount: 2
Fore
SplineSet
117 444 m 0,0,1
 75 444 75 444 50.5 466.5 c 128,-1,2
 26 489 26 489 26 527 c 0,3,4
 26 597 26 597 108 610 c 2,5,-1
 201 625 l 1,6,-1
 201 644 l 2,7,8
 201 712 201 712 150 712 c 0,9,10
 118 712 118 712 96 701 c 1,11,-1
 91 676 l 1,12,-1
 92 648 l 1,13,-1
 50 646 l 1,14,-1
 41 741 l 1,15,16
 100 757 100 757 154 757 c 0,17,18
 272 757 272 757 272 639 c 2,19,-1
 272 561 l 1,20,-1
 278 493 l 1,21,-1
 318 489 l 1,22,-1
 314 447 l 1,23,24
 283 450 283 450 214 450 c 1,25,-1
 208 496 l 1,26,27
 180 444 180 444 117 444 c 0,0,1
101 539 m 0,28,29
 101 497 101 497 140 497 c 0,30,31
 162 497 162 497 179 511 c 128,-1,32
 196 525 196 525 201 548 c 1,33,-1
 201 589 l 1,34,-1
 137 578 l 1,35,36
 101 570 101 570 101 539 c 0,28,29
EndSplineSet
EndChar

StartChar: guillemotleft
Encoding: 171 171 108
Width: 416
GlyphClass: 2
Flags: W
LayerCount: 2
Fore
SplineSet
25 242 m 1,0,-1
 178 464 l 1,1,-1
 215 439 l 1,2,-1
 108 242 l 1,3,-1
 215 45 l 1,4,-1
 178 20 l 1,5,-1
 25 242 l 1,0,-1
188 242 m 1,6,-1
 338 460 l 1,7,-1
 374 435 l 1,8,-1
 270 242 l 1,9,-1
 374 49 l 1,10,-1
 338 24 l 1,11,-1
 188 242 l 1,6,-1
EndSplineSet
EndChar

StartChar: logicalnot
Encoding: 172 172 109
Width: 560
GlyphClass: 2
Flags: W
LayerCount: 2
Fore
SplineSet
55 307 m 1,0,-1
 510 307 l 1,1,-1
 510 69 l 1,2,-1
 439 69 l 1,3,-1
 441 240 l 1,4,-1
 55 236 l 1,5,-1
 55 307 l 1,0,-1
EndSplineSet
EndChar

StartChar: registered
Encoding: 174 174 110
Width: 845
GlyphClass: 2
Flags: W
LayerCount: 2
Fore
SplineSet
681.5 509 m 128,-1,1
 788 403 788 403 788 252 c 128,-1,2
 788 101 788 101 680.5 -7 c 128,-1,3
 573 -115 573 -115 422.5 -115 c 128,-1,4
 272 -115 272 -115 164.5 -9 c 128,-1,5
 57 97 57 97 57 249 c 128,-1,6
 57 401 57 401 164.5 508 c 128,-1,7
 272 615 272 615 423.5 615 c 128,-1,0
 575 615 575 615 681.5 509 c 128,-1,1
743 250 m 128,-1,9
 743 382 743 382 648.5 476.5 c 128,-1,10
 554 571 554 571 421.5 571 c 128,-1,11
 289 571 289 571 195 477.5 c 128,-1,12
 101 384 101 384 101 251 c 128,-1,13
 101 118 101 118 195.5 23.5 c 128,-1,14
 290 -71 290 -71 422.5 -71 c 128,-1,15
 555 -71 555 -71 649 23.5 c 128,-1,8
 743 118 743 118 743 250 c 128,-1,9
300 467 m 1,16,-1
 425 473 l 1,17,18
 489 473 489 473 524.5 442 c 128,-1,19
 560 411 560 411 560 350 c 0,20,21
 560 270 560 270 481 238 c 1,22,23
 522 158 522 158 542 132 c 1,24,25
 548 121 548 121 572 89 c 1,26,-1
 613 84 l 1,27,-1
 609 47 l 1,28,-1
 502 47 l 1,29,-1
 490 80 l 1,30,31
 473 121 473 121 472 123 c 2,32,-1
 418 226 l 1,33,-1
 365 226 l 1,34,-1
 365 152 l 2,35,36
 365 132 365 132 368 90 c 1,37,-1
 412 84 l 1,38,-1
 408 47 l 1,39,-1
 364 47 l 1,40,-1
 250 44 l 1,41,-1
 244 77 l 1,42,-1
 294 90 l 1,43,-1
 295 90 l 1,44,-1
 300 134 l 1,45,-1
 300 385 l 1,46,-1
 295 429 l 1,47,-1
 294 429 l 1,48,-1
 247 433 l 1,49,-1
 251 467 l 1,50,-1
 300 467 l 1,16,-1
400 260 m 2,51,-1
 411 260 l 1,52,53
 496 267 496 267 496 349 c 0,54,55
 496 393 496 393 470.5 416 c 128,-1,56
 445 439 445 439 400 439 c 0,57,58
 394 439 394 439 368 435 c 1,59,60
 365 390 365 390 365 368 c 2,61,-1
 365 262 l 1,62,63
 378 260 378 260 400 260 c 2,51,-1
EndSplineSet
EndChar

StartChar: macron
Encoding: 175 175 111
Width: 360
GlyphClass: 2
Flags: W
LayerCount: 2
Fore
SplineSet
19 596 m 1,0,-1
 19 649 l 1,1,-1
 341 649 l 1,2,-1
 336 596 l 1,3,-1
 19 596 l 1,0,-1
EndSplineSet
EndChar

StartChar: degree
Encoding: 176 176 112
Width: 360
GlyphClass: 2
Flags: W
LayerCount: 2
Fore
SplineSet
331 517 m 128,-1,1
 331 448 331 448 290.5 408 c 128,-1,2
 250 368 250 368 180.5 368 c 128,-1,3
 111 368 111 368 70.5 408 c 128,-1,4
 30 448 30 448 30 517 c 128,-1,5
 30 586 30 586 70.5 626 c 128,-1,6
 111 666 111 666 180.5 666 c 128,-1,7
 250 666 250 666 290.5 626 c 128,-1,0
 331 586 331 586 331 517 c 128,-1,1
107 517 m 128,-1,9
 107 474 107 474 125.5 446.5 c 128,-1,10
 144 419 144 419 181 419 c 128,-1,11
 218 419 218 419 236 447 c 128,-1,12
 254 475 254 475 254 517 c 128,-1,13
 254 559 254 559 236 587 c 128,-1,14
 218 615 218 615 181 615 c 128,-1,15
 144 615 144 615 125.5 587.5 c 128,-1,8
 107 560 107 560 107 517 c 128,-1,9
EndSplineSet
EndChar

StartChar: plusminus
Encoding: 177 177 113
Width: 560
GlyphClass: 2
Flags: W
LayerCount: 2
Fore
SplineSet
244 109 m 1,0,-1
 244 303 l 1,1,-1
 52 301 l 1,2,-1
 52 371 l 1,3,-1
 244 371 l 1,4,-1
 244 562 l 1,5,-1
 309 562 l 1,6,-1
 311 371 l 1,7,-1
 507 371 l 1,8,-1
 507 306 l 1,9,-1
 312 304 l 1,10,-1
 314 109 l 1,11,-1
 244 109 l 1,0,-1
507 0 m 1,12,-1
 52 0 l 1,13,-1
 52 66 l 1,14,-1
 507 71 l 1,15,-1
 507 0 l 1,12,-1
EndSplineSet
EndChar

StartChar: two.sups
Encoding: 178 178 114
Width: 338
GlyphClass: 2
Flags: W
LayerCount: 2
Fore
SplineSet
34 832 m 1,0,1
 92 854 92 854 155.5 854 c 128,-1,2
 219 854 219 854 254.5 827 c 128,-1,3
 290 800 290 800 290 750.5 c 128,-1,4
 290 701 290 701 253.5 653.5 c 128,-1,5
 217 606 217 606 107 511 c 1,6,-1
 199 511 l 2,7,8
 213 511 213 511 255 517 c 1,9,10
 263 536 263 536 263 543 c 1,11,-1
 267 568 l 1,12,-1
 309 565 l 1,13,-1
 304 460 l 1,14,-1
 288 448 l 1,15,16
 231 450 231 450 218 450 c 2,17,-1
 29 450 l 1,18,-1
 20 504 l 1,19,20
 139 613 139 613 174.5 657.5 c 128,-1,21
 210 702 210 702 210 737 c 128,-1,22
 210 772 210 772 192.5 788.5 c 128,-1,23
 175 805 175 805 145.5 805 c 128,-1,24
 116 805 116 805 88 789 c 1,25,26
 82 772 82 772 82 763 c 2,27,-1
 83 736 l 1,28,-1
 40 733 l 1,29,-1
 34 832 l 1,0,1
EndSplineSet
EndChar

StartChar: three.sups
Encoding: 179 179 115
Width: 307
GlyphClass: 2
Flags: W
LayerCount: 2
Fore
SplineSet
124 854 m 0,0,1
 257 854 257 854 257 750 c 0,2,3
 257 686 257 686 186 653 c 1,4,5
 226 644 226 644 250 617 c 128,-1,6
 274 590 274 590 274 555 c 0,7,8
 274 491 274 491 204.5 443.5 c 128,-1,9
 135 396 135 396 27 386 c 1,10,-1
 15 425 l 1,11,12
 94 436 94 436 142.5 470.5 c 128,-1,13
 191 505 191 505 191 550 c 0,14,15
 191 583 191 583 172 601 c 128,-1,16
 153 619 153 619 119 619 c 1,17,-1
 78 617 l 1,18,-1
 69 656 l 1,19,20
 178 671 178 671 178 749 c 0,21,22
 178 809 178 809 121 809 c 0,23,24
 98 809 98 809 75 799 c 1,25,26
 69 774 69 774 69 769 c 2,27,-1
 70 740 l 1,28,-1
 27 738 l 1,29,-1
 19 836 l 1,30,31
 73 854 73 854 124 854 c 0,0,1
EndSplineSet
EndChar

StartChar: acute
Encoding: 180 180 116
Width: 360
GlyphClass: 2
Flags: W
LayerCount: 2
Fore
SplineSet
246 755 m 1,0,-1
 293 695 l 1,1,2
 187 635 187 635 172 624 c 1,3,-1
 99 564 l 1,4,-1
 66 605 l 1,5,-1
 246 755 l 1,0,-1
EndSplineSet
EndChar

StartChar: mu
Encoding: 181 181 117
AltUni2: 0003bc.ffffffff.0
Width: 580
GlyphClass: 2
Flags: W
LayerCount: 2
Fore
SplineSet
92 -191 m 2,0,-1
 95 -47 l 1,1,-1
 95 357 l 1,2,-1
 88 491 l 1,3,-1
 94 497 l 1,4,5
 124 494 124 494 131 494 c 2,6,-1
 177 497 l 1,7,-1
 183 491 l 1,8,9
 176 377 176 377 176 327 c 2,10,-1
 176 183 l 2,11,12
 176 54 176 54 277 54 c 0,13,14
 336 54 336 54 369.5 100 c 128,-1,15
 403 146 403 146 403 210 c 2,16,-1
 403 357 l 1,17,-1
 396 491 l 1,18,-1
 402 497 l 1,19,20
 428 494 428 494 439 494 c 2,21,-1
 485 497 l 1,22,-1
 491 491 l 1,23,24
 484 377 484 377 484 327 c 2,25,-1
 484 137 l 2,26,27
 484 91 484 91 496 70 c 128,-1,28
 508 49 508 49 548 27 c 1,29,-1
 529 -15 l 1,30,31
 525 -13 525 -13 506 -6.5 c 128,-1,32
 487 0 487 0 480 2.5 c 128,-1,33
 473 5 473 5 458 12.5 c 128,-1,34
 443 20 443 20 436 26 c 0,35,36
 415 46 415 46 408 68 c 1,37,38
 361 -10 361 -10 264 -10 c 0,39,40
 203 -10 203 -10 165 33 c 1,41,-1
 170 -77 l 1,42,-1
 190 -206 l 1,43,-1
 181 -214 l 1,44,-1
 159 -214 l 1,45,-1
 101 -218 l 1,46,-1
 92 -210 l 1,47,48
 92 -203 92 -203 92 -191 c 2,0,-1
EndSplineSet
EndChar

StartChar: paragraph
Encoding: 182 182 118
Width: 556
GlyphClass: 2
Flags: W
LayerCount: 2
Fore
SplineSet
87.5 347.5 m 128,-1,1
 17 404 17 404 17 505.5 c 128,-1,2
 17 607 17 607 75.5 661 c 128,-1,3
 134 715 134 715 240 715 c 0,4,5
 262 715 262 715 290 712 c 1,6,-1
 290 316 l 1,7,-1
 263 291 l 1,8,0
 158 291 158 291 87.5 347.5 c 128,-1,1
427 568 m 2,9,-1
 427 47 l 1,10,-1
 436 -72 l 1,11,-1
 417 -90 l 1,12,-1
 404 -90 l 1,13,-1
 240 -95 l 1,14,-1
 235 -48 l 1,15,-1
 331 -26 l 1,16,17
 340 15 340 15 340 77 c 2,18,-1
 340 687 l 1,19,-1
 359 705 l 1,20,-1
 510 710 l 1,21,-1
 515 657 l 1,22,-1
 436 641 l 1,23,-1
 435 641 l 1,24,25
 427 577 427 577 427 568 c 2,9,-1
EndSplineSet
EndChar

StartChar: periodcentered
Encoding: 183 183 119
Width: 213
GlyphClass: 2
Flags: W
LayerCount: 2
Fore
SplineSet
104 369 m 128,-1,1
 134 369 134 369 151 350.5 c 128,-1,2
 168 332 168 332 168 300 c 128,-1,3
 168 268 168 268 151 249 c 128,-1,4
 134 230 134 230 104 230 c 128,-1,5
 74 230 74 230 57 249 c 128,-1,6
 40 268 40 268 40 299 c 128,-1,7
 40 330 40 330 57 349.5 c 128,-1,0
 74 369 74 369 104 369 c 128,-1,1
EndSplineSet
EndChar

StartChar: cedilla
Encoding: 184 184 120
Width: 360
GlyphClass: 2
Flags: W
LayerCount: 2
Fore
SplineSet
295 -146 m 128,-1,1
 295 -186 295 -186 264 -210.5 c 128,-1,2
 233 -235 233 -235 188 -235 c 128,-1,3
 143 -235 143 -235 105 -217 c 1,4,-1
 118 -182 l 1,5,6
 153 -193 153 -193 176.5 -193 c 128,-1,7
 200 -193 200 -193 215 -180.5 c 128,-1,8
 230 -168 230 -168 230 -146 c 0,9,10
 230 -103 230 -103 183 -103 c 1,11,-1
 162 -104 l 1,12,-1
 151 -94 l 1,13,-1
 160 10 l 1,14,-1
 208 10 l 1,15,-1
 194 -59 l 1,16,17
 239 -60 239 -60 267 -83 c 128,-1,0
 295 -106 295 -106 295 -146 c 128,-1,1
EndSplineSet
EndChar

StartChar: one.sups
Encoding: 185 185 121
Width: 262
GlyphClass: 2
Flags: W
LayerCount: 2
Fore
SplineSet
114 548 m 2,0,-1
 114 758 l 1,1,-1
 43 726 l 1,2,-1
 23 759 l 1,3,4
 97 815 97 815 109 825 c 1,5,-1
 139 860 l 1,6,-1
 188 853 l 1,7,8
 183 740 183 740 183 710 c 2,9,-1
 183 566 l 2,10,11
 183 516 183 516 189 498 c 1,12,-1
 238 494 l 1,13,-1
 234 447 l 1,14,15
 193 450 193 450 131 450 c 1,16,-1
 52 447 l 1,17,-1
 49 490 l 1,18,-1
 109 498 l 1,19,-1
 112 520 l 2,20,21
 114 541 114 541 114 548 c 2,0,-1
EndSplineSet
EndChar

StartChar: ordmasculine
Encoding: 186 186 122
Width: 345
GlyphClass: 2
Flags: W
LayerCount: 2
Fore
SplineSet
282.5 715.5 m 128,-1,1
 321 674 321 674 321 599.5 c 128,-1,2
 321 525 321 525 282.5 483.5 c 128,-1,3
 244 442 244 442 172 442 c 128,-1,4
 100 442 100 442 62 483.5 c 128,-1,5
 24 525 24 525 24 599.5 c 128,-1,6
 24 674 24 674 62 715.5 c 128,-1,7
 100 757 100 757 172 757 c 128,-1,0
 244 757 244 757 282.5 715.5 c 128,-1,1
240 599.5 m 128,-1,9
 240 712 240 712 172.5 712 c 128,-1,10
 105 712 105 712 105 599.5 c 128,-1,11
 105 487 105 487 172.5 487 c 128,-1,8
 240 487 240 487 240 599.5 c 128,-1,9
EndSplineSet
EndChar

StartChar: guillemotright
Encoding: 187 187 123
Width: 415
GlyphClass: 2
Flags: W
LayerCount: 2
Fore
SplineSet
391 241 m 1,0,-1
 238 19 l 1,1,-1
 201 44 l 1,2,-1
 307 241 l 1,3,-1
 201 438 l 1,4,-1
 238 463 l 1,5,-1
 391 241 l 1,0,-1
228 241 m 1,6,-1
 78 23 l 1,7,-1
 42 48 l 1,8,-1
 146 241 l 1,9,-1
 42 434 l 1,10,-1
 78 459 l 1,11,-1
 228 241 l 1,6,-1
EndSplineSet
EndChar

StartChar: onequarter
Encoding: 188 188 124
Width: 739
GlyphClass: 2
Flags: W
LayerCount: 2
Fore
SplineSet
114 398 m 2,0,-1
 114 608 l 1,1,-1
 43 576 l 1,2,-1
 23 609 l 1,3,4
 97 665 97 665 109 675 c 1,5,-1
 139 710 l 1,6,-1
 188 703 l 1,7,8
 183 590 183 590 183 560 c 2,9,-1
 183 416 l 2,10,11
 183 366 183 366 189 348 c 1,12,-1
 238 344 l 1,13,-1
 234 297 l 1,14,15
 193 300 193 300 131 300 c 1,16,-1
 52 297 l 1,17,-1
 49 340 l 1,18,-1
 109 348 l 1,19,-1
 112 370 l 2,20,21
 114 391 114 391 114 398 c 2,0,-1
534 721 m 1,22,-1
 584 689 l 1,23,-1
 151 -49 l 1,24,-1
 100 -17 l 1,25,-1
 534 721 l 1,22,-1
578 166 m 1,26,-1
 578 237 l 1,27,-1
 644 261 l 1,28,-1
 644 171 l 1,29,-1
 703 174 l 1,30,-1
 703 120 l 1,31,-1
 644 120 l 1,32,-1
 644 99 l 2,33,34
 644 74 644 74 646.5 61.5 c 128,-1,35
 649 49 649 49 649 48 c 2,36,-1
 697 44 l 1,37,-1
 693 -3 l 1,38,39
 648 0 648 0 588 0 c 1,40,-1
 507 -3 l 1,41,-1
 504 39 l 1,42,-1
 572 48 l 1,43,44
 578 66 578 66 578 92 c 2,45,-1
 578 120 l 1,46,-1
 424 120 l 1,47,-1
 386 166 l 1,48,-1
 614 466 l 1,49,-1
 668 423 l 1,50,51
 599 353 599 353 589 339 c 2,52,-1
 464 166 l 1,53,-1
 578 166 l 1,26,-1
EndSplineSet
EndChar

StartChar: onehalf
Encoding: 189 189 125
Width: 760
GlyphClass: 2
Flags: W
LayerCount: 2
Fore
SplineSet
114 398 m 2,0,-1
 114 608 l 1,1,-1
 43 576 l 1,2,-1
 23 609 l 1,3,4
 97 665 97 665 109 675 c 1,5,-1
 139 710 l 1,6,-1
 188 703 l 1,7,8
 183 590 183 590 183 560 c 2,9,-1
 183 416 l 2,10,11
 183 366 183 366 189 348 c 1,12,-1
 238 344 l 1,13,-1
 234 297 l 1,14,15
 193 300 193 300 131 300 c 1,16,-1
 52 297 l 1,17,-1
 49 340 l 1,18,-1
 109 348 l 1,19,-1
 112 370 l 2,20,21
 114 391 114 391 114 398 c 2,0,-1
534 721 m 1,22,-1
 584 689 l 1,23,-1
 151 -49 l 1,24,-1
 100 -17 l 1,25,-1
 534 721 l 1,22,-1
443 395 m 1,26,27
 501 417 501 417 566 417 c 128,-1,28
 631 417 631 417 666.5 389 c 128,-1,29
 702 361 702 361 702 310 c 128,-1,30
 702 259 702 259 665.5 209.5 c 128,-1,31
 629 160 629 160 519 61 c 1,32,-1
 611 61 l 2,33,34
 625 61 625 61 667 67 c 1,35,36
 675 86 675 86 675 93 c 1,37,-1
 679 118 l 1,38,-1
 721 115 l 1,39,-1
 716 10 l 1,40,-1
 700 -2 l 1,41,42
 643 0 643 0 630 0 c 2,43,-1
 441 0 l 1,44,-1
 432 54 l 1,45,46
 551 168 551 168 586.5 214.5 c 128,-1,47
 622 261 622 261 622 297 c 128,-1,48
 622 333 622 333 604.5 350.5 c 128,-1,49
 587 368 587 368 556 368 c 128,-1,50
 525 368 525 368 497 352 c 1,51,52
 491 336 491 336 491 316 c 2,53,-1
 492 289 l 1,54,-1
 449 286 l 1,55,-1
 443 395 l 1,26,27
EndSplineSet
EndChar

StartChar: threequarters
Encoding: 190 190 126
Width: 754
GlyphClass: 2
Flags: W
LayerCount: 2
Fore
SplineSet
124 704 m 0,0,1
 257 704 257 704 257 600 c 0,2,3
 257 536 257 536 186 503 c 1,4,5
 226 494 226 494 250 467 c 128,-1,6
 274 440 274 440 274 405 c 0,7,8
 274 341 274 341 204.5 293.5 c 128,-1,9
 135 246 135 246 27 236 c 1,10,-1
 15 275 l 1,11,12
 94 286 94 286 142.5 320.5 c 128,-1,13
 191 355 191 355 191 400 c 0,14,15
 191 433 191 433 172 451 c 128,-1,16
 153 469 153 469 119 469 c 1,17,-1
 78 467 l 1,18,-1
 69 506 l 1,19,20
 178 521 178 521 178 599 c 0,21,22
 178 659 178 659 121 659 c 0,23,24
 98 659 98 659 75 649 c 1,25,26
 69 624 69 624 69 619 c 2,27,-1
 70 590 l 1,28,-1
 27 588 l 1,29,-1
 19 686 l 1,30,31
 73 704 73 704 124 704 c 0,0,1
549 721 m 1,32,-1
 599 689 l 1,33,-1
 166 -49 l 1,34,-1
 115 -17 l 1,35,-1
 549 721 l 1,32,-1
659 99 m 1,36,-1
 664 48 l 1,37,-1
 712 44 l 1,38,-1
 708 -3 l 1,39,40
 663 0 663 0 603 0 c 1,41,-1
 522 -3 l 1,42,-1
 519 39 l 1,43,-1
 587 48 l 1,44,45
 593 66 593 66 593 92 c 2,46,-1
 593 120 l 1,47,-1
 439 120 l 1,48,-1
 401 166 l 1,49,-1
 629 466 l 1,50,-1
 683 423 l 1,51,52
 614 353 614 353 604 339 c 2,53,-1
 479 166 l 1,54,-1
 593 166 l 1,55,-1
 593 237 l 1,56,-1
 659 261 l 1,57,-1
 659 171 l 1,58,-1
 718 174 l 1,59,-1
 718 120 l 1,60,-1
 659 120 l 1,61,-1
 659 99 l 1,36,-1
EndSplineSet
EndChar

StartChar: questiondown
Encoding: 191 191 127
Width: 403
GlyphClass: 2
Flags: W
LayerCount: 2
Fore
SplineSet
266 503 m 128,-1,1
 294 503 294 503 309.5 486 c 128,-1,2
 325 469 325 469 325 439 c 128,-1,3
 325 409 325 409 309.5 391.5 c 128,-1,4
 294 374 294 374 266 374 c 128,-1,5
 238 374 238 374 222.5 391.5 c 128,-1,6
 207 409 207 409 207 438 c 128,-1,7
 207 467 207 467 222.5 485 c 128,-1,0
 238 503 238 503 266 503 c 128,-1,1
138.5 82.5 m 128,-1,9
 105 44 105 44 105 -21.5 c 128,-1,10
 105 -87 105 -87 137 -132 c 128,-1,11
 169 -177 169 -177 224.5 -177 c 128,-1,12
 280 -177 280 -177 314 -151 c 1,13,14
 320 -130 320 -130 320 -93 c 1,15,-1
 318 -57 l 1,16,-1
 376 -57 l 1,17,-1
 388 -195 l 1,18,19
 304 -234 304 -234 231 -234 c 0,20,21
 129 -234 129 -234 70 -176.5 c 128,-1,22
 11 -119 11 -119 11 -22.5 c 128,-1,23
 11 74 11 74 74 128 c 128,-1,24
 137 182 137 182 233 182 c 1,25,-1
 229 270 l 1,26,-1
 236 276 l 1,27,28
 254 273 254 273 304 273 c 1,29,-1
 308 270 l 1,30,-1
 308 141 l 1,31,-1
 282 117 l 1,32,33
 252 121 252 121 231 121 c 0,34,8
 172 121 172 121 138.5 82.5 c 128,-1,9
EndSplineSet
EndChar

StartChar: Agrave
Encoding: 192 192 128
Width: 664
GlyphClass: 2
Flags: W
LayerCount: 2
Fore
SplineSet
660 54 m 1,0,-1
 655 0 l 1,1,-1
 554 0 l 1,2,-1
 411 -5 l 1,3,-1
 407 44 l 1,4,-1
 480 64 l 1,5,-1
 453 172 l 1,6,-1
 432 232 l 1,7,-1
 212 232 l 1,8,-1
 180 127 l 1,9,-1
 170 64 l 1,10,-1
 240 54 l 1,11,-1
 235 0 l 1,12,-1
 149 0 l 1,13,-1
 14 -5 l 1,14,-1
 10 44 l 1,15,-1
 73 61 l 1,16,-1
 116 160 l 1,17,-1
 295 705 l 1,18,-1
 353 715 l 1,19,-1
 559 149 l 1,20,-1
 598 64 l 1,21,-1
 660 54 l 1,0,-1
318 557 m 1,22,-1
 230 282 l 1,23,-1
 412 286 l 1,24,-1
 318 557 l 1,22,-1
182 825 m 1,25,-1
 212 898 l 1,26,-1
 441 798 l 1,27,-1
 421 750 l 1,28,-1
 333 787 l 1,29,-1
 182 825 l 1,25,-1
EndSplineSet
EndChar

StartChar: Aacute
Encoding: 193 193 129
Width: 664
GlyphClass: 2
Flags: W
LayerCount: 2
Fore
SplineSet
660 54 m 1,0,-1
 655 0 l 1,1,-1
 554 0 l 1,2,-1
 411 -5 l 1,3,-1
 407 44 l 1,4,-1
 480 64 l 1,5,-1
 453 172 l 1,6,-1
 432 232 l 1,7,-1
 212 232 l 1,8,-1
 180 127 l 1,9,-1
 170 64 l 1,10,-1
 240 54 l 1,11,-1
 235 0 l 1,12,-1
 149 0 l 1,13,-1
 14 -5 l 1,14,-1
 10 44 l 1,15,-1
 73 61 l 1,16,-1
 116 160 l 1,17,-1
 295 705 l 1,18,-1
 353 715 l 1,19,-1
 559 149 l 1,20,-1
 598 64 l 1,21,-1
 660 54 l 1,0,-1
318 557 m 1,22,-1
 230 282 l 1,23,-1
 412 286 l 1,24,-1
 318 557 l 1,22,-1
451 898 m 1,25,-1
 481 825 l 1,26,27
 349 793 349 793 330 787 c 1,28,-1
 242 750 l 1,29,-1
 222 798 l 1,30,-1
 451 898 l 1,25,-1
EndSplineSet
EndChar

StartChar: Acircumflex
Encoding: 194 194 130
Width: 664
GlyphClass: 2
Flags: W
LayerCount: 2
Fore
SplineSet
660 54 m 1,0,-1
 655 0 l 1,1,-1
 554 0 l 1,2,-1
 411 -5 l 1,3,-1
 407 44 l 1,4,-1
 480 64 l 1,5,-1
 453 172 l 1,6,-1
 432 232 l 1,7,-1
 212 232 l 1,8,-1
 180 127 l 1,9,-1
 170 64 l 1,10,-1
 240 54 l 1,11,-1
 235 0 l 1,12,-1
 149 0 l 1,13,-1
 14 -5 l 1,14,-1
 10 44 l 1,15,-1
 73 61 l 1,16,-1
 116 160 l 1,17,-1
 295 705 l 1,18,-1
 353 715 l 1,19,-1
 559 149 l 1,20,-1
 598 64 l 1,21,-1
 660 54 l 1,0,-1
318 557 m 1,22,-1
 230 282 l 1,23,-1
 412 286 l 1,24,-1
 318 557 l 1,22,-1
332 893 m 1,25,-1
 506 786 l 1,26,-1
 483 747 l 1,27,-1
 395 788 l 1,28,-1
 332 813 l 1,29,-1
 269 788 l 1,30,-1
 181 747 l 1,31,-1
 158 786 l 1,32,-1
 332 893 l 1,25,-1
EndSplineSet
EndChar

StartChar: Atilde
Encoding: 195 195 131
Width: 664
GlyphClass: 2
Flags: W
LayerCount: 2
Fore
SplineSet
660 54 m 1,0,-1
 655 0 l 1,1,-1
 554 0 l 1,2,-1
 411 -5 l 1,3,-1
 407 44 l 1,4,-1
 480 64 l 1,5,-1
 453 172 l 1,6,-1
 432 232 l 1,7,-1
 212 232 l 1,8,-1
 180 127 l 1,9,-1
 170 64 l 1,10,-1
 240 54 l 1,11,-1
 235 0 l 1,12,-1
 149 0 l 1,13,-1
 14 -5 l 1,14,-1
 10 44 l 1,15,-1
 73 61 l 1,16,-1
 116 160 l 1,17,-1
 295 705 l 1,18,-1
 353 715 l 1,19,-1
 559 149 l 1,20,-1
 598 64 l 1,21,-1
 660 54 l 1,0,-1
318 557 m 1,22,-1
 230 282 l 1,23,-1
 412 286 l 1,24,-1
 318 557 l 1,22,-1
457 790 m 128,-1,26
 435 763 435 763 416 763 c 128,-1,27
 397 763 397 763 335 783.5 c 128,-1,28
 273 804 273 804 257 804 c 128,-1,29
 241 804 241 804 227.5 790.5 c 128,-1,30
 214 777 214 777 207 764 c 2,31,-1
 200 750 l 1,32,-1
 164 771 l 1,33,34
 169 782 169 782 177 799 c 128,-1,35
 185 816 185 816 206.5 844 c 128,-1,36
 228 872 228 872 247 872 c 128,-1,37
 266 872 266 872 328.5 851.5 c 128,-1,38
 391 831 391 831 407 831 c 128,-1,39
 423 831 423 831 436.5 843.5 c 128,-1,40
 450 856 450 856 457 869 c 2,41,-1
 464 882 l 1,42,-1
 500 861 l 1,43,44
 495 850 495 850 487 833.5 c 128,-1,25
 479 817 479 817 457 790 c 128,-1,26
EndSplineSet
EndChar

StartChar: Adieresis
Encoding: 196 196 132
Width: 664
GlyphClass: 2
Flags: W
LayerCount: 2
Fore
SplineSet
660 54 m 1,0,-1
 655 0 l 1,1,-1
 554 0 l 1,2,-1
 411 -5 l 1,3,-1
 407 44 l 1,4,-1
 480 64 l 1,5,-1
 453 172 l 1,6,-1
 432 232 l 1,7,-1
 212 232 l 1,8,-1
 180 127 l 1,9,-1
 170 64 l 1,10,-1
 240 54 l 1,11,-1
 235 0 l 1,12,-1
 149 0 l 1,13,-1
 14 -5 l 1,14,-1
 10 44 l 1,15,-1
 73 61 l 1,16,-1
 116 160 l 1,17,-1
 295 705 l 1,18,-1
 353 715 l 1,19,-1
 559 149 l 1,20,-1
 598 64 l 1,21,-1
 660 54 l 1,0,-1
318 557 m 1,22,-1
 230 282 l 1,23,-1
 412 286 l 1,24,-1
 318 557 l 1,22,-1
450 884 m 0,25,26
 504 884 504 884 504 824.5 c 128,-1,27
 504 765 504 765 450 765 c 128,-1,28
 396 765 396 765 396 824 c 0,29,30
 396 852 396 852 410 868 c 128,-1,31
 424 884 424 884 450 884 c 0,25,26
214 884 m 0,32,33
 268 884 268 884 268 824.5 c 128,-1,34
 268 765 268 765 214 765 c 128,-1,35
 160 765 160 765 160 824 c 0,36,37
 160 852 160 852 174 868 c 128,-1,38
 188 884 188 884 214 884 c 0,32,33
EndSplineSet
EndChar

StartChar: Aring
Encoding: 197 197 133
Width: 664
GlyphClass: 2
Flags: W
LayerCount: 2
Fore
SplineSet
660 54 m 1,0,-1
 655 0 l 1,1,-1
 554 0 l 1,2,-1
 411 -5 l 1,3,-1
 407 44 l 1,4,-1
 480 64 l 1,5,-1
 453 172 l 1,6,-1
 432 232 l 1,7,-1
 212 232 l 1,8,-1
 180 127 l 1,9,-1
 170 64 l 1,10,-1
 240 54 l 1,11,-1
 235 0 l 1,12,-1
 149 0 l 1,13,-1
 14 -5 l 1,14,-1
 10 44 l 1,15,-1
 73 61 l 1,16,-1
 116 160 l 1,17,-1
 295 705 l 1,18,-1
 353 715 l 1,19,-1
 559 149 l 1,20,-1
 598 64 l 1,21,-1
 660 54 l 1,0,-1
332 916 m 128,-1,23
 376 916 376 916 398.5 893 c 128,-1,24
 421 870 421 870 421 830.5 c 128,-1,25
 421 791 421 791 398.5 768 c 128,-1,26
 376 745 376 745 332 745 c 128,-1,27
 288 745 288 745 265 768 c 128,-1,28
 242 791 242 791 242 830.5 c 128,-1,29
 242 870 242 870 265 893 c 128,-1,22
 288 916 288 916 332 916 c 128,-1,23
318 557 m 1,30,-1
 230 282 l 1,31,-1
 412 286 l 1,32,-1
 318 557 l 1,30,-1
332.5 878 m 128,-1,34
 291 878 291 878 291 830.5 c 128,-1,35
 291 783 291 783 332.5 783 c 128,-1,36
 374 783 374 783 374 830.5 c 128,-1,33
 374 878 374 878 332.5 878 c 128,-1,34
EndSplineSet
EndChar

StartChar: AE
Encoding: 198 198 134
Width: 907
GlyphClass: 2
Flags: W
LayerCount: 2
Fore
SplineSet
657 648 m 2,0,-1
 476 648 l 1,1,2
 483 570 483 570 487 541 c 2,3,-1
 511 386 l 1,4,5
 567 382 567 382 587 382 c 2,6,-1
 635 382 l 1,7,-1
 695 391 l 1,8,-1
 704 457 l 1,9,-1
 750 452 l 1,10,11
 749 392 749 392 749 372 c 2,12,-1
 752 263 l 1,13,-1
 704 257 l 1,14,-1
 695 324 l 1,15,16
 635 330 635 330 615 330 c 2,17,-1
 587 330 l 2,18,19
 572 330 572 330 520 326 c 1,20,-1
 544 174 l 1,21,-1
 569 57 l 1,22,-1
 691 57 l 2,23,24
 728 57 728 57 778 66 c 1,25,26
 795 90 795 90 799 103 c 0,27,28
 811 150 811 150 814 170 c 1,29,-1
 869 165 l 1,30,-1
 854 14 l 1,31,-1
 835 -4 l 1,32,33
 741 0 741 0 721 0 c 2,34,-1
 503 0 l 1,35,-1
 385 -5 l 1,36,-1
 380 45 l 1,37,-1
 462 61 l 1,38,39
 462 97 462 97 457 130 c 2,40,-1
 439 248 l 1,41,-1
 225 248 l 1,42,-1
 156 102 l 2,43,44
 154 97 154 97 150 82 c 128,-1,45
 146 67 146 67 144 61 c 1,46,-1
 226 54 l 1,47,-1
 219 -5 l 1,48,49
 168 0 168 0 88 0 c 1,50,-1
 -5 -5 l 1,51,-1
 -10 45 l 1,52,-1
 50 61 l 1,53,54
 102 133 102 133 111 153 c 2,55,-1
 345 644 l 1,56,-1
 267 656 l 1,57,-1
 272 710 l 1,58,59
 368 705 368 705 388 705 c 2,60,-1
 687 705 l 1,61,-1
 801 715 l 1,62,-1
 820 697 l 1,63,-1
 827 561 l 1,64,-1
 769 556 l 1,65,66
 766 580 766 580 761.5 599.5 c 128,-1,67
 757 619 757 619 738 643 c 1,68,69
 683 648 683 648 657 648 c 2,0,-1
250 299 m 1,70,-1
 431 302 l 1,71,-1
 392 556 l 1,72,-1
 385 584 l 1,73,-1
 250 299 l 1,70,-1
EndSplineSet
EndChar

StartChar: Ccedilla
Encoding: 199 199 135
Width: 610
GlyphClass: 2
Flags: W
LayerCount: 2
Fore
SplineSet
484 -146 m 128,-1,1
 484 -186 484 -186 453 -210.5 c 128,-1,2
 422 -235 422 -235 377 -235 c 128,-1,3
 332 -235 332 -235 294 -217 c 1,4,-1
 307 -182 l 1,5,6
 342 -193 342 -193 365.5 -193 c 128,-1,7
 389 -193 389 -193 404 -180.5 c 128,-1,8
 419 -168 419 -168 419 -146 c 0,9,10
 419 -103 419 -103 372 -103 c 1,11,-1
 351 -104 l 1,12,-1
 340 -94 l 1,13,-1
 347 -14 l 1,14,15
 199 -10 199 -10 120.5 88.5 c 128,-1,16
 42 187 42 187 42 353.5 c 128,-1,17
 42 520 42 520 123.5 620 c 128,-1,18
 205 720 205 720 359 720 c 0,19,20
 432 720 432 720 566 686 c 1,21,-1
 556 538 l 1,22,-1
 497 542 l 1,23,-1
 497 589 l 2,24,25
 497 599 497 599 485 639 c 1,26,27
 416 662 416 662 359 662 c 0,28,29
 255 662 255 662 200 575.5 c 128,-1,30
 145 489 145 489 145 353 c 128,-1,31
 145 217 145 217 200 130 c 128,-1,32
 255 43 255 43 358 43 c 0,33,34
 423 43 423 43 494 65 c 1,35,36
 508 111 508 111 508 121 c 2,37,-1
 510 168 l 1,38,-1
 569 170 l 1,39,-1
 575 19 l 1,40,41
 462 -10 462 -10 392 -14 c 1,42,-1
 383 -59 l 1,43,44
 428 -60 428 -60 456 -83 c 128,-1,0
 484 -106 484 -106 484 -146 c 128,-1,1
EndSplineSet
EndChar

StartChar: Egrave
Encoding: 200 200 136
Width: 588
GlyphClass: 2
Flags: W
LayerCount: 2
Fore
SplineSet
165 705 m 2,0,-1
 389 705 l 1,1,-1
 503 715 l 1,2,-1
 522 697 l 1,3,-1
 529 561 l 1,4,-1
 471 556 l 1,5,6
 468 580 468 580 463.5 600 c 128,-1,7
 459 620 459 620 440 644 c 1,8,9
 385 649 385 649 359 649 c 2,10,-1
 228 649 l 1,11,12
 221 575 221 575 221 538 c 2,13,-1
 221 396 l 1,14,15
 255 394 255 394 264 394 c 2,16,-1
 337 394 l 1,17,-1
 397 403 l 1,18,-1
 406 469 l 1,19,-1
 452 464 l 1,20,21
 451 400 451 400 451 380 c 2,22,-1
 454 271 l 1,23,-1
 406 265 l 1,24,-1
 397 332 l 1,25,26
 337 338 337 338 317 338 c 2,27,-1
 264 338 l 2,28,29
 246 338 246 338 221 335 c 1,30,-1
 221 167 l 2,31,32
 221 124 221 124 228 57 c 1,33,-1
 372 57 l 2,34,35
 410 57 410 57 459 66 c 1,36,37
 478 92 478 92 479.5 99.5 c 128,-1,38
 481 107 481 107 487.5 134 c 128,-1,39
 494 161 494 161 495 170 c 1,40,-1
 550 165 l 1,41,-1
 535 14 l 1,42,-1
 516 -4 l 1,43,44
 422 0 422 0 402 0 c 2,45,-1
 165 0 l 1,46,-1
 47 -5 l 1,47,-1
 42 45 l 1,48,-1
 121 61 l 1,49,50
 130 120 130 120 130 137 c 2,51,-1
 130 568 l 2,52,53
 130 586 130 586 121 644 c 1,54,-1
 44 656 l 1,55,-1
 49 710 l 1,56,57
 145 705 145 705 165 705 c 2,0,-1
144 825 m 1,58,-1
 174 898 l 1,59,-1
 403 798 l 1,60,-1
 383 750 l 1,61,-1
 295 787 l 1,62,-1
 144 825 l 1,58,-1
EndSplineSet
EndChar

StartChar: Eacute
Encoding: 201 201 137
Width: 588
GlyphClass: 2
Flags: W
LayerCount: 2
Fore
SplineSet
165 705 m 2,0,-1
 389 705 l 1,1,-1
 503 715 l 1,2,-1
 522 697 l 1,3,-1
 529 561 l 1,4,-1
 471 556 l 1,5,6
 468 580 468 580 463.5 600 c 128,-1,7
 459 620 459 620 440 644 c 1,8,9
 385 649 385 649 359 649 c 2,10,-1
 228 649 l 1,11,12
 221 575 221 575 221 538 c 2,13,-1
 221 396 l 1,14,15
 255 394 255 394 264 394 c 2,16,-1
 337 394 l 1,17,-1
 397 403 l 1,18,-1
 406 469 l 1,19,-1
 452 464 l 1,20,21
 451 400 451 400 451 380 c 2,22,-1
 454 271 l 1,23,-1
 406 265 l 1,24,-1
 397 332 l 1,25,26
 337 338 337 338 317 338 c 2,27,-1
 264 338 l 2,28,29
 246 338 246 338 221 335 c 1,30,-1
 221 167 l 2,31,32
 221 124 221 124 228 57 c 1,33,-1
 372 57 l 2,34,35
 410 57 410 57 459 66 c 1,36,37
 478 92 478 92 479.5 99.5 c 128,-1,38
 481 107 481 107 487.5 134 c 128,-1,39
 494 161 494 161 495 170 c 1,40,-1
 550 165 l 1,41,-1
 535 14 l 1,42,-1
 516 -4 l 1,43,44
 422 0 422 0 402 0 c 2,45,-1
 165 0 l 1,46,-1
 47 -5 l 1,47,-1
 42 45 l 1,48,-1
 121 61 l 1,49,50
 130 120 130 120 130 137 c 2,51,-1
 130 568 l 2,52,53
 130 586 130 586 121 644 c 1,54,-1
 44 656 l 1,55,-1
 49 710 l 1,56,57
 145 705 145 705 165 705 c 2,0,-1
413 898 m 1,58,-1
 443 825 l 1,59,60
 311 793 311 793 292 787 c 1,61,-1
 204 750 l 1,62,-1
 184 798 l 1,63,-1
 413 898 l 1,58,-1
EndSplineSet
EndChar

StartChar: Ecircumflex
Encoding: 202 202 138
Width: 588
GlyphClass: 2
Flags: W
LayerCount: 2
Fore
SplineSet
165 705 m 2,0,-1
 389 705 l 1,1,-1
 503 715 l 1,2,-1
 522 697 l 1,3,-1
 529 561 l 1,4,-1
 471 556 l 1,5,6
 468 580 468 580 463.5 600 c 128,-1,7
 459 620 459 620 440 644 c 1,8,9
 385 649 385 649 359 649 c 2,10,-1
 228 649 l 1,11,12
 221 575 221 575 221 538 c 2,13,-1
 221 396 l 1,14,15
 255 394 255 394 264 394 c 2,16,-1
 337 394 l 1,17,-1
 397 403 l 1,18,-1
 406 469 l 1,19,-1
 452 464 l 1,20,21
 451 400 451 400 451 380 c 2,22,-1
 454 271 l 1,23,-1
 406 265 l 1,24,-1
 397 332 l 1,25,26
 337 338 337 338 317 338 c 2,27,-1
 264 338 l 2,28,29
 246 338 246 338 221 335 c 1,30,-1
 221 167 l 2,31,32
 221 124 221 124 228 57 c 1,33,-1
 372 57 l 2,34,35
 410 57 410 57 459 66 c 1,36,37
 478 92 478 92 479.5 99.5 c 128,-1,38
 481 107 481 107 487.5 134 c 128,-1,39
 494 161 494 161 495 170 c 1,40,-1
 550 165 l 1,41,-1
 535 14 l 1,42,-1
 516 -4 l 1,43,44
 422 0 422 0 402 0 c 2,45,-1
 165 0 l 1,46,-1
 47 -5 l 1,47,-1
 42 45 l 1,48,-1
 121 61 l 1,49,50
 130 120 130 120 130 137 c 2,51,-1
 130 568 l 2,52,53
 130 586 130 586 121 644 c 1,54,-1
 44 656 l 1,55,-1
 49 710 l 1,56,57
 145 705 145 705 165 705 c 2,0,-1
294 893 m 1,58,-1
 468 786 l 1,59,-1
 445 747 l 1,60,-1
 357 788 l 1,61,-1
 294 813 l 1,62,-1
 231 788 l 1,63,-1
 143 747 l 1,64,-1
 120 786 l 1,65,-1
 294 893 l 1,58,-1
EndSplineSet
EndChar

StartChar: Edieresis
Encoding: 203 203 139
Width: 588
GlyphClass: 2
Flags: W
LayerCount: 2
Fore
SplineSet
165 705 m 2,0,-1
 389 705 l 1,1,-1
 503 715 l 1,2,-1
 522 697 l 1,3,-1
 529 561 l 1,4,-1
 471 556 l 1,5,6
 468 580 468 580 463.5 600 c 128,-1,7
 459 620 459 620 440 644 c 1,8,9
 385 649 385 649 359 649 c 2,10,-1
 228 649 l 1,11,12
 221 575 221 575 221 538 c 2,13,-1
 221 396 l 1,14,15
 255 394 255 394 264 394 c 2,16,-1
 337 394 l 1,17,-1
 397 403 l 1,18,-1
 406 469 l 1,19,-1
 452 464 l 1,20,21
 451 400 451 400 451 380 c 2,22,-1
 454 271 l 1,23,-1
 406 265 l 1,24,-1
 397 332 l 1,25,26
 337 338 337 338 317 338 c 2,27,-1
 264 338 l 2,28,29
 246 338 246 338 221 335 c 1,30,-1
 221 167 l 2,31,32
 221 124 221 124 228 57 c 1,33,-1
 372 57 l 2,34,35
 410 57 410 57 459 66 c 1,36,37
 478 92 478 92 479.5 99.5 c 128,-1,38
 481 107 481 107 487.5 134 c 128,-1,39
 494 161 494 161 495 170 c 1,40,-1
 550 165 l 1,41,-1
 535 14 l 1,42,-1
 516 -4 l 1,43,44
 422 0 422 0 402 0 c 2,45,-1
 165 0 l 1,46,-1
 47 -5 l 1,47,-1
 42 45 l 1,48,-1
 121 61 l 1,49,50
 130 120 130 120 130 137 c 2,51,-1
 130 568 l 2,52,53
 130 586 130 586 121 644 c 1,54,-1
 44 656 l 1,55,-1
 49 710 l 1,56,57
 145 705 145 705 165 705 c 2,0,-1
412 884 m 0,58,59
 466 884 466 884 466 824.5 c 128,-1,60
 466 765 466 765 412 765 c 128,-1,61
 358 765 358 765 358 824 c 0,62,63
 358 852 358 852 372 868 c 128,-1,64
 386 884 386 884 412 884 c 0,58,59
176 884 m 0,65,66
 230 884 230 884 230 824.5 c 128,-1,67
 230 765 230 765 176 765 c 128,-1,68
 122 765 122 765 122 824 c 0,69,70
 122 852 122 852 136 868 c 128,-1,71
 150 884 150 884 176 884 c 0,65,66
EndSplineSet
EndChar

StartChar: Igrave
Encoding: 204 204 140
Width: 363
GlyphClass: 2
Flags: W
LayerCount: 2
Fore
SplineSet
227 538 m 2,0,-1
 227 167 l 2,1,2
 227 110 227 110 234 61 c 1,3,-1
 324 54 l 1,4,-1
 317 -5 l 1,5,6
 251 0 251 0 171 0 c 1,7,-1
 53 -5 l 1,8,-1
 48 45 l 1,9,-1
 127 61 l 1,10,11
 136 120 136 120 136 137 c 2,12,-1
 136 568 l 2,13,14
 136 586 136 586 127 644 c 1,15,-1
 50 656 l 1,16,-1
 55 710 l 1,17,18
 151 705 151 705 171 705 c 2,19,-1
 308 710 l 1,20,-1
 312 651 l 1,21,-1
 234 644 l 1,22,23
 227 595 227 595 227 538 c 2,0,-1
32 825 m 1,24,-1
 62 898 l 1,25,-1
 291 798 l 1,26,-1
 271 750 l 1,27,-1
 183 787 l 1,28,-1
 32 825 l 1,24,-1
EndSplineSet
EndChar

StartChar: Iacute
Encoding: 205 205 141
Width: 363
GlyphClass: 2
Flags: W
LayerCount: 2
Fore
SplineSet
227 538 m 2,0,-1
 227 167 l 2,1,2
 227 110 227 110 234 61 c 1,3,-1
 324 54 l 1,4,-1
 317 -5 l 1,5,6
 251 0 251 0 171 0 c 1,7,-1
 53 -5 l 1,8,-1
 48 45 l 1,9,-1
 127 61 l 1,10,11
 136 120 136 120 136 137 c 2,12,-1
 136 568 l 2,13,14
 136 586 136 586 127 644 c 1,15,-1
 50 656 l 1,16,-1
 55 710 l 1,17,18
 151 705 151 705 171 705 c 2,19,-1
 308 710 l 1,20,-1
 312 651 l 1,21,-1
 234 644 l 1,22,23
 227 595 227 595 227 538 c 2,0,-1
301 898 m 1,24,-1
 331 825 l 1,25,26
 199 793 199 793 180 787 c 1,27,-1
 92 750 l 1,28,-1
 72 798 l 1,29,-1
 301 898 l 1,24,-1
EndSplineSet
EndChar

StartChar: Icircumflex
Encoding: 206 206 142
Width: 363
GlyphClass: 2
Flags: W
LayerCount: 2
Fore
SplineSet
227 538 m 2,0,-1
 227 167 l 2,1,2
 227 110 227 110 234 61 c 1,3,-1
 324 54 l 1,4,-1
 317 -5 l 1,5,6
 251 0 251 0 171 0 c 1,7,-1
 53 -5 l 1,8,-1
 48 45 l 1,9,-1
 127 61 l 1,10,11
 136 120 136 120 136 137 c 2,12,-1
 136 568 l 2,13,14
 136 586 136 586 127 644 c 1,15,-1
 50 656 l 1,16,-1
 55 710 l 1,17,18
 151 705 151 705 171 705 c 2,19,-1
 308 710 l 1,20,-1
 312 651 l 1,21,-1
 234 644 l 1,22,23
 227 595 227 595 227 538 c 2,0,-1
182 893 m 1,24,-1
 356 786 l 1,25,-1
 333 747 l 1,26,-1
 245 788 l 1,27,-1
 182 813 l 1,28,-1
 119 788 l 1,29,-1
 31 747 l 1,30,-1
 8 786 l 1,31,-1
 182 893 l 1,24,-1
EndSplineSet
EndChar

StartChar: Idieresis
Encoding: 207 207 143
Width: 363
GlyphClass: 2
Flags: W
LayerCount: 2
Fore
SplineSet
270 884 m 0,0,1
 324 884 324 884 324 824.5 c 128,-1,2
 324 765 324 765 270 765 c 128,-1,3
 216 765 216 765 216 824 c 0,4,5
 216 852 216 852 230 868 c 128,-1,6
 244 884 244 884 270 884 c 0,0,1
94 884 m 0,7,8
 148 884 148 884 148 824.5 c 128,-1,9
 148 765 148 765 94 765 c 128,-1,10
 40 765 40 765 40 824 c 0,11,12
 40 852 40 852 54 868 c 128,-1,13
 68 884 68 884 94 884 c 0,7,8
227 538 m 2,14,-1
 227 167 l 2,15,16
 227 110 227 110 234 61 c 1,17,-1
 324 54 l 1,18,-1
 317 -5 l 1,19,20
 251 0 251 0 171 0 c 1,21,-1
 53 -5 l 1,22,-1
 48 45 l 1,23,-1
 127 61 l 1,24,25
 136 120 136 120 136 137 c 2,26,-1
 136 568 l 2,27,28
 136 586 136 586 127 644 c 1,29,-1
 50 656 l 1,30,-1
 55 710 l 1,31,32
 151 705 151 705 171 705 c 2,33,-1
 308 710 l 1,34,-1
 312 651 l 1,35,-1
 234 644 l 1,36,37
 227 595 227 595 227 538 c 2,14,-1
EndSplineSet
EndChar

StartChar: Eth
Encoding: 208 208 144
Width: 721
GlyphClass: 2
Flags: W
LayerCount: 2
Fore
SplineSet
334 -6 m 1,0,-1
 165 0 l 1,1,-1
 47 -5 l 1,2,-1
 42 45 l 1,3,-1
 121 61 l 1,4,5
 130 120 130 120 130 137 c 2,6,-1
 130 337 l 1,7,-1
 42 337 l 1,8,-1
 42 380 l 1,9,-1
 130 380 l 1,10,-1
 130 568 l 2,11,12
 130 586 130 586 121 644 c 1,13,-1
 44 656 l 1,14,-1
 49 710 l 1,15,16
 113 707 113 707 147 705 c 1,17,18
 173 706 173 706 235 710.5 c 128,-1,19
 297 715 297 715 334 715 c 0,20,21
 499 715 499 715 589 618 c 128,-1,22
 679 521 679 521 679 355.5 c 128,-1,23
 679 190 679 190 586.5 92 c 128,-1,24
 494 -6 494 -6 334 -6 c 1,0,-1
221 337 m 1,25,-1
 221 167 l 2,26,27
 221 85 221 85 228 57 c 1,28,29
 280 53 280 53 335 53 c 0,30,31
 455 53 455 53 517.5 137 c 128,-1,32
 580 221 580 221 580 353 c 128,-1,33
 580 485 580 485 517.5 570 c 128,-1,34
 455 655 455 655 335 655 c 0,35,36
 270 655 270 655 228 650 c 1,37,38
 221 584 221 584 221 538 c 2,39,-1
 221 380 l 1,40,-1
 364 380 l 1,41,-1
 359 337 l 1,42,-1
 221 337 l 1,25,-1
EndSplineSet
EndChar

StartChar: Ntilde
Encoding: 209 209 145
Width: 761
GlyphClass: 2
Flags: W
LayerCount: 2
Fore
SplineSet
652 528 m 2,0,-1
 652 297 l 1,1,-1
 651 -7 l 1,2,-1
 591 -7 l 1,3,-1
 197 556 l 1,4,-1
 197 167 l 2,5,6
 197 110 197 110 204 61 c 1,7,-1
 285 54 l 1,8,-1
 278 -5 l 1,9,10
 235 0 235 0 155 0 c 1,11,-1
 47 -5 l 1,12,-1
 42 45 l 1,13,-1
 121 61 l 1,14,15
 130 120 130 120 130 137 c 2,16,-1
 130 568 l 2,17,18
 130 576 130 576 121 644 c 1,19,-1
 41 656 l 1,20,-1
 46 710 l 1,21,22
 142 705 142 705 162 705 c 2,23,-1
 206 706 l 1,24,-1
 226 685 l 1,25,26
 308 552 308 552 323 530 c 2,27,-1
 585 163 l 1,28,-1
 585 558 l 2,29,30
 585 587 585 587 576 641 c 1,31,-1
 497 647 l 1,32,-1
 503 707 l 1,33,-1
 585 705 l 1,34,-1
 741 710 l 1,35,-1
 746 657 l 1,36,-1
 667 641 l 1,37,38
 652 570 652 570 652 528 c 2,0,-1
506 790 m 128,-1,40
 484 763 484 763 465 763 c 128,-1,41
 446 763 446 763 384 783.5 c 128,-1,42
 322 804 322 804 306 804 c 0,43,44
 279 804 279 804 256 764 c 1,45,-1
 249 750 l 1,46,-1
 213 771 l 1,47,48
 218 782 218 782 226 799 c 128,-1,49
 234 816 234 816 255.5 844 c 128,-1,50
 277 872 277 872 296 872 c 128,-1,51
 315 872 315 872 377.5 851.5 c 128,-1,52
 440 831 440 831 456 831 c 0,53,54
 484 831 484 831 506 869 c 1,55,-1
 513 882 l 1,56,-1
 549 861 l 1,57,58
 544 850 544 850 536 833.5 c 128,-1,39
 528 817 528 817 506 790 c 128,-1,40
EndSplineSet
EndChar

StartChar: Ograve
Encoding: 210 210 146
Width: 740
GlyphClass: 2
Flags: W
LayerCount: 2
Fore
SplineSet
698 352 m 128,-1,1
 698 184 698 184 613.5 84.5 c 128,-1,2
 529 -15 529 -15 370 -15 c 128,-1,3
 211 -15 211 -15 126.5 84.5 c 128,-1,4
 42 184 42 184 42 352 c 128,-1,5
 42 520 42 520 126.5 620 c 128,-1,6
 211 720 211 720 370 720 c 128,-1,7
 529 720 529 720 613.5 620 c 128,-1,0
 698 520 698 520 698 352 c 128,-1,1
149 352 m 128,-1,9
 149 214 149 214 206 126 c 128,-1,10
 263 38 263 38 370 38 c 128,-1,11
 477 38 477 38 534 126 c 128,-1,12
 591 214 591 214 591 352 c 128,-1,13
 591 490 591 490 534 578.5 c 128,-1,14
 477 667 477 667 370 667 c 128,-1,15
 263 667 263 667 206 578.5 c 128,-1,8
 149 490 149 490 149 352 c 128,-1,9
220 825 m 1,16,-1
 250 898 l 1,17,-1
 479 798 l 1,18,-1
 459 750 l 1,19,-1
 371 787 l 1,20,-1
 220 825 l 1,16,-1
EndSplineSet
EndChar

StartChar: Oacute
Encoding: 211 211 147
Width: 740
GlyphClass: 2
Flags: W
LayerCount: 2
Fore
SplineSet
698 352 m 128,-1,1
 698 184 698 184 613.5 84.5 c 128,-1,2
 529 -15 529 -15 370 -15 c 128,-1,3
 211 -15 211 -15 126.5 84.5 c 128,-1,4
 42 184 42 184 42 352 c 128,-1,5
 42 520 42 520 126.5 620 c 128,-1,6
 211 720 211 720 370 720 c 128,-1,7
 529 720 529 720 613.5 620 c 128,-1,0
 698 520 698 520 698 352 c 128,-1,1
149 352 m 128,-1,9
 149 214 149 214 206 126 c 128,-1,10
 263 38 263 38 370 38 c 128,-1,11
 477 38 477 38 534 126 c 128,-1,12
 591 214 591 214 591 352 c 128,-1,13
 591 490 591 490 534 578.5 c 128,-1,14
 477 667 477 667 370 667 c 128,-1,15
 263 667 263 667 206 578.5 c 128,-1,8
 149 490 149 490 149 352 c 128,-1,9
489 898 m 1,16,-1
 519 825 l 1,17,18
 387 793 387 793 368 787 c 1,19,-1
 280 750 l 1,20,-1
 260 798 l 1,21,-1
 489 898 l 1,16,-1
EndSplineSet
EndChar

StartChar: Ocircumflex
Encoding: 212 212 148
Width: 740
GlyphClass: 2
Flags: W
LayerCount: 2
Fore
SplineSet
698 352 m 128,-1,1
 698 184 698 184 613.5 84.5 c 128,-1,2
 529 -15 529 -15 370 -15 c 128,-1,3
 211 -15 211 -15 126.5 84.5 c 128,-1,4
 42 184 42 184 42 352 c 128,-1,5
 42 520 42 520 126.5 620 c 128,-1,6
 211 720 211 720 370 720 c 128,-1,7
 529 720 529 720 613.5 620 c 128,-1,0
 698 520 698 520 698 352 c 128,-1,1
149 352 m 128,-1,9
 149 214 149 214 206 126 c 128,-1,10
 263 38 263 38 370 38 c 128,-1,11
 477 38 477 38 534 126 c 128,-1,12
 591 214 591 214 591 352 c 128,-1,13
 591 490 591 490 534 578.5 c 128,-1,14
 477 667 477 667 370 667 c 128,-1,15
 263 667 263 667 206 578.5 c 128,-1,8
 149 490 149 490 149 352 c 128,-1,9
370 893 m 1,16,-1
 544 786 l 1,17,-1
 521 747 l 1,18,-1
 433 788 l 1,19,-1
 370 813 l 1,20,-1
 307 788 l 1,21,-1
 219 747 l 1,22,-1
 196 786 l 1,23,-1
 370 893 l 1,16,-1
EndSplineSet
EndChar

StartChar: Otilde
Encoding: 213 213 149
Width: 740
GlyphClass: 2
Flags: W
LayerCount: 2
Fore
SplineSet
698 352 m 128,-1,1
 698 184 698 184 613.5 84.5 c 128,-1,2
 529 -15 529 -15 370 -15 c 128,-1,3
 211 -15 211 -15 126.5 84.5 c 128,-1,4
 42 184 42 184 42 352 c 128,-1,5
 42 520 42 520 126.5 620 c 128,-1,6
 211 720 211 720 370 720 c 128,-1,7
 529 720 529 720 613.5 620 c 128,-1,0
 698 520 698 520 698 352 c 128,-1,1
149 352 m 128,-1,9
 149 214 149 214 206 126 c 128,-1,10
 263 38 263 38 370 38 c 128,-1,11
 477 38 477 38 534 126 c 128,-1,12
 591 214 591 214 591 352 c 128,-1,13
 591 490 591 490 534 578.5 c 128,-1,14
 477 667 477 667 370 667 c 128,-1,15
 263 667 263 667 206 578.5 c 128,-1,8
 149 490 149 490 149 352 c 128,-1,9
495 790 m 128,-1,17
 473 763 473 763 454 763 c 128,-1,18
 435 763 435 763 373 783.5 c 128,-1,19
 311 804 311 804 295 804 c 128,-1,20
 279 804 279 804 265.5 790.5 c 128,-1,21
 252 777 252 777 245 764 c 2,22,-1
 238 750 l 1,23,-1
 202 771 l 1,24,25
 207 782 207 782 215 799 c 128,-1,26
 223 816 223 816 244.5 844 c 128,-1,27
 266 872 266 872 285 872 c 128,-1,28
 304 872 304 872 366.5 851.5 c 128,-1,29
 429 831 429 831 445 831 c 0,30,31
 473 831 473 831 494 869 c 1,32,-1
 502 882 l 1,33,-1
 538 861 l 1,34,35
 533 850 533 850 525 833.5 c 128,-1,16
 517 817 517 817 495 790 c 128,-1,17
EndSplineSet
EndChar

StartChar: Odieresis
Encoding: 214 214 150
Width: 740
GlyphClass: 2
Flags: W
LayerCount: 2
Fore
SplineSet
698 352 m 128,-1,1
 698 184 698 184 613.5 84.5 c 128,-1,2
 529 -15 529 -15 370 -15 c 128,-1,3
 211 -15 211 -15 126.5 84.5 c 128,-1,4
 42 184 42 184 42 352 c 128,-1,5
 42 520 42 520 126.5 620 c 128,-1,6
 211 720 211 720 370 720 c 128,-1,7
 529 720 529 720 613.5 620 c 128,-1,0
 698 520 698 520 698 352 c 128,-1,1
149 352 m 128,-1,9
 149 214 149 214 206 126 c 128,-1,10
 263 38 263 38 370 38 c 128,-1,11
 477 38 477 38 534 126 c 128,-1,12
 591 214 591 214 591 352 c 128,-1,13
 591 490 591 490 534 578.5 c 128,-1,14
 477 667 477 667 370 667 c 128,-1,15
 263 667 263 667 206 578.5 c 128,-1,8
 149 490 149 490 149 352 c 128,-1,9
488 884 m 0,16,17
 542 884 542 884 542 824.5 c 128,-1,18
 542 765 542 765 488 765 c 128,-1,19
 434 765 434 765 434 824 c 0,20,21
 434 852 434 852 448 868 c 128,-1,22
 462 884 462 884 488 884 c 0,16,17
252 884 m 0,23,24
 306 884 306 884 306 824.5 c 128,-1,25
 306 765 306 765 252 765 c 128,-1,26
 198 765 198 765 198 824 c 0,27,28
 198 852 198 852 212 868 c 128,-1,29
 226 884 226 884 252 884 c 0,23,24
EndSplineSet
EndChar

StartChar: multiply
Encoding: 215 215 151
Width: 538
GlyphClass: 2
Flags: W
LayerCount: 2
Fore
SplineSet
268 299 m 1,0,-1
 424 457 l 1,1,-1
 477 404 l 1,2,-1
 321 248 l 1,3,-1
 478 94 l 1,4,-1
 425 41 l 1,5,-1
 269 196 l 1,6,-1
 112 40 l 1,7,-1
 62 90 l 1,8,-1
 217 248 l 1,9,-1
 60 405 l 1,10,-1
 110 455 l 1,11,-1
 268 299 l 1,0,-1
EndSplineSet
EndChar

StartChar: Oslash
Encoding: 216 216 152
Width: 740
GlyphClass: 2
Flags: W
LayerCount: 2
Fore
SplineSet
698 352 m 0,0,1
 698 184 698 184 613.5 84.5 c 128,-1,2
 529 -15 529 -15 370 -15 c 0,3,4
 286 -15 286 -15 220 15 c 1,5,-1
 140 -136 l 1,6,-1
 100 -113 l 1,7,-1
 179 38 l 1,8,9
 42 131 42 131 42 352 c 0,10,11
 42 520 42 520 126.5 620 c 128,-1,12
 211 720 211 720 370 720 c 0,13,14
 455 720 455 720 522 689 c 1,15,-1
 600 838 l 1,16,-1
 642 815 l 1,17,-1
 563 665 l 1,18,19
 698 569 698 569 698 352 c 0,0,1
206 578.5 m 128,-1,21
 149 490 149 490 149 343 c 128,-1,22
 149 196 149 196 217 110 c 1,23,-1
 489 627 l 1,24,25
 438 667 438 667 370 667 c 0,26,20
 263 667 263 667 206 578.5 c 128,-1,21
534 126 m 128,-1,28
 591 214 591 214 591 360 c 128,-1,29
 591 506 591 506 524 592 c 1,30,-1
 252 76 l 1,31,32
 303 38 303 38 370 38 c 0,33,27
 477 38 477 38 534 126 c 128,-1,28
EndSplineSet
EndChar

StartChar: Ugrave
Encoding: 217 217 153
Width: 727
GlyphClass: 2
Flags: W
LayerCount: 2
Fore
SplineSet
622 533 m 2,0,-1
 622 266 l 2,1,2
 622 135 622 135 555.5 60 c 128,-1,3
 489 -15 489 -15 363 -15 c 128,-1,4
 237 -15 237 -15 171 60 c 128,-1,5
 105 135 105 135 105 266 c 2,6,-1
 105 563 l 2,7,8
 105 576 105 576 96 644 c 1,9,-1
 17 656 l 1,10,-1
 22 710 l 1,11,12
 118 705 118 705 138 705 c 2,13,-1
 282 710 l 1,14,-1
 286 651 l 1,15,-1
 207 644 l 1,16,17
 200 592 200 592 200 533 c 2,18,-1
 200 266 l 2,19,20
 200 167 200 167 244 108 c 128,-1,21
 288 49 288 49 373.5 49 c 128,-1,22
 459 49 459 49 504.5 108.5 c 128,-1,23
 550 168 550 168 550 266 c 2,24,-1
 550 563 l 2,25,26
 550 574 550 574 540 644 c 1,27,-1
 462 656 l 1,28,-1
 467 710 l 1,29,30
 553 705 553 705 573 705 c 2,31,-1
 704 710 l 1,32,-1
 708 651 l 1,33,-1
 629 644 l 1,34,35
 622 592 622 592 622 533 c 2,0,-1
215 825 m 1,36,-1
 245 898 l 1,37,-1
 474 798 l 1,38,-1
 454 750 l 1,39,-1
 366 787 l 1,40,-1
 215 825 l 1,36,-1
EndSplineSet
EndChar

StartChar: Uacute
Encoding: 218 218 154
Width: 727
GlyphClass: 2
Flags: W
LayerCount: 2
Fore
SplineSet
622 533 m 2,0,-1
 622 266 l 2,1,2
 622 135 622 135 555.5 60 c 128,-1,3
 489 -15 489 -15 363 -15 c 128,-1,4
 237 -15 237 -15 171 60 c 128,-1,5
 105 135 105 135 105 266 c 2,6,-1
 105 563 l 2,7,8
 105 576 105 576 96 644 c 1,9,-1
 17 656 l 1,10,-1
 22 710 l 1,11,12
 118 705 118 705 138 705 c 2,13,-1
 282 710 l 1,14,-1
 286 651 l 1,15,-1
 207 644 l 1,16,17
 200 592 200 592 200 533 c 2,18,-1
 200 266 l 2,19,20
 200 167 200 167 244 108 c 128,-1,21
 288 49 288 49 373.5 49 c 128,-1,22
 459 49 459 49 504.5 108.5 c 128,-1,23
 550 168 550 168 550 266 c 2,24,-1
 550 563 l 2,25,26
 550 574 550 574 540 644 c 1,27,-1
 462 656 l 1,28,-1
 467 710 l 1,29,30
 553 705 553 705 573 705 c 2,31,-1
 704 710 l 1,32,-1
 708 651 l 1,33,-1
 629 644 l 1,34,35
 622 592 622 592 622 533 c 2,0,-1
484 898 m 1,36,-1
 514 825 l 1,37,38
 382 793 382 793 363 787 c 1,39,-1
 275 750 l 1,40,-1
 255 798 l 1,41,-1
 484 898 l 1,36,-1
EndSplineSet
EndChar

StartChar: Ucircumflex
Encoding: 219 219 155
Width: 727
GlyphClass: 2
Flags: W
LayerCount: 2
Fore
SplineSet
622 533 m 2,0,-1
 622 266 l 2,1,2
 622 135 622 135 555.5 60 c 128,-1,3
 489 -15 489 -15 363 -15 c 128,-1,4
 237 -15 237 -15 171 60 c 128,-1,5
 105 135 105 135 105 266 c 2,6,-1
 105 563 l 2,7,8
 105 576 105 576 96 644 c 1,9,-1
 17 656 l 1,10,-1
 22 710 l 1,11,12
 118 705 118 705 138 705 c 2,13,-1
 282 710 l 1,14,-1
 286 651 l 1,15,-1
 207 644 l 1,16,17
 200 592 200 592 200 533 c 2,18,-1
 200 266 l 2,19,20
 200 167 200 167 244 108 c 128,-1,21
 288 49 288 49 373.5 49 c 128,-1,22
 459 49 459 49 504.5 108.5 c 128,-1,23
 550 168 550 168 550 266 c 2,24,-1
 550 563 l 2,25,26
 550 574 550 574 540 644 c 1,27,-1
 462 656 l 1,28,-1
 467 710 l 1,29,30
 553 705 553 705 573 705 c 2,31,-1
 704 710 l 1,32,-1
 708 651 l 1,33,-1
 629 644 l 1,34,35
 622 592 622 592 622 533 c 2,0,-1
365 893 m 1,36,-1
 539 786 l 1,37,-1
 516 747 l 1,38,-1
 428 788 l 1,39,-1
 365 813 l 1,40,-1
 302 788 l 1,41,-1
 214 747 l 1,42,-1
 191 786 l 1,43,-1
 365 893 l 1,36,-1
EndSplineSet
EndChar

StartChar: Udieresis
Encoding: 220 220 156
Width: 727
GlyphClass: 2
Flags: W
LayerCount: 2
Fore
SplineSet
622 533 m 2,0,-1
 622 266 l 2,1,2
 622 135 622 135 555.5 60 c 128,-1,3
 489 -15 489 -15 363 -15 c 128,-1,4
 237 -15 237 -15 171 60 c 128,-1,5
 105 135 105 135 105 266 c 2,6,-1
 105 563 l 2,7,8
 105 576 105 576 96 644 c 1,9,-1
 17 656 l 1,10,-1
 22 710 l 1,11,12
 118 705 118 705 138 705 c 2,13,-1
 282 710 l 1,14,-1
 286 651 l 1,15,-1
 207 644 l 1,16,17
 200 592 200 592 200 533 c 2,18,-1
 200 266 l 2,19,20
 200 167 200 167 244 108 c 128,-1,21
 288 49 288 49 373.5 49 c 128,-1,22
 459 49 459 49 504.5 108.5 c 128,-1,23
 550 168 550 168 550 266 c 2,24,-1
 550 563 l 2,25,26
 550 574 550 574 540 644 c 1,27,-1
 462 656 l 1,28,-1
 467 710 l 1,29,30
 553 705 553 705 573 705 c 2,31,-1
 704 710 l 1,32,-1
 708 651 l 1,33,-1
 629 644 l 1,34,35
 622 592 622 592 622 533 c 2,0,-1
483 884 m 0,36,37
 537 884 537 884 537 824.5 c 128,-1,38
 537 765 537 765 483 765 c 128,-1,39
 429 765 429 765 429 824 c 0,40,41
 429 852 429 852 443 868 c 128,-1,42
 457 884 457 884 483 884 c 0,36,37
247 884 m 0,43,44
 301 884 301 884 301 824.5 c 128,-1,45
 301 765 301 765 247 765 c 128,-1,46
 193 765 193 765 193 824 c 0,47,48
 193 852 193 852 207 868 c 128,-1,49
 221 884 221 884 247 884 c 0,43,44
EndSplineSet
EndChar

StartChar: Yacute
Encoding: 221 221 157
Width: 663
GlyphClass: 2
Flags: W
LayerCount: 2
Fore
SplineSet
374 167 m 2,0,1
 374 110 374 110 381 61 c 1,2,-1
 471 54 l 1,3,-1
 464 -5 l 1,4,5
 398 0 398 0 318 0 c 1,6,-1
 200 -5 l 1,7,-1
 195 45 l 1,8,-1
 274 61 l 1,9,10
 283 119 283 119 283 137 c 2,11,-1
 283 257 l 1,12,-1
 128 556 l 1,13,14
 109 595 109 595 82 629 c 1,15,-1
 72 641 l 1,16,-1
 6 651 l 1,17,-1
 11 705 l 1,18,-1
 120 705 l 1,19,-1
 267 710 l 1,20,-1
 271 661 l 1,21,-1
 192 641 l 1,22,23
 203 592 203 592 235 533 c 2,24,-1
 336 344 l 1,25,-1
 451 578 l 1,26,-1
 479 641 l 1,27,-1
 403 651 l 1,28,-1
 408 705 l 1,29,-1
 498 705 l 1,30,-1
 641 710 l 1,31,-1
 645 661 l 1,32,-1
 577 644 l 1,33,34
 541 597 541 597 514 545 c 2,35,-1
 374 273 l 1,36,-1
 374 167 l 2,0,1
451 898 m 1,37,-1
 481 825 l 1,38,39
 349 793 349 793 330 787 c 1,40,-1
 242 750 l 1,41,-1
 222 798 l 1,42,-1
 451 898 l 1,37,-1
EndSplineSet
EndChar

StartChar: Thorn
Encoding: 222 222 158
Width: 585
GlyphClass: 2
Flags: W
LayerCount: 2
Fore
SplineSet
332 573 m 0,0,1
 438 573 438 573 496.5 519 c 128,-1,2
 555 465 555 465 555 363.5 c 128,-1,3
 555 262 555 262 484.5 205.5 c 128,-1,4
 414 149 414 149 309 149 c 0,5,6
 277 149 277 149 221 151 c 1,7,8
 222 94 222 94 228 61 c 1,9,-1
 318 54 l 1,10,-1
 311 -5 l 1,11,12
 245 0 245 0 165 0 c 1,13,-1
 47 -5 l 1,14,-1
 42 45 l 1,15,-1
 121 61 l 1,16,17
 130 120 130 120 130 137 c 2,18,-1
 130 568 l 2,19,20
 130 586 130 586 121 644 c 1,21,-1
 44 656 l 1,22,-1
 49 710 l 1,23,24
 145 705 145 705 165 705 c 2,25,-1
 302 710 l 1,26,-1
 306 651 l 1,27,-1
 228 644 l 1,28,29
 224 620 224 620 222 567 c 1,30,31
 298 573 298 573 332 573 c 0,0,1
289 199 m 0,32,33
 369 199 369 199 415 240 c 128,-1,34
 461 281 461 281 461 360 c 128,-1,35
 461 439 461 439 415.5 481 c 128,-1,36
 370 523 370 523 290 523 c 0,37,38
 273 523 273 523 221 517 c 1,39,-1
 221 204 l 1,40,41
 263 199 263 199 289 199 c 0,32,33
EndSplineSet
EndChar

StartChar: germandbls
Encoding: 223 223 159
Width: 587
GlyphClass: 2
Flags: W
LayerCount: 2
Fore
SplineSet
408 442 m 1,0,1
 361 478 361 478 301 478 c 128,-1,2
 241 478 241 478 210.5 440 c 128,-1,3
 180 402 180 402 180 330 c 2,4,-1
 180 133 l 2,5,6
 180 55 180 55 185 0 c 1,7,-1
 123 0 l 1,8,-1
 30 -4 l 1,9,-1
 26 40 l 1,10,-1
 84 50 l 1,11,12
 90 74 90 74 90 112 c 2,13,-1
 90 329 l 2,14,15
 90 432 90 432 145 486 c 128,-1,16
 200 540 200 540 304.5 540 c 128,-1,17
 409 540 409 540 513 476 c 1,18,-1
 380 301 l 1,19,20
 486 258 486 258 527 221 c 128,-1,21
 568 184 568 184 568 134 c 0,22,23
 568 68 568 68 518.5 28 c 128,-1,24
 469 -12 469 -12 387 -12 c 0,25,26
 351 -12 351 -12 318 -2.5 c 128,-1,27
 285 7 285 7 270 16 c 2,28,-1
 254 26 l 1,29,-1
 265 149 l 1,30,-1
 321 145 l 1,31,-1
 321 80 l 1,32,-1
 330 63 l 1,33,34
 354 44 354 44 392 44 c 128,-1,35
 430 44 430 44 451 64 c 128,-1,36
 472 84 472 84 472 120 c 128,-1,37
 472 156 472 156 435 182.5 c 128,-1,38
 398 209 398 209 274 262 c 1,39,-1
 408 442 l 1,0,1
EndSplineSet
EndChar

StartChar: agrave
Encoding: 224 224 160
Width: 537
GlyphClass: 2
Flags: W
LayerCount: 2
Fore
SplineSet
526 44 m 1,0,-1
 522 -1 l 1,1,2
 473 0 473 0 447 0 c 2,3,-1
 320 -4 l 1,4,-1
 317 40 l 1,5,-1
 370 52 l 1,6,-1
 355 117 l 1,7,-1
 340 159 l 1,8,-1
 177 159 l 1,9,-1
 156 92 l 1,10,-1
 149 52 l 1,11,-1
 200 44 l 1,12,-1
 196 -1 l 1,13,14
 152 0 152 0 124 0 c 1,15,-1
 18 -4 l 1,16,-1
 15 40 l 1,17,-1
 59 50 l 1,18,-1
 92 120 l 1,19,-1
 235 529 l 1,20,-1
 294 537 l 1,21,-1
 453 106 l 1,22,-1
 479 51 l 1,23,-1
 526 44 l 1,0,-1
258 401 m 1,24,-1
 193 205 l 1,25,-1
 323 208 l 1,26,-1
 258 401 l 1,24,-1
366 605 m 1,27,-1
 333 564 l 1,28,-1
 260 624 l 1,29,-1
 139 695 l 1,30,-1
 186 755 l 1,31,-1
 366 605 l 1,27,-1
EndSplineSet
EndChar

StartChar: aacute
Encoding: 225 225 161
Width: 537
GlyphClass: 2
Flags: W
LayerCount: 2
Fore
SplineSet
526 44 m 1,0,-1
 522 -1 l 1,1,2
 473 0 473 0 447 0 c 2,3,-1
 320 -4 l 1,4,-1
 317 40 l 1,5,-1
 370 52 l 1,6,-1
 355 117 l 1,7,-1
 340 159 l 1,8,-1
 177 159 l 1,9,-1
 156 92 l 1,10,-1
 149 52 l 1,11,-1
 200 44 l 1,12,-1
 196 -1 l 1,13,14
 152 0 152 0 124 0 c 1,15,-1
 18 -4 l 1,16,-1
 15 40 l 1,17,-1
 59 50 l 1,18,-1
 92 120 l 1,19,-1
 235 529 l 1,20,-1
 294 537 l 1,21,-1
 453 106 l 1,22,-1
 479 51 l 1,23,-1
 526 44 l 1,0,-1
258 401 m 1,24,-1
 193 205 l 1,25,-1
 323 208 l 1,26,-1
 258 401 l 1,24,-1
354 755 m 1,27,-1
 401 695 l 1,28,29
 295 635 295 635 280 624 c 1,30,-1
 207 564 l 1,31,-1
 174 605 l 1,32,-1
 354 755 l 1,27,-1
EndSplineSet
EndChar

StartChar: acircumflex
Encoding: 226 226 162
Width: 537
GlyphClass: 2
Flags: W
LayerCount: 2
Fore
SplineSet
526 44 m 1,0,-1
 522 -1 l 1,1,2
 473 0 473 0 447 0 c 2,3,-1
 320 -4 l 1,4,-1
 317 40 l 1,5,-1
 370 52 l 1,6,-1
 355 117 l 1,7,-1
 340 159 l 1,8,-1
 177 159 l 1,9,-1
 156 92 l 1,10,-1
 149 52 l 1,11,-1
 200 44 l 1,12,-1
 196 -1 l 1,13,14
 152 0 152 0 124 0 c 1,15,-1
 18 -4 l 1,16,-1
 15 40 l 1,17,-1
 59 50 l 1,18,-1
 92 120 l 1,19,-1
 235 529 l 1,20,-1
 294 537 l 1,21,-1
 453 106 l 1,22,-1
 479 51 l 1,23,-1
 526 44 l 1,0,-1
271 765 m 1,24,-1
 437 596 l 1,25,-1
 404 564 l 1,26,-1
 330 625 l 1,27,-1
 271 668 l 1,28,29
 261 661 261 661 246.5 650.5 c 128,-1,30
 232 640 232 640 223.5 634 c 128,-1,31
 215 628 215 628 212 625 c 2,32,-1
 138 564 l 1,33,-1
 105 596 l 1,34,-1
 271 765 l 1,24,-1
258 401 m 1,35,-1
 193 205 l 1,36,-1
 323 208 l 1,37,-1
 258 401 l 1,35,-1
EndSplineSet
EndChar

StartChar: atilde
Encoding: 227 227 163
Width: 537
GlyphClass: 2
Flags: W
LayerCount: 2
Fore
SplineSet
526 44 m 1,0,-1
 522 -1 l 1,1,2
 473 0 473 0 447 0 c 2,3,-1
 320 -4 l 1,4,-1
 317 40 l 1,5,-1
 370 52 l 1,6,-1
 355 117 l 1,7,-1
 340 159 l 1,8,-1
 177 159 l 1,9,-1
 156 92 l 1,10,-1
 149 52 l 1,11,-1
 200 44 l 1,12,-1
 196 -1 l 1,13,14
 152 0 152 0 124 0 c 1,15,-1
 18 -4 l 1,16,-1
 15 40 l 1,17,-1
 59 50 l 1,18,-1
 92 120 l 1,19,-1
 235 529 l 1,20,-1
 294 537 l 1,21,-1
 453 106 l 1,22,-1
 479 51 l 1,23,-1
 526 44 l 1,0,-1
258 401 m 1,24,-1
 193 205 l 1,25,-1
 323 208 l 1,26,-1
 258 401 l 1,24,-1
388 631 m 128,-1,28
 366 604 366 604 347 604 c 128,-1,29
 328 604 328 604 271 624.5 c 128,-1,30
 214 645 214 645 198 645 c 0,31,32
 171 645 171 645 148 604 c 2,33,-1
 141 591 l 1,34,-1
 105 612 l 1,35,36
 110 623 110 623 118 640 c 128,-1,37
 126 657 126 657 147.5 685 c 128,-1,38
 169 713 169 713 188 713 c 128,-1,39
 207 713 207 713 264.5 692.5 c 128,-1,40
 322 672 322 672 338 672 c 0,41,42
 364 672 364 672 388 710 c 1,43,-1
 395 723 l 1,44,-1
 431 702 l 1,45,46
 426 691 426 691 418 674.5 c 128,-1,27
 410 658 410 658 388 631 c 128,-1,28
EndSplineSet
EndChar

StartChar: adieresis
Encoding: 228 228 164
Width: 537
GlyphClass: 2
Flags: W
LayerCount: 2
Fore
SplineSet
526 44 m 1,0,-1
 522 -1 l 1,1,2
 473 0 473 0 447 0 c 2,3,-1
 320 -4 l 1,4,-1
 317 40 l 1,5,-1
 370 52 l 1,6,-1
 355 117 l 1,7,-1
 340 159 l 1,8,-1
 177 159 l 1,9,-1
 156 92 l 1,10,-1
 149 52 l 1,11,-1
 200 44 l 1,12,-1
 196 -1 l 1,13,14
 152 0 152 0 124 0 c 1,15,-1
 18 -4 l 1,16,-1
 15 40 l 1,17,-1
 59 50 l 1,18,-1
 92 120 l 1,19,-1
 235 529 l 1,20,-1
 294 537 l 1,21,-1
 453 106 l 1,22,-1
 479 51 l 1,23,-1
 526 44 l 1,0,-1
258 401 m 1,24,-1
 193 205 l 1,25,-1
 323 208 l 1,26,-1
 258 401 l 1,24,-1
389 713 m 0,27,28
 443 713 443 713 443 653.5 c 128,-1,29
 443 594 443 594 389 594 c 128,-1,30
 335 594 335 594 335 653 c 0,31,32
 335 681 335 681 349 697 c 128,-1,33
 363 713 363 713 389 713 c 0,27,28
153 713 m 0,34,35
 207 713 207 713 207 653.5 c 128,-1,36
 207 594 207 594 153 594 c 128,-1,37
 99 594 99 594 99 653 c 0,38,39
 99 681 99 681 113 697 c 128,-1,40
 127 713 127 713 153 713 c 0,34,35
EndSplineSet
EndChar

StartChar: aring
Encoding: 229 229 165
Width: 537
GlyphClass: 2
Flags: W
LayerCount: 2
Fore
SplineSet
526 44 m 1,0,-1
 522 -1 l 1,1,2
 473 0 473 0 447 0 c 2,3,-1
 320 -4 l 1,4,-1
 317 40 l 1,5,-1
 370 52 l 1,6,-1
 355 117 l 1,7,-1
 340 159 l 1,8,-1
 177 159 l 1,9,-1
 156 92 l 1,10,-1
 149 52 l 1,11,-1
 200 44 l 1,12,-1
 196 -1 l 1,13,14
 152 0 152 0 124 0 c 1,15,-1
 18 -4 l 1,16,-1
 15 40 l 1,17,-1
 59 50 l 1,18,-1
 92 120 l 1,19,-1
 235 529 l 1,20,-1
 294 537 l 1,21,-1
 453 106 l 1,22,-1
 479 51 l 1,23,-1
 526 44 l 1,0,-1
258 401 m 1,24,-1
 193 205 l 1,25,-1
 323 208 l 1,26,-1
 258 401 l 1,24,-1
264 751 m 128,-1,28
 308 751 308 751 330.5 728 c 128,-1,29
 353 705 353 705 353 665.5 c 128,-1,30
 353 626 353 626 330.5 603 c 128,-1,31
 308 580 308 580 264 580 c 128,-1,32
 220 580 220 580 197 603 c 128,-1,33
 174 626 174 626 174 665.5 c 128,-1,34
 174 705 174 705 197 728 c 128,-1,27
 220 751 220 751 264 751 c 128,-1,28
264.5 713 m 128,-1,36
 223 713 223 713 223 665.5 c 128,-1,37
 223 618 223 618 264.5 618 c 128,-1,38
 306 618 306 618 306 665.5 c 128,-1,35
 306 713 306 713 264.5 713 c 128,-1,36
EndSplineSet
EndChar

StartChar: ae
Encoding: 230 230 166
Width: 727
GlyphClass: 2
Flags: W
LayerCount: 2
Fore
SplineSet
537 477 m 2,0,-1
 399 477 l 1,1,2
 402 439 402 439 406 406 c 1,3,-1
 425 294 l 1,4,5
 448 291 448 291 471 291 c 2,6,-1
 517 291 l 1,7,-1
 560 298 l 1,8,-1
 567 347 l 1,9,-1
 607 343 l 1,10,11
 606 298 606 298 606 283 c 2,12,-1
 608 196 l 1,13,-1
 567 192 l 1,14,-1
 560 240 l 1,15,16
 517 244 517 244 501 244 c 2,17,-1
 472 244 l 2,18,19
 461 244 461 244 433 242 c 1,20,-1
 450 136 l 1,21,-1
 468 51 l 1,22,-1
 558 51 l 2,23,24
 586 51 586 51 623 58 c 1,25,26
 638 80 638 80 639 87 c 0,27,28
 650 129 650 129 650 135 c 1,29,-1
 697 131 l 1,30,-1
 685 11 l 1,31,-1
 671 -3 l 1,32,33
 597 0 597 0 582 0 c 2,34,-1
 398 0 l 1,35,-1
 315 -4 l 1,36,-1
 312 40 l 1,37,-1
 372 50 l 1,38,39
 372 78 372 78 369 98 c 2,40,-1
 357 168 l 1,41,-1
 189 168 l 1,42,-1
 143 80 l 1,43,-1
 133 50 l 1,44,-1
 193 45 l 1,45,-1
 188 -4 l 1,46,47
 145 0 145 0 82 0 c 1,48,-1
 8 -4 l 1,49,-1
 4 40 l 1,50,-1
 49 50 l 1,51,52
 87 101 87 101 96 117 c 2,53,-1
 286 477 l 1,54,-1
 228 486 l 1,55,-1
 232 533 l 1,56,57
 296 529 296 529 319 529 c 2,58,-1
 560 529 l 1,59,-1
 649 536 l 1,60,-1
 664 523 l 1,61,-1
 669 414 l 1,62,-1
 621 410 l 1,63,64
 616 440 616 440 614 448 c 128,-1,65
 612 456 612 456 600 474 c 1,66,67
 549 477 549 477 537 477 c 2,0,-1
214 215 m 1,68,-1
 350 217 l 1,69,-1
 316 410 l 1,70,-1
 214 215 l 1,68,-1
EndSplineSet
EndChar

StartChar: ccedilla
Encoding: 231 231 167
Width: 500
GlyphClass: 2
Flags: W
LayerCount: 2
Fore
SplineSet
411 -146 m 128,-1,1
 411 -186 411 -186 380 -210.5 c 128,-1,2
 349 -235 349 -235 304 -235 c 128,-1,3
 259 -235 259 -235 221 -217 c 1,4,-1
 234 -182 l 1,5,6
 269 -193 269 -193 292.5 -193 c 128,-1,7
 316 -193 316 -193 331 -180.5 c 128,-1,8
 346 -168 346 -168 346 -146 c 0,9,10
 346 -103 346 -103 299 -103 c 1,11,-1
 278 -104 l 1,12,-1
 267 -94 l 1,13,-1
 274 -10 l 1,14,15
 159 -4 159 -4 98.5 69.5 c 128,-1,16
 38 143 38 143 38 267 c 128,-1,17
 38 391 38 391 104 465.5 c 128,-1,18
 170 540 170 540 294 540 c 0,19,20
 355 540 355 540 457 515 c 1,21,-1
 449 395 l 1,22,-1
 398 398 l 1,23,-1
 398 437 l 2,24,25
 398 446 398 446 388 472 c 1,26,27
 334 486 334 486 294 486 c 0,28,29
 217 486 217 486 177.5 424.5 c 128,-1,30
 138 363 138 363 138 264.5 c 128,-1,31
 138 166 138 166 177 104 c 128,-1,32
 216 42 216 42 293 42 c 0,33,34
 339 42 339 42 396 57 c 1,35,36
 407 90 407 90 407 97 c 2,37,-1
 409 132 l 1,38,-1
 459 134 l 1,39,-1
 464 14 l 1,40,41
 387 -6 387 -6 320 -10 c 1,42,-1
 310 -59 l 1,43,44
 355 -60 355 -60 383 -83 c 128,-1,0
 411 -106 411 -106 411 -146 c 128,-1,1
EndSplineSet
EndChar

StartChar: egrave
Encoding: 232 232 168
Width: 484
GlyphClass: 2
Flags: W
LayerCount: 2
Fore
SplineSet
200 479 m 1,0,-1
 195 405 l 1,1,-1
 195 298 l 1,2,3
 207 297 207 297 224 297 c 2,4,-1
 277 297 l 1,5,-1
 320 303 l 1,6,-1
 327 352 l 1,7,-1
 367 349 l 1,8,9
 366 301 366 301 366 286 c 2,10,-1
 368 199 l 1,11,-1
 327 194 l 1,12,-1
 320 243 l 1,13,14
 277 247 277 247 261 247 c 2,15,-1
 226 247 l 2,16,17
 206 247 206 247 195 245 c 1,18,-1
 195 133 l 2,19,20
 195 88 195 88 200 51 c 1,21,-1
 307 51 l 2,22,23
 335 51 335 51 372 58 c 1,24,25
 386 78 386 78 388 87 c 0,26,27
 398 129 398 129 399 135 c 1,28,-1
 446 131 l 1,29,-1
 434 11 l 1,30,-1
 419 -3 l 1,31,32
 346 0 346 0 330 0 c 2,33,-1
 134 0 l 1,34,-1
 46 -4 l 1,35,-1
 43 40 l 1,36,-1
 101 50 l 1,37,38
 108 82 108 82 108 110 c 2,39,-1
 108 410 l 2,40,41
 108 435 108 435 101 477 c 1,42,-1
 44 486 l 1,43,-1
 48 533 l 1,44,45
 114 529 114 529 134 529 c 2,46,-1
 320 529 l 1,47,-1
 409 536 l 1,48,-1
 424 523 l 1,49,-1
 429 415 l 1,50,-1
 380 411 l 1,51,52
 378 437 378 437 372 453 c 1,53,54
 372 459 372 459 359 476 c 1,55,56
 311 479 311 479 297 479 c 2,57,-1
 200 479 l 1,0,-1
336 605 m 1,58,-1
 303 564 l 1,59,-1
 230 624 l 1,60,-1
 109 695 l 1,61,-1
 156 755 l 1,62,-1
 336 605 l 1,58,-1
EndSplineSet
EndChar

StartChar: eacute
Encoding: 233 233 169
Width: 484
GlyphClass: 2
Flags: W
LayerCount: 2
Fore
SplineSet
200 479 m 1,0,-1
 195 405 l 1,1,-1
 195 298 l 1,2,3
 207 297 207 297 224 297 c 2,4,-1
 277 297 l 1,5,-1
 320 303 l 1,6,-1
 327 352 l 1,7,-1
 367 349 l 1,8,9
 366 301 366 301 366 286 c 2,10,-1
 368 199 l 1,11,-1
 327 194 l 1,12,-1
 320 243 l 1,13,14
 277 247 277 247 261 247 c 2,15,-1
 226 247 l 2,16,17
 206 247 206 247 195 245 c 1,18,-1
 195 133 l 2,19,20
 195 88 195 88 200 51 c 1,21,-1
 307 51 l 2,22,23
 335 51 335 51 372 58 c 1,24,25
 386 78 386 78 388 87 c 0,26,27
 398 129 398 129 399 135 c 1,28,-1
 446 131 l 1,29,-1
 434 11 l 1,30,-1
 419 -3 l 1,31,32
 346 0 346 0 330 0 c 2,33,-1
 134 0 l 1,34,-1
 46 -4 l 1,35,-1
 43 40 l 1,36,-1
 101 50 l 1,37,38
 108 82 108 82 108 110 c 2,39,-1
 108 410 l 2,40,41
 108 435 108 435 101 477 c 1,42,-1
 44 486 l 1,43,-1
 48 533 l 1,44,45
 114 529 114 529 134 529 c 2,46,-1
 320 529 l 1,47,-1
 409 536 l 1,48,-1
 424 523 l 1,49,-1
 429 415 l 1,50,-1
 380 411 l 1,51,52
 378 437 378 437 372 453 c 1,53,54
 372 459 372 459 359 476 c 1,55,56
 311 479 311 479 297 479 c 2,57,-1
 200 479 l 1,0,-1
324 755 m 1,58,-1
 371 695 l 1,59,60
 265 635 265 635 250 624 c 1,61,-1
 177 564 l 1,62,-1
 144 605 l 1,63,-1
 324 755 l 1,58,-1
EndSplineSet
EndChar

StartChar: ecircumflex
Encoding: 234 234 170
Width: 484
GlyphClass: 2
Flags: W
LayerCount: 2
Fore
SplineSet
200 479 m 1,0,-1
 195 405 l 1,1,-1
 195 298 l 1,2,3
 207 297 207 297 224 297 c 2,4,-1
 277 297 l 1,5,-1
 320 303 l 1,6,-1
 327 352 l 1,7,-1
 367 349 l 1,8,9
 366 301 366 301 366 286 c 2,10,-1
 368 199 l 1,11,-1
 327 194 l 1,12,-1
 320 243 l 1,13,14
 277 247 277 247 261 247 c 2,15,-1
 226 247 l 2,16,17
 206 247 206 247 195 245 c 1,18,-1
 195 133 l 2,19,20
 195 88 195 88 200 51 c 1,21,-1
 307 51 l 2,22,23
 335 51 335 51 372 58 c 1,24,25
 386 78 386 78 388 87 c 0,26,27
 398 129 398 129 399 135 c 1,28,-1
 446 131 l 1,29,-1
 434 11 l 1,30,-1
 419 -3 l 1,31,32
 346 0 346 0 330 0 c 2,33,-1
 134 0 l 1,34,-1
 46 -4 l 1,35,-1
 43 40 l 1,36,-1
 101 50 l 1,37,38
 108 82 108 82 108 110 c 2,39,-1
 108 410 l 2,40,41
 108 435 108 435 101 477 c 1,42,-1
 44 486 l 1,43,-1
 48 533 l 1,44,45
 114 529 114 529 134 529 c 2,46,-1
 320 529 l 1,47,-1
 409 536 l 1,48,-1
 424 523 l 1,49,-1
 429 415 l 1,50,-1
 380 411 l 1,51,52
 378 437 378 437 372 453 c 1,53,54
 372 459 372 459 359 476 c 1,55,56
 311 479 311 479 297 479 c 2,57,-1
 200 479 l 1,0,-1
241 765 m 1,58,-1
 407 596 l 1,59,-1
 374 564 l 1,60,-1
 300 625 l 1,61,-1
 241 668 l 1,62,63
 231 661 231 661 216.5 650.5 c 128,-1,64
 202 640 202 640 193.5 634 c 128,-1,65
 185 628 185 628 182 625 c 2,66,-1
 108 564 l 1,67,-1
 75 596 l 1,68,-1
 241 765 l 1,58,-1
EndSplineSet
EndChar

StartChar: edieresis
Encoding: 235 235 171
Width: 484
GlyphClass: 2
Flags: W
LayerCount: 2
Fore
SplineSet
200 479 m 1,0,-1
 195 405 l 1,1,-1
 195 298 l 1,2,3
 207 297 207 297 224 297 c 2,4,-1
 277 297 l 1,5,-1
 320 303 l 1,6,-1
 327 352 l 1,7,-1
 367 349 l 1,8,9
 366 301 366 301 366 286 c 2,10,-1
 368 199 l 1,11,-1
 327 194 l 1,12,-1
 320 243 l 1,13,14
 277 247 277 247 261 247 c 2,15,-1
 226 247 l 2,16,17
 206 247 206 247 195 245 c 1,18,-1
 195 133 l 2,19,20
 195 88 195 88 200 51 c 1,21,-1
 307 51 l 2,22,23
 335 51 335 51 372 58 c 1,24,25
 386 78 386 78 388 87 c 0,26,27
 398 129 398 129 399 135 c 1,28,-1
 446 131 l 1,29,-1
 434 11 l 1,30,-1
 419 -3 l 1,31,32
 346 0 346 0 330 0 c 2,33,-1
 134 0 l 1,34,-1
 46 -4 l 1,35,-1
 43 40 l 1,36,-1
 101 50 l 1,37,38
 108 82 108 82 108 110 c 2,39,-1
 108 410 l 2,40,41
 108 435 108 435 101 477 c 1,42,-1
 44 486 l 1,43,-1
 48 533 l 1,44,45
 114 529 114 529 134 529 c 2,46,-1
 320 529 l 1,47,-1
 409 536 l 1,48,-1
 424 523 l 1,49,-1
 429 415 l 1,50,-1
 380 411 l 1,51,52
 378 437 378 437 372 453 c 1,53,54
 372 459 372 459 359 476 c 1,55,56
 311 479 311 479 297 479 c 2,57,-1
 200 479 l 1,0,-1
359 713 m 0,58,59
 413 713 413 713 413 653.5 c 128,-1,60
 413 594 413 594 359 594 c 128,-1,61
 305 594 305 594 305 653 c 0,62,63
 305 681 305 681 319 697 c 128,-1,64
 333 713 333 713 359 713 c 0,58,59
123 713 m 0,65,66
 177 713 177 713 177 653.5 c 128,-1,67
 177 594 177 594 123 594 c 128,-1,68
 69 594 69 594 69 653 c 0,69,70
 69 681 69 681 83 697 c 128,-1,71
 97 713 97 713 123 713 c 0,65,66
EndSplineSet
EndChar

StartChar: igrave
Encoding: 236 236 172
Width: 311
GlyphClass: 2
Flags: W
LayerCount: 2
Fore
SplineSet
185 405 m 2,0,-1
 185 133 l 2,1,2
 185 83 185 83 191 50 c 1,3,-1
 254 45 l 1,4,-1
 249 -4 l 1,5,6
 194 0 194 0 123 0 c 1,7,-1
 36 -4 l 1,8,-1
 32 40 l 1,9,-1
 90 50 l 1,10,11
 97 82 97 82 97 110 c 2,12,-1
 97 410 l 2,13,14
 97 438 97 438 90 477 c 1,15,-1
 33 486 l 1,16,-1
 37 533 l 1,17,18
 101 529 101 529 124 529 c 2,19,-1
 245 533 l 1,20,-1
 248 482 l 1,21,-1
 191 477 l 1,22,23
 185 444 185 444 185 405 c 2,0,-1
236 605 m 1,24,-1
 203 564 l 1,25,-1
 130 624 l 1,26,-1
 9 695 l 1,27,-1
 56 755 l 1,28,-1
 236 605 l 1,24,-1
EndSplineSet
EndChar

StartChar: iacute
Encoding: 237 237 173
Width: 311
GlyphClass: 2
Flags: W
LayerCount: 2
Fore
SplineSet
196 405 m 2,0,-1
 196 133 l 2,1,2
 196 83 196 83 202 50 c 1,3,-1
 265 45 l 1,4,-1
 260 -4 l 1,5,6
 205 0 205 0 134 0 c 1,7,-1
 47 -4 l 1,8,-1
 43 40 l 1,9,-1
 101 50 l 1,10,11
 108 82 108 82 108 110 c 2,12,-1
 108 410 l 2,13,14
 108 438 108 438 101 477 c 1,15,-1
 44 486 l 1,16,-1
 48 533 l 1,17,18
 112 529 112 529 135 529 c 2,19,-1
 256 533 l 1,20,-1
 259 482 l 1,21,-1
 202 477 l 1,22,23
 196 444 196 444 196 405 c 2,0,-1
235 755 m 1,24,-1
 282 695 l 1,25,26
 176 635 176 635 161 624 c 1,27,-1
 88 564 l 1,28,-1
 55 605 l 1,29,-1
 235 755 l 1,24,-1
EndSplineSet
EndChar

StartChar: icircumflex
Encoding: 238 238 174
Width: 311
GlyphClass: 2
Flags: W
LayerCount: 2
Fore
SplineSet
192 405 m 2,0,-1
 192 133 l 2,1,2
 192 83 192 83 198 50 c 1,3,-1
 261 45 l 1,4,-1
 256 -4 l 1,5,6
 201 0 201 0 130 0 c 1,7,-1
 43 -4 l 1,8,-1
 39 40 l 1,9,-1
 97 50 l 1,10,11
 104 82 104 82 104 110 c 2,12,-1
 104 410 l 2,13,14
 104 438 104 438 97 477 c 1,15,-1
 40 486 l 1,16,-1
 44 533 l 1,17,18
 108 529 108 529 131 529 c 2,19,-1
 252 533 l 1,20,-1
 255 482 l 1,21,-1
 198 477 l 1,22,23
 192 444 192 444 192 405 c 2,0,-1
148 765 m 1,24,-1
 314 596 l 1,25,-1
 281 564 l 1,26,-1
 207 625 l 1,27,-1
 148 668 l 1,28,29
 138 661 138 661 123.5 650.5 c 128,-1,30
 109 640 109 640 100.5 634 c 128,-1,31
 92 628 92 628 89 625 c 2,32,-1
 15 564 l 1,33,-1
 -18 596 l 1,34,-1
 148 765 l 1,24,-1
EndSplineSet
EndChar

StartChar: idieresis
Encoding: 239 239 175
Width: 311
GlyphClass: 2
Flags: W
LayerCount: 2
Fore
SplineSet
200 405 m 2,0,-1
 200 133 l 2,1,2
 200 83 200 83 206 50 c 1,3,-1
 269 45 l 1,4,-1
 264 -4 l 1,5,6
 209 0 209 0 138 0 c 1,7,-1
 51 -4 l 1,8,-1
 47 40 l 1,9,-1
 105 50 l 1,10,11
 112 82 112 82 112 110 c 2,12,-1
 112 410 l 2,13,14
 112 438 112 438 105 477 c 1,15,-1
 48 486 l 1,16,-1
 52 533 l 1,17,18
 116 529 116 529 139 529 c 2,19,-1
 260 533 l 1,20,-1
 263 482 l 1,21,-1
 206 477 l 1,22,23
 200 444 200 444 200 405 c 2,0,-1
244 713 m 0,24,25
 298 713 298 713 298 653.5 c 128,-1,26
 298 594 298 594 244 594 c 128,-1,27
 190 594 190 594 190 653 c 0,28,29
 190 681 190 681 204 697 c 128,-1,30
 218 713 218 713 244 713 c 0,24,25
68 713 m 0,31,32
 122 713 122 713 122 653.5 c 128,-1,33
 122 594 122 594 68 594 c 128,-1,34
 14 594 14 594 14 653 c 0,35,36
 14 681 14 681 28 697 c 128,-1,37
 42 713 42 713 68 713 c 0,31,32
EndSplineSet
EndChar

StartChar: eth
Encoding: 240 240 176
Width: 571
GlyphClass: 2
Flags: W
LayerCount: 2
Fore
SplineSet
122 529 m 1,0,-1
 274 536 l 1,1,2
 404 536 404 536 474.5 463 c 128,-1,3
 545 390 545 390 545 266.5 c 128,-1,4
 545 143 545 143 473 69 c 128,-1,5
 401 -5 401 -5 274 -5 c 1,6,-1
 132 0 l 1,7,-1
 44 -4 l 1,8,-1
 40 40 l 1,9,-1
 99 50 l 1,10,11
 106 92 106 92 106 110 c 2,12,-1
 106 248 l 1,13,-1
 42 248 l 1,14,-1
 42 289 l 1,15,-1
 106 289 l 1,16,-1
 106 410 l 2,17,18
 106 435 106 435 99 477 c 1,19,-1
 42 486 l 1,20,-1
 45 533 l 1,21,22
 93 530 93 530 122 529 c 1,0,-1
193 248 m 1,23,-1
 193 133 l 2,24,25
 193 79 193 79 198 49 c 1,26,27
 230 47 230 47 270 47 c 0,28,29
 360 47 360 47 405 107.5 c 128,-1,30
 450 168 450 168 450 264.5 c 128,-1,31
 450 361 450 361 405 423 c 128,-1,32
 360 485 360 485 271 485 c 0,33,34
 230 485 230 485 198 480 c 1,35,36
 193 445 193 445 193 405 c 2,37,-1
 193 289 l 1,38,-1
 293 289 l 1,39,-1
 289 248 l 1,40,-1
 193 248 l 1,23,-1
EndSplineSet
EndChar

StartChar: ntilde
Encoding: 241 241 177
Width: 622
GlyphClass: 2
Flags: W
LayerCount: 2
Fore
SplineSet
101 50 m 1,0,-1
 108 110 l 1,1,-1
 108 410 l 2,2,3
 108 428 108 428 104.5 451.5 c 128,-1,4
 101 475 101 475 101 477 c 1,5,-1
 42 486 l 1,6,-1
 46 533 l 1,7,8
 110 529 110 529 133 529 c 2,9,-1
 182 529 l 1,10,-1
 197 514 l 1,11,12
 259 416 259 416 270 400 c 2,13,-1
 464 142 l 1,14,-1
 464 405 l 2,15,16
 464 431 464 431 457 476 c 1,17,-1
 399 482 l 1,18,-1
 403 531 l 1,19,-1
 472 529 l 1,20,-1
 596 533 l 1,21,-1
 600 485 l 1,22,-1
 542 476 l 1,23,24
 532 433 532 433 532 400 c 2,25,-1
 532 193 l 1,26,-1
 531 -3 l 1,27,-1
 465 -3 l 1,28,-1
 175 386 l 1,29,-1
 175 133 l 2,30,31
 175 110 175 110 181 50 c 1,32,-1
 240 45 l 1,33,-1
 236 -4 l 1,34,35
 199 0 199 0 129 0 c 1,36,-1
 46 -4 l 1,37,-1
 43 40 l 1,38,-1
 101 50 l 1,0,-1
426 631 m 128,-1,40
 404 604 404 604 385 604 c 128,-1,41
 366 604 366 604 309 624.5 c 128,-1,42
 252 645 252 645 236 645 c 0,43,44
 209 645 209 645 186 604 c 2,45,-1
 179 591 l 1,46,-1
 143 612 l 1,47,48
 148 623 148 623 156 640 c 128,-1,49
 164 657 164 657 185.5 685 c 128,-1,50
 207 713 207 713 226 713 c 128,-1,51
 245 713 245 713 302.5 692.5 c 128,-1,52
 360 672 360 672 376 672 c 0,53,54
 402 672 402 672 426 710 c 1,55,-1
 433 723 l 1,56,-1
 469 702 l 1,57,58
 464 691 464 691 456 674.5 c 128,-1,39
 448 658 448 658 426 631 c 128,-1,40
EndSplineSet
EndChar

StartChar: ograve
Encoding: 242 242 178
Width: 602
GlyphClass: 2
Flags: W
LayerCount: 2
Fore
SplineSet
495 466 m 128,-1,1
 564 391 564 391 564 264.5 c 128,-1,2
 564 138 564 138 495 63 c 128,-1,3
 426 -12 426 -12 301 -12 c 128,-1,4
 176 -12 176 -12 107 63 c 128,-1,5
 38 138 38 138 38 264.5 c 128,-1,6
 38 391 38 391 107 466 c 128,-1,7
 176 541 176 541 301 541 c 128,-1,0
 426 541 426 541 495 466 c 128,-1,1
180.5 429 m 128,-1,9
 140 369 140 369 140 264.5 c 128,-1,10
 140 160 140 160 181 100 c 128,-1,11
 222 40 222 40 301 40 c 128,-1,12
 380 40 380 40 421 100 c 128,-1,13
 462 160 462 160 462 264.5 c 128,-1,14
 462 369 462 369 421.5 429 c 128,-1,15
 381 489 381 489 301 489 c 128,-1,8
 221 489 221 489 180.5 429 c 128,-1,9
396 605 m 1,16,-1
 363 564 l 1,17,-1
 290 624 l 1,18,-1
 169 695 l 1,19,-1
 216 755 l 1,20,-1
 396 605 l 1,16,-1
EndSplineSet
EndChar

StartChar: oacute
Encoding: 243 243 179
Width: 602
GlyphClass: 2
Flags: W
LayerCount: 2
Fore
SplineSet
495 466 m 128,-1,1
 564 391 564 391 564 264.5 c 128,-1,2
 564 138 564 138 495 63 c 128,-1,3
 426 -12 426 -12 301 -12 c 128,-1,4
 176 -12 176 -12 107 63 c 128,-1,5
 38 138 38 138 38 264.5 c 128,-1,6
 38 391 38 391 107 466 c 128,-1,7
 176 541 176 541 301 541 c 128,-1,0
 426 541 426 541 495 466 c 128,-1,1
180.5 429 m 128,-1,9
 140 369 140 369 140 264.5 c 128,-1,10
 140 160 140 160 181 100 c 128,-1,11
 222 40 222 40 301 40 c 128,-1,12
 380 40 380 40 421 100 c 128,-1,13
 462 160 462 160 462 264.5 c 128,-1,14
 462 369 462 369 421.5 429 c 128,-1,15
 381 489 381 489 301 489 c 128,-1,8
 221 489 221 489 180.5 429 c 128,-1,9
384 755 m 1,16,-1
 431 695 l 1,17,18
 325 635 325 635 310 624 c 1,19,-1
 237 564 l 1,20,-1
 204 605 l 1,21,-1
 384 755 l 1,16,-1
EndSplineSet
EndChar

StartChar: ocircumflex
Encoding: 244 244 180
Width: 602
GlyphClass: 2
Flags: W
LayerCount: 2
Fore
SplineSet
495 466 m 128,-1,1
 564 391 564 391 564 264.5 c 128,-1,2
 564 138 564 138 495 63 c 128,-1,3
 426 -12 426 -12 301 -12 c 128,-1,4
 176 -12 176 -12 107 63 c 128,-1,5
 38 138 38 138 38 264.5 c 128,-1,6
 38 391 38 391 107 466 c 128,-1,7
 176 541 176 541 301 541 c 128,-1,0
 426 541 426 541 495 466 c 128,-1,1
180.5 429 m 128,-1,9
 140 369 140 369 140 264.5 c 128,-1,10
 140 160 140 160 181 100 c 128,-1,11
 222 40 222 40 301 40 c 128,-1,12
 380 40 380 40 421 100 c 128,-1,13
 462 160 462 160 462 264.5 c 128,-1,14
 462 369 462 369 421.5 429 c 128,-1,15
 381 489 381 489 301 489 c 128,-1,8
 221 489 221 489 180.5 429 c 128,-1,9
300 765 m 1,16,-1
 466 596 l 1,17,-1
 433 564 l 1,18,-1
 359 625 l 1,19,-1
 300 668 l 1,20,21
 290 661 290 661 275.5 650.5 c 128,-1,22
 261 640 261 640 252.5 634 c 128,-1,23
 244 628 244 628 241 625 c 2,24,-1
 167 564 l 1,25,-1
 134 596 l 1,26,-1
 300 765 l 1,16,-1
EndSplineSet
EndChar

StartChar: otilde
Encoding: 245 245 181
Width: 602
GlyphClass: 2
Flags: W
LayerCount: 2
Fore
SplineSet
495 466 m 128,-1,1
 564 391 564 391 564 264.5 c 128,-1,2
 564 138 564 138 495 63 c 128,-1,3
 426 -12 426 -12 301 -12 c 128,-1,4
 176 -12 176 -12 107 63 c 128,-1,5
 38 138 38 138 38 264.5 c 128,-1,6
 38 391 38 391 107 466 c 128,-1,7
 176 541 176 541 301 541 c 128,-1,0
 426 541 426 541 495 466 c 128,-1,1
180.5 429 m 128,-1,9
 140 369 140 369 140 264.5 c 128,-1,10
 140 160 140 160 181 100 c 128,-1,11
 222 40 222 40 301 40 c 128,-1,12
 380 40 380 40 421 100 c 128,-1,13
 462 160 462 160 462 264.5 c 128,-1,14
 462 369 462 369 421.5 429 c 128,-1,15
 381 489 381 489 301 489 c 128,-1,8
 221 489 221 489 180.5 429 c 128,-1,9
427 631 m 128,-1,17
 405 604 405 604 386 604 c 128,-1,18
 367 604 367 604 310 624.5 c 128,-1,19
 253 645 253 645 237 645 c 0,20,21
 210 645 210 645 188 604 c 1,22,-1
 180 591 l 1,23,-1
 144 612 l 1,24,25
 149 623 149 623 157 640 c 128,-1,26
 165 657 165 657 186.5 685 c 128,-1,27
 208 713 208 713 227 713 c 128,-1,28
 246 713 246 713 303.5 692.5 c 128,-1,29
 361 672 361 672 377 672 c 128,-1,30
 393 672 393 672 406.5 685 c 128,-1,31
 420 698 420 698 427 710 c 2,32,-1
 434 723 l 1,33,-1
 470 702 l 1,34,35
 465 691 465 691 457 674.5 c 128,-1,16
 449 658 449 658 427 631 c 128,-1,17
EndSplineSet
EndChar

StartChar: odieresis
Encoding: 246 246 182
Width: 602
GlyphClass: 2
Flags: W
LayerCount: 2
Fore
SplineSet
495 466 m 128,-1,1
 564 391 564 391 564 264.5 c 128,-1,2
 564 138 564 138 495 63 c 128,-1,3
 426 -12 426 -12 301 -12 c 128,-1,4
 176 -12 176 -12 107 63 c 128,-1,5
 38 138 38 138 38 264.5 c 128,-1,6
 38 391 38 391 107 466 c 128,-1,7
 176 541 176 541 301 541 c 128,-1,0
 426 541 426 541 495 466 c 128,-1,1
180.5 429 m 128,-1,9
 140 369 140 369 140 264.5 c 128,-1,10
 140 160 140 160 181 100 c 128,-1,11
 222 40 222 40 301 40 c 128,-1,12
 380 40 380 40 421 100 c 128,-1,13
 462 160 462 160 462 264.5 c 128,-1,14
 462 369 462 369 421.5 429 c 128,-1,15
 381 489 381 489 301 489 c 128,-1,8
 221 489 221 489 180.5 429 c 128,-1,9
419 713 m 0,16,17
 473 713 473 713 473 653.5 c 128,-1,18
 473 594 473 594 419 594 c 128,-1,19
 365 594 365 594 365 653 c 0,20,21
 365 681 365 681 379 697 c 128,-1,22
 393 713 393 713 419 713 c 0,16,17
183 713 m 0,23,24
 237 713 237 713 237 653.5 c 128,-1,25
 237 594 237 594 183 594 c 128,-1,26
 129 594 129 594 129 653 c 0,27,28
 129 681 129 681 143 697 c 128,-1,29
 157 713 157 713 183 713 c 0,23,24
EndSplineSet
EndChar

StartChar: divide
Encoding: 247 247 183
Width: 560
GlyphClass: 2
Flags: W
LayerCount: 2
Fore
SplineSet
507 213 m 1,0,-1
 52 213 l 1,1,-1
 52 279 l 1,2,-1
 507 284 l 1,3,-1
 507 213 l 1,0,-1
287 488 m 128,-1,5
 315 488 315 488 330.5 471 c 128,-1,6
 346 454 346 454 346 424 c 128,-1,7
 346 394 346 394 330.5 376.5 c 128,-1,8
 315 359 315 359 287 359 c 128,-1,9
 259 359 259 359 243.5 376.5 c 128,-1,10
 228 394 228 394 228 423 c 128,-1,11
 228 452 228 452 243.5 470 c 128,-1,4
 259 488 259 488 287 488 c 128,-1,5
287 135 m 128,-1,13
 315 135 315 135 330.5 118 c 128,-1,14
 346 101 346 101 346 71 c 128,-1,15
 346 41 346 41 330.5 23.5 c 128,-1,16
 315 6 315 6 287 6 c 128,-1,17
 259 6 259 6 243.5 23.5 c 128,-1,18
 228 41 228 41 228 70 c 128,-1,19
 228 99 228 99 243.5 117 c 128,-1,12
 259 135 259 135 287 135 c 128,-1,13
EndSplineSet
EndChar

StartChar: oslash
Encoding: 248 248 184
Width: 601
GlyphClass: 2
Flags: W
LayerCount: 2
Fore
SplineSet
565 264 m 0,0,1
 565 138 565 138 496 63 c 128,-1,2
 427 -12 427 -12 302 -12 c 0,3,4
 236 -12 236 -12 186 9 c 1,5,-1
 125 -102 l 1,6,-1
 89 -83 l 1,7,-1
 150 28 l 1,8,9
 38 99 38 99 38 264 c 0,10,11
 38 391 38 391 107.5 466 c 128,-1,12
 177 541 177 541 302 541 c 0,13,14
 366 541 366 541 419 519 c 1,15,-1
 479 629 l 1,16,-1
 516 610 l 1,17,-1
 455 499 l 1,18,19
 565 429 565 429 565 264 c 0,0,1
181.5 429 m 128,-1,21
 141 369 141 369 141 260 c 128,-1,22
 141 151 141 151 186 94 c 1,23,-1
 388 463 l 1,24,25
 353 489 353 489 302 489 c 0,26,20
 222 489 222 489 181.5 429 c 128,-1,21
422 100 m 128,-1,28
 463 160 463 160 463 267 c 128,-1,29
 463 374 463 374 419 433 c 1,30,-1
 216 64 l 1,31,32
 250 40 250 40 302 40 c 0,33,27
 381 40 381 40 422 100 c 128,-1,28
EndSplineSet
EndChar

StartChar: ugrave
Encoding: 249 249 185
Width: 598
GlyphClass: 2
Flags: W
LayerCount: 2
Fore
SplineSet
437 408 m 1,0,-1
 430 477 l 1,1,-1
 372 486 l 1,2,-1
 376 533 l 1,3,4
 435 529 435 529 457 529 c 2,5,-1
 570 533 l 1,6,-1
 573 482 l 1,7,-1
 515 477 l 1,8,9
 509 444 509 444 509 402 c 2,10,-1
 509 200 l 2,11,12
 509 102 509 102 455 45.5 c 128,-1,13
 401 -11 401 -11 299 -11 c 128,-1,14
 197 -11 197 -11 143.5 45.5 c 128,-1,15
 90 102 90 102 90 200 c 2,16,-1
 90 408 l 1,17,-1
 83 477 l 1,18,-1
 25 486 l 1,19,-1
 28 533 l 1,20,21
 92 529 92 529 115 529 c 2,22,-1
 241 533 l 1,23,-1
 245 482 l 1,24,-1
 186 477 l 1,25,26
 180 447 180 447 180 402 c 2,27,-1
 180 198 l 2,28,29
 180 132 180 132 213 91.5 c 128,-1,30
 246 51 246 51 309.5 51 c 128,-1,31
 373 51 373 51 405 90.5 c 128,-1,32
 437 130 437 130 437 198 c 2,33,-1
 437 408 l 1,0,-1
395 605 m 1,34,-1
 362 564 l 1,35,-1
 289 624 l 1,36,-1
 168 695 l 1,37,-1
 215 755 l 1,38,-1
 395 605 l 1,34,-1
EndSplineSet
EndChar

StartChar: uacute
Encoding: 250 250 186
Width: 598
GlyphClass: 2
Flags: W
LayerCount: 2
Fore
SplineSet
437 408 m 1,0,-1
 430 477 l 1,1,-1
 372 486 l 1,2,-1
 376 533 l 1,3,4
 435 529 435 529 457 529 c 2,5,-1
 570 533 l 1,6,-1
 573 482 l 1,7,-1
 515 477 l 1,8,9
 509 444 509 444 509 402 c 2,10,-1
 509 200 l 2,11,12
 509 102 509 102 455 45.5 c 128,-1,13
 401 -11 401 -11 299 -11 c 128,-1,14
 197 -11 197 -11 143.5 45.5 c 128,-1,15
 90 102 90 102 90 200 c 2,16,-1
 90 408 l 1,17,-1
 83 477 l 1,18,-1
 25 486 l 1,19,-1
 28 533 l 1,20,21
 92 529 92 529 115 529 c 2,22,-1
 241 533 l 1,23,-1
 245 482 l 1,24,-1
 186 477 l 1,25,26
 180 447 180 447 180 402 c 2,27,-1
 180 198 l 2,28,29
 180 132 180 132 213 91.5 c 128,-1,30
 246 51 246 51 309.5 51 c 128,-1,31
 373 51 373 51 405 90.5 c 128,-1,32
 437 130 437 130 437 198 c 2,33,-1
 437 408 l 1,0,-1
383 755 m 1,34,-1
 430 695 l 1,35,36
 324 635 324 635 309 624 c 1,37,-1
 236 564 l 1,38,-1
 203 605 l 1,39,-1
 383 755 l 1,34,-1
EndSplineSet
EndChar

StartChar: ucircumflex
Encoding: 251 251 187
Width: 598
GlyphClass: 2
Flags: W
LayerCount: 2
Fore
SplineSet
437 408 m 1,0,-1
 430 477 l 1,1,-1
 372 486 l 1,2,-1
 376 533 l 1,3,4
 435 529 435 529 457 529 c 2,5,-1
 570 533 l 1,6,-1
 573 482 l 1,7,-1
 515 477 l 1,8,9
 509 444 509 444 509 402 c 2,10,-1
 509 200 l 2,11,12
 509 102 509 102 455 45.5 c 128,-1,13
 401 -11 401 -11 299 -11 c 128,-1,14
 197 -11 197 -11 143.5 45.5 c 128,-1,15
 90 102 90 102 90 200 c 2,16,-1
 90 408 l 1,17,-1
 83 477 l 1,18,-1
 25 486 l 1,19,-1
 28 533 l 1,20,21
 92 529 92 529 115 529 c 2,22,-1
 241 533 l 1,23,-1
 245 482 l 1,24,-1
 186 477 l 1,25,26
 180 447 180 447 180 402 c 2,27,-1
 180 198 l 2,28,29
 180 132 180 132 213 91.5 c 128,-1,30
 246 51 246 51 309.5 51 c 128,-1,31
 373 51 373 51 405 90.5 c 128,-1,32
 437 130 437 130 437 198 c 2,33,-1
 437 408 l 1,0,-1
300 765 m 1,34,-1
 466 596 l 1,35,-1
 433 564 l 1,36,-1
 359 625 l 1,37,-1
 300 668 l 1,38,39
 290 661 290 661 275.5 650.5 c 128,-1,40
 261 640 261 640 252.5 634 c 128,-1,41
 244 628 244 628 241 625 c 2,42,-1
 167 564 l 1,43,-1
 134 596 l 1,44,-1
 300 765 l 1,34,-1
EndSplineSet
EndChar

StartChar: udieresis
Encoding: 252 252 188
Width: 598
GlyphClass: 2
Flags: W
LayerCount: 2
Fore
SplineSet
437 408 m 1,0,-1
 430 477 l 1,1,-1
 372 486 l 1,2,-1
 376 533 l 1,3,4
 435 529 435 529 457 529 c 2,5,-1
 570 533 l 1,6,-1
 573 482 l 1,7,-1
 515 477 l 1,8,9
 509 444 509 444 509 402 c 2,10,-1
 509 200 l 2,11,12
 509 102 509 102 455 45.5 c 128,-1,13
 401 -11 401 -11 299 -11 c 128,-1,14
 197 -11 197 -11 143.5 45.5 c 128,-1,15
 90 102 90 102 90 200 c 2,16,-1
 90 408 l 1,17,-1
 83 477 l 1,18,-1
 25 486 l 1,19,-1
 28 533 l 1,20,21
 92 529 92 529 115 529 c 2,22,-1
 241 533 l 1,23,-1
 245 482 l 1,24,-1
 186 477 l 1,25,26
 180 447 180 447 180 402 c 2,27,-1
 180 198 l 2,28,29
 180 132 180 132 213 91.5 c 128,-1,30
 246 51 246 51 309.5 51 c 128,-1,31
 373 51 373 51 405 90.5 c 128,-1,32
 437 130 437 130 437 198 c 2,33,-1
 437 408 l 1,0,-1
418 713 m 0,34,35
 472 713 472 713 472 653.5 c 128,-1,36
 472 594 472 594 418 594 c 128,-1,37
 364 594 364 594 364 653 c 0,38,39
 364 681 364 681 378 697 c 128,-1,40
 392 713 392 713 418 713 c 0,34,35
182 713 m 0,41,42
 236 713 236 713 236 653.5 c 128,-1,43
 236 594 236 594 182 594 c 128,-1,44
 128 594 128 594 128 653 c 0,45,46
 128 681 128 681 142 697 c 128,-1,47
 156 713 156 713 182 713 c 0,41,42
EndSplineSet
EndChar

StartChar: yacute
Encoding: 253 253 189
Width: 548
GlyphClass: 2
Flags: W
LayerCount: 2
Fore
SplineSet
222 50 m 1,0,-1
 229 110 l 1,1,-1
 229 190 l 1,2,-1
 102 423 l 1,3,4
 93 442 93 442 68 470 c 2,5,-1
 61 478 l 1,6,-1
 11 485 l 1,7,-1
 15 530 l 1,8,9
 68 529 68 529 95 529 c 2,10,-1
 225 533 l 1,11,-1
 229 489 l 1,12,-1
 174 477 l 1,13,14
 181 445 181 445 201 412 c 1,15,-1
 281 265 l 1,16,-1
 369 437 l 1,17,-1
 385 477 l 1,18,-1
 334 485 l 1,19,-1
 337 530 l 1,20,21
 385 529 385 529 413 529 c 2,22,-1
 525 533 l 1,23,-1
 529 489 l 1,24,-1
 478 479 l 1,25,26
 447 442 447 442 429 408 c 2,27,-1
 316 198 l 1,28,-1
 316 133 l 2,29,30
 316 116 316 116 322 50 c 1,31,-1
 386 45 l 1,32,-1
 381 -4 l 1,33,34
 326 0 326 0 255 0 c 1,35,-1
 168 -4 l 1,36,-1
 164 40 l 1,37,-1
 222 50 l 1,0,-1
357 755 m 1,38,-1
 404 695 l 1,39,40
 298 635 298 635 283 624 c 1,41,-1
 210 564 l 1,42,-1
 177 605 l 1,43,-1
 357 755 l 1,38,-1
EndSplineSet
EndChar

StartChar: thorn
Encoding: 254 254 190
Width: 478
GlyphClass: 2
Flags: W
LayerCount: 2
Fore
SplineSet
100 50 m 1,0,-1
 107 110 l 1,1,-1
 107 410 l 2,2,3
 107 428 107 428 103.5 451 c 128,-1,4
 100 474 100 474 100 477 c 1,5,-1
 43 486 l 1,6,-1
 46 533 l 1,7,8
 110 529 110 529 133 529 c 2,9,-1
 254 533 l 1,10,-1
 258 482 l 1,11,-1
 200 477 l 1,12,13
 197 465 197 465 195 425 c 1,14,15
 251 429 251 429 275 429 c 0,16,17
 358 429 358 429 405 387.5 c 128,-1,18
 452 346 452 346 452 271 c 128,-1,19
 452 196 452 196 396.5 153.5 c 128,-1,20
 341 111 341 111 259 111 c 0,21,22
 215 111 215 111 194 112 c 1,23,24
 194 100 194 100 200 50 c 1,25,-1
 264 45 l 1,26,-1
 259 -4 l 1,27,28
 203 0 203 0 133 0 c 1,29,-1
 45 -4 l 1,30,-1
 41 40 l 1,31,-1
 100 50 l 1,0,-1
234 158 m 0,32,33
 294 158 294 158 328 186.5 c 128,-1,34
 362 215 362 215 362 270 c 0,35,36
 362 382 362 382 238 382 c 0,37,38
 220 382 220 382 194 379 c 1,39,-1
 194 160 l 1,40,41
 224 158 224 158 234 158 c 0,32,33
EndSplineSet
EndChar

StartChar: ydieresis
Encoding: 255 255 191
Width: 548
GlyphClass: 2
Flags: W
LayerCount: 2
Fore
SplineSet
222 50 m 1,0,-1
 229 110 l 1,1,-1
 229 190 l 1,2,-1
 102 423 l 1,3,4
 93 442 93 442 68 470 c 2,5,-1
 61 478 l 1,6,-1
 11 485 l 1,7,-1
 15 530 l 1,8,9
 68 529 68 529 95 529 c 2,10,-1
 225 533 l 1,11,-1
 229 489 l 1,12,-1
 174 477 l 1,13,14
 181 445 181 445 201 412 c 1,15,-1
 281 265 l 1,16,-1
 369 437 l 1,17,-1
 385 477 l 1,18,-1
 334 485 l 1,19,-1
 337 530 l 1,20,21
 385 529 385 529 413 529 c 2,22,-1
 525 533 l 1,23,-1
 529 489 l 1,24,-1
 478 479 l 1,25,26
 447 442 447 442 429 408 c 2,27,-1
 316 198 l 1,28,-1
 316 133 l 2,29,30
 316 116 316 116 322 50 c 1,31,-1
 386 45 l 1,32,-1
 381 -4 l 1,33,34
 326 0 326 0 255 0 c 1,35,-1
 168 -4 l 1,36,-1
 164 40 l 1,37,-1
 222 50 l 1,0,-1
156 713 m 0,38,39
 210 713 210 713 210 653.5 c 128,-1,40
 210 594 210 594 156 594 c 128,-1,41
 102 594 102 594 102 653 c 0,42,43
 102 681 102 681 116 697 c 128,-1,44
 130 713 130 713 156 713 c 0,38,39
392 713 m 0,45,46
 446 713 446 713 446 653.5 c 128,-1,47
 446 594 446 594 392 594 c 128,-1,48
 338 594 338 594 338 653 c 0,49,50
 338 681 338 681 352 697 c 128,-1,51
 366 713 366 713 392 713 c 0,45,46
EndSplineSet
EndChar

StartChar: Amacron
Encoding: 256 256 192
Width: 664
GlyphClass: 2
Flags: W
LayerCount: 2
Fore
SplineSet
660 54 m 1,0,-1
 655 0 l 1,1,-1
 554 0 l 1,2,-1
 411 -5 l 1,3,-1
 407 44 l 1,4,-1
 480 64 l 1,5,-1
 453 172 l 1,6,-1
 432 232 l 1,7,-1
 212 232 l 1,8,-1
 180 127 l 1,9,-1
 170 64 l 1,10,-1
 240 54 l 1,11,-1
 235 0 l 1,12,-1
 149 0 l 1,13,-1
 14 -5 l 1,14,-1
 10 44 l 1,15,-1
 73 61 l 1,16,-1
 116 160 l 1,17,-1
 295 705 l 1,18,-1
 353 715 l 1,19,-1
 559 149 l 1,20,-1
 598 64 l 1,21,-1
 660 54 l 1,0,-1
318 557 m 1,22,-1
 230 282 l 1,23,-1
 412 286 l 1,24,-1
 318 557 l 1,22,-1
171 771 m 1,25,-1
 171 824 l 1,26,-1
 493 824 l 1,27,-1
 488 771 l 1,28,-1
 171 771 l 1,25,-1
EndSplineSet
EndChar

StartChar: amacron
Encoding: 257 257 193
Width: 537
GlyphClass: 2
Flags: W
LayerCount: 2
Fore
SplineSet
526 44 m 1,0,-1
 522 -1 l 1,1,2
 473 0 473 0 447 0 c 2,3,-1
 320 -4 l 1,4,-1
 317 40 l 1,5,-1
 370 52 l 1,6,-1
 355 117 l 1,7,-1
 340 159 l 1,8,-1
 177 159 l 1,9,-1
 156 92 l 1,10,-1
 149 52 l 1,11,-1
 200 44 l 1,12,-1
 196 -1 l 1,13,14
 152 0 152 0 124 0 c 1,15,-1
 18 -4 l 1,16,-1
 15 40 l 1,17,-1
 59 50 l 1,18,-1
 92 120 l 1,19,-1
 235 529 l 1,20,-1
 294 537 l 1,21,-1
 453 106 l 1,22,-1
 479 51 l 1,23,-1
 526 44 l 1,0,-1
258 401 m 1,24,-1
 193 205 l 1,25,-1
 323 208 l 1,26,-1
 258 401 l 1,24,-1
110 596 m 1,27,-1
 110 649 l 1,28,-1
 432 649 l 1,29,-1
 427 596 l 1,30,-1
 110 596 l 1,27,-1
EndSplineSet
EndChar

StartChar: Abreve
Encoding: 258 258 194
Width: 664
GlyphClass: 2
Flags: W
LayerCount: 2
Fore
SplineSet
660 54 m 1,0,-1
 655 0 l 1,1,-1
 554 0 l 1,2,-1
 411 -5 l 1,3,-1
 407 44 l 1,4,-1
 480 64 l 1,5,-1
 453 172 l 1,6,-1
 432 232 l 1,7,-1
 212 232 l 1,8,-1
 180 127 l 1,9,-1
 170 64 l 1,10,-1
 240 54 l 1,11,-1
 235 0 l 1,12,-1
 149 0 l 1,13,-1
 14 -5 l 1,14,-1
 10 44 l 1,15,-1
 73 61 l 1,16,-1
 116 160 l 1,17,-1
 295 705 l 1,18,-1
 353 715 l 1,19,-1
 559 149 l 1,20,-1
 598 64 l 1,21,-1
 660 54 l 1,0,-1
318 557 m 1,22,-1
 230 282 l 1,23,-1
 412 286 l 1,24,-1
 318 557 l 1,22,-1
398 898 m 1,25,-1
 454 898 l 1,26,27
 454 830 454 830 418 794 c 128,-1,28
 382 758 382 758 315 758 c 128,-1,29
 248 758 248 758 212 794 c 128,-1,30
 176 830 176 830 176 898 c 1,31,-1
 232 898 l 1,32,33
 232 860 232 860 255 837 c 128,-1,34
 278 814 278 814 315 814 c 128,-1,35
 352 814 352 814 375 837 c 128,-1,36
 398 860 398 860 398 898 c 1,25,-1
EndSplineSet
EndChar

StartChar: abreve
Encoding: 259 259 195
Width: 537
GlyphClass: 2
Flags: W
LayerCount: 2
Fore
SplineSet
526 44 m 1,0,-1
 522 -1 l 1,1,2
 473 0 473 0 447 0 c 2,3,-1
 320 -4 l 1,4,-1
 317 40 l 1,5,-1
 370 52 l 1,6,-1
 355 117 l 1,7,-1
 340 159 l 1,8,-1
 177 159 l 1,9,-1
 156 92 l 1,10,-1
 149 52 l 1,11,-1
 200 44 l 1,12,-1
 196 -1 l 1,13,14
 152 0 152 0 124 0 c 1,15,-1
 18 -4 l 1,16,-1
 15 40 l 1,17,-1
 59 50 l 1,18,-1
 92 120 l 1,19,-1
 235 529 l 1,20,-1
 294 537 l 1,21,-1
 453 106 l 1,22,-1
 479 51 l 1,23,-1
 526 44 l 1,0,-1
258 401 m 1,24,-1
 193 205 l 1,25,-1
 323 208 l 1,26,-1
 258 401 l 1,24,-1
354 722 m 1,27,-1
 410 722 l 1,28,29
 410 654 410 654 374 618 c 128,-1,30
 338 582 338 582 271 582 c 128,-1,31
 204 582 204 582 168 618 c 128,-1,32
 132 654 132 654 132 722 c 1,33,-1
 188 722 l 1,34,35
 188 684 188 684 211 661 c 128,-1,36
 234 638 234 638 271 638 c 128,-1,37
 308 638 308 638 331 661 c 128,-1,38
 354 684 354 684 354 722 c 1,27,-1
EndSplineSet
EndChar

StartChar: Aogonek
Encoding: 260 260 196
Width: 664
GlyphClass: 2
Flags: W
LayerCount: 2
Fore
SplineSet
437.5 -37 m 128,-1,1
 410 -68 410 -68 410 -96 c 0,2,3
 410 -155 410 -155 466 -155 c 0,4,5
 489 -155 489 -155 521 -142 c 1,6,-1
 535 -175 l 1,7,8
 488 -197 488 -197 445 -197 c 128,-1,9
 402 -197 402 -197 374 -174.5 c 128,-1,10
 346 -152 346 -152 346 -114.5 c 128,-1,11
 346 -77 346 -77 363.5 -52.5 c 128,-1,12
 381 -28 381 -28 429 13 c 1,13,14
 466 46 466 46 466 96 c 0,15,16
 466 123 466 123 453 172 c 1,17,-1
 432 232 l 1,18,-1
 212 232 l 1,19,-1
 180 127 l 1,20,-1
 170 64 l 1,21,-1
 240 54 l 1,22,-1
 235 0 l 1,23,-1
 149 0 l 1,24,-1
 14 -5 l 1,25,-1
 10 44 l 1,26,-1
 73 61 l 1,27,-1
 116 160 l 1,28,-1
 295 705 l 1,29,-1
 353 715 l 1,30,-1
 559 149 l 1,31,-1
 598 64 l 1,32,-1
 660 54 l 1,33,-1
 655 0 l 1,34,-1
 510 0 l 1,35,0
 465 -6 465 -6 437.5 -37 c 128,-1,1
318 557 m 1,36,-1
 230 282 l 1,37,-1
 412 286 l 1,38,-1
 318 557 l 1,36,-1
EndSplineSet
EndChar

StartChar: aogonek
Encoding: 261 261 197
Width: 537
GlyphClass: 2
Flags: W
LayerCount: 2
Fore
SplineSet
356 96 m 0,0,1
 356 102 356 102 354 118 c 1,2,-1
 340 159 l 1,3,-1
 177 159 l 1,4,-1
 156 92 l 1,5,-1
 149 52 l 1,6,-1
 200 44 l 1,7,-1
 196 -1 l 1,8,9
 152 0 152 0 124 0 c 1,10,-1
 18 -4 l 1,11,-1
 15 40 l 1,12,-1
 59 50 l 1,13,-1
 92 120 l 1,14,-1
 235 529 l 1,15,-1
 294 537 l 1,16,-1
 453 106 l 1,17,-1
 479 51 l 1,18,-1
 526 44 l 1,19,-1
 522 -1 l 1,20,21
 473 0 473 0 447 0 c 2,22,-1
 400 0 l 1,23,24
 355 -6 355 -6 327.5 -37 c 128,-1,25
 300 -68 300 -68 300 -96 c 0,26,27
 300 -155 300 -155 356 -155 c 0,28,29
 379 -155 379 -155 411 -142 c 1,30,-1
 425 -175 l 1,31,32
 378 -197 378 -197 335 -197 c 128,-1,33
 292 -197 292 -197 264 -174.5 c 128,-1,34
 236 -152 236 -152 236 -114.5 c 128,-1,35
 236 -77 236 -77 253.5 -52.5 c 128,-1,36
 271 -28 271 -28 319 13 c 1,37,38
 356 46 356 46 356 96 c 0,0,1
258 401 m 1,39,-1
 193 205 l 1,40,-1
 323 208 l 1,41,-1
 258 401 l 1,39,-1
EndSplineSet
EndChar

StartChar: Cacute
Encoding: 262 262 198
Width: 610
GlyphClass: 2
Flags: W
LayerCount: 2
Fore
SplineSet
359 -15 m 0,0,1
 205 -15 205 -15 123.5 84.5 c 128,-1,2
 42 184 42 184 42 352 c 128,-1,3
 42 520 42 520 123.5 620 c 128,-1,4
 205 720 205 720 359 720 c 0,5,6
 432 720 432 720 566 686 c 1,7,-1
 556 538 l 1,8,-1
 497 542 l 1,9,-1
 497 589 l 2,10,11
 497 599 497 599 485 639 c 1,12,13
 416 662 416 662 359 662 c 0,14,15
 255 662 255 662 200 575.5 c 128,-1,16
 145 489 145 489 145 353 c 128,-1,17
 145 217 145 217 200 130 c 128,-1,18
 255 43 255 43 358 43 c 0,19,20
 423 43 423 43 494 65 c 1,21,22
 508 111 508 111 508 121 c 2,23,-1
 510 168 l 1,24,-1
 569 170 l 1,25,-1
 575 19 l 1,26,27
 441 -15 441 -15 359 -15 c 0,0,1
475 898 m 1,28,-1
 505 825 l 1,29,30
 373 793 373 793 354 787 c 1,31,-1
 266 750 l 1,32,-1
 246 798 l 1,33,-1
 475 898 l 1,28,-1
EndSplineSet
EndChar

StartChar: cacute
Encoding: 263 263 199
Width: 500
GlyphClass: 2
Flags: W
LayerCount: 2
Fore
SplineSet
294 -11 m 0,0,1
 170 -11 170 -11 104 63.5 c 128,-1,2
 38 138 38 138 38 264.5 c 128,-1,3
 38 391 38 391 104 465.5 c 128,-1,4
 170 540 170 540 294 540 c 0,5,6
 355 540 355 540 457 515 c 1,7,-1
 449 395 l 1,8,-1
 398 398 l 1,9,-1
 398 437 l 2,10,11
 398 446 398 446 388 472 c 1,12,13
 334 486 334 486 294 486 c 0,14,15
 217 486 217 486 177.5 424.5 c 128,-1,16
 138 363 138 363 138 264.5 c 128,-1,17
 138 166 138 166 177 104 c 128,-1,18
 216 42 216 42 293 42 c 0,19,20
 339 42 339 42 396 57 c 1,21,22
 407 90 407 90 407 97 c 2,23,-1
 409 132 l 1,24,-1
 459 134 l 1,25,-1
 464 14 l 1,26,27
 362 -11 362 -11 294 -11 c 0,0,1
375 755 m 1,28,-1
 422 695 l 1,29,30
 316 635 316 635 301 624 c 1,31,-1
 228 564 l 1,32,-1
 195 605 l 1,33,-1
 375 755 l 1,28,-1
EndSplineSet
EndChar

StartChar: Ccircumflex
Encoding: 264 264 200
Width: 610
GlyphClass: 2
Flags: W
LayerCount: 2
Fore
SplineSet
359 -15 m 0,0,1
 205 -15 205 -15 123.5 84.5 c 128,-1,2
 42 184 42 184 42 352 c 128,-1,3
 42 520 42 520 123.5 620 c 128,-1,4
 205 720 205 720 359 720 c 0,5,6
 432 720 432 720 566 686 c 1,7,-1
 556 538 l 1,8,-1
 497 542 l 1,9,-1
 497 589 l 2,10,11
 497 599 497 599 485 639 c 1,12,13
 416 662 416 662 359 662 c 0,14,15
 255 662 255 662 200 575.5 c 128,-1,16
 145 489 145 489 145 353 c 128,-1,17
 145 217 145 217 200 130 c 128,-1,18
 255 43 255 43 358 43 c 0,19,20
 423 43 423 43 494 65 c 1,21,22
 508 111 508 111 508 121 c 2,23,-1
 510 168 l 1,24,-1
 569 170 l 1,25,-1
 575 19 l 1,26,27
 441 -15 441 -15 359 -15 c 0,0,1
356 893 m 1,28,-1
 530 786 l 1,29,-1
 507 747 l 1,30,-1
 419 788 l 1,31,-1
 356 813 l 1,32,-1
 293 788 l 1,33,-1
 205 747 l 1,34,-1
 182 786 l 1,35,-1
 356 893 l 1,28,-1
EndSplineSet
EndChar

StartChar: ccircumflex
Encoding: 265 265 201
Width: 500
GlyphClass: 2
Flags: W
LayerCount: 2
Fore
SplineSet
294 -11 m 0,0,1
 170 -11 170 -11 104 63.5 c 128,-1,2
 38 138 38 138 38 264.5 c 128,-1,3
 38 391 38 391 104 465.5 c 128,-1,4
 170 540 170 540 294 540 c 0,5,6
 355 540 355 540 457 515 c 1,7,-1
 449 395 l 1,8,-1
 398 398 l 1,9,-1
 398 437 l 2,10,11
 398 446 398 446 388 472 c 1,12,13
 334 486 334 486 294 486 c 0,14,15
 217 486 217 486 177.5 424.5 c 128,-1,16
 138 363 138 363 138 264.5 c 128,-1,17
 138 166 138 166 177 104 c 128,-1,18
 216 42 216 42 293 42 c 0,19,20
 339 42 339 42 396 57 c 1,21,22
 407 90 407 90 407 97 c 2,23,-1
 409 132 l 1,24,-1
 459 134 l 1,25,-1
 464 14 l 1,26,27
 362 -11 362 -11 294 -11 c 0,0,1
292 765 m 1,28,-1
 458 596 l 1,29,-1
 425 564 l 1,30,-1
 351 625 l 1,31,-1
 292 668 l 1,32,33
 282 661 282 661 267.5 650.5 c 128,-1,34
 253 640 253 640 244.5 634 c 128,-1,35
 236 628 236 628 233 625 c 2,36,-1
 159 564 l 1,37,-1
 126 596 l 1,38,-1
 292 765 l 1,28,-1
EndSplineSet
EndChar

StartChar: Cdotaccent
Encoding: 266 266 202
Width: 610
GlyphClass: 2
Flags: W
LayerCount: 2
Fore
SplineSet
359 -15 m 0,0,1
 205 -15 205 -15 123.5 84.5 c 128,-1,2
 42 184 42 184 42 352 c 128,-1,3
 42 520 42 520 123.5 620 c 128,-1,4
 205 720 205 720 359 720 c 0,5,6
 432 720 432 720 566 686 c 1,7,-1
 556 538 l 1,8,-1
 497 542 l 1,9,-1
 497 589 l 2,10,11
 497 599 497 599 485 639 c 1,12,13
 416 662 416 662 359 662 c 0,14,15
 255 662 255 662 200 575.5 c 128,-1,16
 145 489 145 489 145 353 c 128,-1,17
 145 217 145 217 200 130 c 128,-1,18
 255 43 255 43 358 43 c 0,19,20
 423 43 423 43 494 65 c 1,21,22
 508 111 508 111 508 121 c 2,23,-1
 510 168 l 1,24,-1
 569 170 l 1,25,-1
 575 19 l 1,26,27
 441 -15 441 -15 359 -15 c 0,0,1
356 890 m 128,-1,29
 384 890 384 890 399.5 873 c 128,-1,30
 415 856 415 856 415 826 c 128,-1,31
 415 796 415 796 399.5 778.5 c 128,-1,32
 384 761 384 761 356 761 c 128,-1,33
 328 761 328 761 312.5 778.5 c 128,-1,34
 297 796 297 796 297 825 c 128,-1,35
 297 854 297 854 312.5 872 c 128,-1,28
 328 890 328 890 356 890 c 128,-1,29
EndSplineSet
EndChar

StartChar: cdotaccent
Encoding: 267 267 203
Width: 500
GlyphClass: 2
Flags: W
LayerCount: 2
Fore
SplineSet
294 -11 m 0,0,1
 170 -11 170 -11 104 63.5 c 128,-1,2
 38 138 38 138 38 264.5 c 128,-1,3
 38 391 38 391 104 465.5 c 128,-1,4
 170 540 170 540 294 540 c 0,5,6
 355 540 355 540 457 515 c 1,7,-1
 449 395 l 1,8,-1
 398 398 l 1,9,-1
 398 437 l 2,10,11
 398 446 398 446 388 472 c 1,12,13
 334 486 334 486 294 486 c 0,14,15
 217 486 217 486 177.5 424.5 c 128,-1,16
 138 363 138 363 138 264.5 c 128,-1,17
 138 166 138 166 177 104 c 128,-1,18
 216 42 216 42 293 42 c 0,19,20
 339 42 339 42 396 57 c 1,21,22
 407 90 407 90 407 97 c 2,23,-1
 409 132 l 1,24,-1
 459 134 l 1,25,-1
 464 14 l 1,26,27
 362 -11 362 -11 294 -11 c 0,0,1
292 720 m 128,-1,29
 320 720 320 720 335.5 703 c 128,-1,30
 351 686 351 686 351 656 c 128,-1,31
 351 626 351 626 335.5 608.5 c 128,-1,32
 320 591 320 591 292 591 c 128,-1,33
 264 591 264 591 248.5 608.5 c 128,-1,34
 233 626 233 626 233 655 c 128,-1,35
 233 684 233 684 248.5 702 c 128,-1,28
 264 720 264 720 292 720 c 128,-1,29
EndSplineSet
EndChar

StartChar: Ccaron
Encoding: 268 268 204
Width: 610
GlyphClass: 2
Flags: W
LayerCount: 2
Fore
SplineSet
359 -15 m 0,0,1
 205 -15 205 -15 123.5 84.5 c 128,-1,2
 42 184 42 184 42 352 c 128,-1,3
 42 520 42 520 123.5 620 c 128,-1,4
 205 720 205 720 359 720 c 0,5,6
 432 720 432 720 566 686 c 1,7,-1
 556 538 l 1,8,-1
 497 542 l 1,9,-1
 497 589 l 2,10,11
 497 599 497 599 485 639 c 1,12,13
 416 662 416 662 359 662 c 0,14,15
 255 662 255 662 200 575.5 c 128,-1,16
 145 489 145 489 145 353 c 128,-1,17
 145 217 145 217 200 130 c 128,-1,18
 255 43 255 43 358 43 c 0,19,20
 423 43 423 43 494 65 c 1,21,22
 508 111 508 111 508 121 c 2,23,-1
 510 168 l 1,24,-1
 569 170 l 1,25,-1
 575 19 l 1,26,27
 441 -15 441 -15 359 -15 c 0,0,1
507 893 m 1,28,-1
 530 854 l 1,29,-1
 356 747 l 1,30,-1
 182 854 l 1,31,-1
 205 893 l 1,32,-1
 293 852 l 1,33,-1
 356 827 l 1,34,-1
 419 852 l 1,35,-1
 507 893 l 1,28,-1
EndSplineSet
EndChar

StartChar: ccaron
Encoding: 269 269 205
Width: 500
GlyphClass: 2
Flags: W
LayerCount: 2
Fore
SplineSet
294 -11 m 0,0,1
 170 -11 170 -11 104 63.5 c 128,-1,2
 38 138 38 138 38 264.5 c 128,-1,3
 38 391 38 391 104 465.5 c 128,-1,4
 170 540 170 540 294 540 c 0,5,6
 355 540 355 540 457 515 c 1,7,-1
 449 395 l 1,8,-1
 398 398 l 1,9,-1
 398 437 l 2,10,11
 398 446 398 446 388 472 c 1,12,13
 334 486 334 486 294 486 c 0,14,15
 217 486 217 486 177.5 424.5 c 128,-1,16
 138 363 138 363 138 264.5 c 128,-1,17
 138 166 138 166 177 104 c 128,-1,18
 216 42 216 42 293 42 c 0,19,20
 339 42 339 42 396 57 c 1,21,22
 407 90 407 90 407 97 c 2,23,-1
 409 132 l 1,24,-1
 459 134 l 1,25,-1
 464 14 l 1,26,27
 362 -11 362 -11 294 -11 c 0,0,1
159 765 m 1,28,-1
 233 704 l 2,29,30
 237 701 237 701 292 661 c 1,31,-1
 351 704 l 1,32,-1
 425 765 l 1,33,-1
 458 733 l 1,34,-1
 292 564 l 1,35,-1
 126 733 l 1,36,-1
 159 765 l 1,28,-1
EndSplineSet
EndChar

StartChar: Dcaron
Encoding: 270 270 206
Width: 721
GlyphClass: 2
Flags: W
LayerCount: 2
Fore
SplineSet
334 -6 m 1,0,-1
 165 0 l 1,1,-1
 47 -5 l 1,2,-1
 42 45 l 1,3,-1
 121 61 l 1,4,5
 130 120 130 120 130 137 c 2,6,-1
 130 568 l 2,7,8
 130 586 130 586 121 644 c 1,9,-1
 44 656 l 1,10,-1
 49 710 l 1,11,12
 113 707 113 707 147 705 c 1,13,14
 173 706 173 706 235 710.5 c 128,-1,15
 297 715 297 715 334 715 c 0,16,17
 499 715 499 715 589 618 c 128,-1,18
 679 521 679 521 679 355.5 c 128,-1,19
 679 190 679 190 586.5 92 c 128,-1,20
 494 -6 494 -6 334 -6 c 1,0,-1
335 655 m 0,21,22
 270 655 270 655 228 650 c 1,23,24
 221 584 221 584 221 538 c 2,25,-1
 221 167 l 2,26,27
 221 85 221 85 228 57 c 1,28,29
 280 53 280 53 335 53 c 0,30,31
 455 53 455 53 517.5 137 c 128,-1,32
 580 221 580 221 580 353 c 128,-1,33
 580 485 580 485 517.5 570 c 128,-1,34
 455 655 455 655 335 655 c 0,21,22
482 893 m 1,35,-1
 505 854 l 1,36,-1
 331 747 l 1,37,-1
 157 854 l 1,38,-1
 180 893 l 1,39,-1
 268 852 l 1,40,-1
 331 827 l 1,41,-1
 394 852 l 1,42,-1
 482 893 l 1,35,-1
EndSplineSet
EndChar

StartChar: dcaron
Encoding: 271 271 207
Width: 585
GlyphClass: 2
Flags: W
LayerCount: 2
Fore
SplineSet
125 529 m 1,0,-1
 276 536 l 1,1,2
 406 536 406 536 476.5 463 c 128,-1,3
 547 390 547 390 547 266 c 128,-1,4
 547 142 547 142 475 68.5 c 128,-1,5
 403 -5 403 -5 276 -5 c 1,6,7
 276 -5 276 -5 134 0 c 1,8,-1
 46 -4 l 1,9,-1
 43 40 l 1,10,-1
 101 50 l 1,11,12
 108 92 108 92 108 110 c 2,13,-1
 108 410 l 2,14,15
 108 435 108 435 101 477 c 1,16,-1
 44 486 l 1,17,-1
 48 533 l 1,18,19
 95 530 95 530 125 529 c 1,0,-1
273 485 m 0,20,21
 232 485 232 485 200 480 c 1,22,23
 195 410 195 410 195 405 c 2,24,-1
 195 133 l 2,25,26
 195 79 195 79 200 49 c 1,27,28
 232 47 232 47 273 47 c 0,29,30
 363 47 363 47 407.5 107.5 c 128,-1,31
 452 168 452 168 452 264.5 c 128,-1,32
 452 361 452 361 407 423 c 128,-1,33
 362 485 362 485 273 485 c 0,20,21
139 765 m 1,34,-1
 213 704 l 2,35,36
 217 701 217 701 272 661 c 1,37,-1
 331 704 l 1,38,-1
 405 765 l 1,39,-1
 438 733 l 1,40,-1
 272 564 l 1,41,-1
 106 733 l 1,42,-1
 139 765 l 1,34,-1
EndSplineSet
EndChar

StartChar: Dcroat
Encoding: 272 272 208
Width: 721
GlyphClass: 2
Flags: W
LayerCount: 2
Fore
SplineSet
334 -6 m 1,0,-1
 165 0 l 1,1,-1
 47 -5 l 1,2,-1
 42 45 l 1,3,-1
 121 61 l 1,4,5
 130 120 130 120 130 137 c 2,6,-1
 130 337 l 1,7,-1
 42 337 l 1,8,-1
 42 380 l 1,9,-1
 130 380 l 1,10,-1
 130 568 l 2,11,12
 130 586 130 586 121 644 c 1,13,-1
 44 656 l 1,14,-1
 49 710 l 1,15,16
 113 707 113 707 147 705 c 1,17,18
 173 706 173 706 235 710.5 c 128,-1,19
 297 715 297 715 334 715 c 0,20,21
 499 715 499 715 589 618 c 128,-1,22
 679 521 679 521 679 355.5 c 128,-1,23
 679 190 679 190 586.5 92 c 128,-1,24
 494 -6 494 -6 334 -6 c 1,0,-1
221 337 m 1,25,-1
 221 167 l 2,26,27
 221 85 221 85 228 57 c 1,28,29
 280 53 280 53 335 53 c 0,30,31
 455 53 455 53 517.5 137 c 128,-1,32
 580 221 580 221 580 353 c 128,-1,33
 580 485 580 485 517.5 570 c 128,-1,34
 455 655 455 655 335 655 c 0,35,36
 270 655 270 655 228 650 c 1,37,38
 221 584 221 584 221 538 c 2,39,-1
 221 380 l 1,40,-1
 364 380 l 1,41,-1
 359 337 l 1,42,-1
 221 337 l 1,25,-1
EndSplineSet
EndChar

StartChar: dcroat
Encoding: 273 273 209
Width: 571
GlyphClass: 2
Flags: W
LayerCount: 2
Fore
SplineSet
122 529 m 1,0,-1
 274 536 l 1,1,2
 404 536 404 536 474.5 463 c 128,-1,3
 545 390 545 390 545 266.5 c 128,-1,4
 545 143 545 143 473 69 c 128,-1,5
 401 -5 401 -5 274 -5 c 1,6,-1
 132 0 l 1,7,-1
 44 -4 l 1,8,-1
 40 40 l 1,9,-1
 99 50 l 1,10,11
 106 92 106 92 106 110 c 2,12,-1
 106 248 l 1,13,-1
 42 248 l 1,14,-1
 42 289 l 1,15,-1
 106 289 l 1,16,-1
 106 410 l 2,17,18
 106 435 106 435 99 477 c 1,19,-1
 42 486 l 1,20,-1
 45 533 l 1,21,22
 93 530 93 530 122 529 c 1,0,-1
193 248 m 1,23,-1
 193 133 l 2,24,25
 193 79 193 79 198 49 c 1,26,27
 230 47 230 47 270 47 c 0,28,29
 360 47 360 47 405 107.5 c 128,-1,30
 450 168 450 168 450 264.5 c 128,-1,31
 450 361 450 361 405 423 c 128,-1,32
 360 485 360 485 271 485 c 0,33,34
 230 485 230 485 198 480 c 1,35,36
 193 445 193 445 193 405 c 2,37,-1
 193 289 l 1,38,-1
 293 289 l 1,39,-1
 289 248 l 1,40,-1
 193 248 l 1,23,-1
EndSplineSet
EndChar

StartChar: Emacron
Encoding: 274 274 210
Width: 588
GlyphClass: 2
Flags: W
LayerCount: 2
Fore
SplineSet
165 705 m 2,0,-1
 389 705 l 1,1,-1
 503 715 l 1,2,-1
 522 697 l 1,3,-1
 529 561 l 1,4,-1
 471 556 l 1,5,6
 468 580 468 580 463.5 600 c 128,-1,7
 459 620 459 620 440 644 c 1,8,9
 385 649 385 649 359 649 c 2,10,-1
 228 649 l 1,11,12
 221 575 221 575 221 538 c 2,13,-1
 221 396 l 1,14,15
 255 394 255 394 264 394 c 2,16,-1
 337 394 l 1,17,-1
 397 403 l 1,18,-1
 406 469 l 1,19,-1
 452 464 l 1,20,21
 451 400 451 400 451 380 c 2,22,-1
 454 271 l 1,23,-1
 406 265 l 1,24,-1
 397 332 l 1,25,26
 337 338 337 338 317 338 c 2,27,-1
 264 338 l 2,28,29
 246 338 246 338 221 335 c 1,30,-1
 221 167 l 2,31,32
 221 124 221 124 228 57 c 1,33,-1
 372 57 l 2,34,35
 410 57 410 57 459 66 c 1,36,37
 478 92 478 92 479.5 99.5 c 128,-1,38
 481 107 481 107 487.5 134 c 128,-1,39
 494 161 494 161 495 170 c 1,40,-1
 550 165 l 1,41,-1
 535 14 l 1,42,-1
 516 -4 l 1,43,44
 422 0 422 0 402 0 c 2,45,-1
 165 0 l 1,46,-1
 47 -5 l 1,47,-1
 42 45 l 1,48,-1
 121 61 l 1,49,50
 130 120 130 120 130 137 c 2,51,-1
 130 568 l 2,52,53
 130 586 130 586 121 644 c 1,54,-1
 44 656 l 1,55,-1
 49 710 l 1,56,57
 145 705 145 705 165 705 c 2,0,-1
133 771 m 1,58,-1
 133 824 l 1,59,-1
 455 824 l 1,60,-1
 450 771 l 1,61,-1
 133 771 l 1,58,-1
EndSplineSet
EndChar

StartChar: emacron
Encoding: 275 275 211
Width: 484
GlyphClass: 2
Flags: W
LayerCount: 2
Fore
SplineSet
200 479 m 1,0,-1
 195 405 l 1,1,-1
 195 298 l 1,2,3
 207 297 207 297 224 297 c 2,4,-1
 277 297 l 1,5,-1
 320 303 l 1,6,-1
 327 352 l 1,7,-1
 367 349 l 1,8,9
 366 301 366 301 366 286 c 2,10,-1
 368 199 l 1,11,-1
 327 194 l 1,12,-1
 320 243 l 1,13,14
 277 247 277 247 261 247 c 2,15,-1
 226 247 l 2,16,17
 206 247 206 247 195 245 c 1,18,-1
 195 133 l 2,19,20
 195 88 195 88 200 51 c 1,21,-1
 307 51 l 2,22,23
 335 51 335 51 372 58 c 1,24,25
 386 78 386 78 388 87 c 0,26,27
 398 129 398 129 399 135 c 1,28,-1
 446 131 l 1,29,-1
 434 11 l 1,30,-1
 419 -3 l 1,31,32
 346 0 346 0 330 0 c 2,33,-1
 134 0 l 1,34,-1
 46 -4 l 1,35,-1
 43 40 l 1,36,-1
 101 50 l 1,37,38
 108 82 108 82 108 110 c 2,39,-1
 108 410 l 2,40,41
 108 435 108 435 101 477 c 1,42,-1
 44 486 l 1,43,-1
 48 533 l 1,44,45
 114 529 114 529 134 529 c 2,46,-1
 320 529 l 1,47,-1
 409 536 l 1,48,-1
 424 523 l 1,49,-1
 429 415 l 1,50,-1
 380 411 l 1,51,52
 378 437 378 437 372 453 c 1,53,54
 372 459 372 459 359 476 c 1,55,56
 311 479 311 479 297 479 c 2,57,-1
 200 479 l 1,0,-1
80 596 m 1,58,-1
 80 649 l 1,59,-1
 402 649 l 1,60,-1
 397 596 l 1,61,-1
 80 596 l 1,58,-1
EndSplineSet
EndChar

StartChar: Ebreve
Encoding: 276 276 212
Width: 588
GlyphClass: 2
Flags: W
LayerCount: 2
Fore
SplineSet
165 705 m 2,0,-1
 389 705 l 1,1,-1
 503 715 l 1,2,-1
 522 697 l 1,3,-1
 529 561 l 1,4,-1
 471 556 l 1,5,6
 468 580 468 580 463.5 600 c 128,-1,7
 459 620 459 620 440 644 c 1,8,9
 385 649 385 649 359 649 c 2,10,-1
 228 649 l 1,11,12
 221 575 221 575 221 538 c 2,13,-1
 221 396 l 1,14,15
 255 394 255 394 264 394 c 2,16,-1
 337 394 l 1,17,-1
 397 403 l 1,18,-1
 406 469 l 1,19,-1
 452 464 l 1,20,21
 451 400 451 400 451 380 c 2,22,-1
 454 271 l 1,23,-1
 406 265 l 1,24,-1
 397 332 l 1,25,26
 337 338 337 338 317 338 c 2,27,-1
 264 338 l 2,28,29
 246 338 246 338 221 335 c 1,30,-1
 221 167 l 2,31,32
 221 124 221 124 228 57 c 1,33,-1
 372 57 l 2,34,35
 410 57 410 57 459 66 c 1,36,37
 478 92 478 92 479.5 99.5 c 128,-1,38
 481 107 481 107 487.5 134 c 128,-1,39
 494 161 494 161 495 170 c 1,40,-1
 550 165 l 1,41,-1
 535 14 l 1,42,-1
 516 -4 l 1,43,44
 422 0 422 0 402 0 c 2,45,-1
 165 0 l 1,46,-1
 47 -5 l 1,47,-1
 42 45 l 1,48,-1
 121 61 l 1,49,50
 130 120 130 120 130 137 c 2,51,-1
 130 568 l 2,52,53
 130 586 130 586 121 644 c 1,54,-1
 44 656 l 1,55,-1
 49 710 l 1,56,57
 145 705 145 705 165 705 c 2,0,-1
377 898 m 1,58,-1
 433 898 l 1,59,60
 433 830 433 830 397 794 c 128,-1,61
 361 758 361 758 294 758 c 128,-1,62
 227 758 227 758 191 794 c 128,-1,63
 155 830 155 830 155 898 c 1,64,-1
 211 898 l 1,65,66
 211 860 211 860 234 837 c 128,-1,67
 257 814 257 814 294 814 c 128,-1,68
 331 814 331 814 354 837 c 128,-1,69
 377 860 377 860 377 898 c 1,58,-1
EndSplineSet
EndChar

StartChar: ebreve
Encoding: 277 277 213
Width: 484
GlyphClass: 2
Flags: W
LayerCount: 2
Fore
SplineSet
200 479 m 1,0,-1
 195 405 l 1,1,-1
 195 298 l 1,2,3
 207 297 207 297 224 297 c 2,4,-1
 277 297 l 1,5,-1
 320 303 l 1,6,-1
 327 352 l 1,7,-1
 367 349 l 1,8,9
 366 301 366 301 366 286 c 2,10,-1
 368 199 l 1,11,-1
 327 194 l 1,12,-1
 320 243 l 1,13,14
 277 247 277 247 261 247 c 2,15,-1
 226 247 l 2,16,17
 206 247 206 247 195 245 c 1,18,-1
 195 133 l 2,19,20
 195 88 195 88 200 51 c 1,21,-1
 307 51 l 2,22,23
 335 51 335 51 372 58 c 1,24,25
 386 78 386 78 388 87 c 0,26,27
 398 129 398 129 399 135 c 1,28,-1
 446 131 l 1,29,-1
 434 11 l 1,30,-1
 419 -3 l 1,31,32
 346 0 346 0 330 0 c 2,33,-1
 134 0 l 1,34,-1
 46 -4 l 1,35,-1
 43 40 l 1,36,-1
 101 50 l 1,37,38
 108 82 108 82 108 110 c 2,39,-1
 108 410 l 2,40,41
 108 435 108 435 101 477 c 1,42,-1
 44 486 l 1,43,-1
 48 533 l 1,44,45
 114 529 114 529 134 529 c 2,46,-1
 320 529 l 1,47,-1
 409 536 l 1,48,-1
 424 523 l 1,49,-1
 429 415 l 1,50,-1
 380 411 l 1,51,52
 378 437 378 437 372 453 c 1,53,54
 372 459 372 459 359 476 c 1,55,56
 311 479 311 479 297 479 c 2,57,-1
 200 479 l 1,0,-1
324 722 m 1,58,-1
 380 722 l 1,59,60
 380 654 380 654 344 618 c 128,-1,61
 308 582 308 582 241 582 c 128,-1,62
 174 582 174 582 138 618 c 128,-1,63
 102 654 102 654 102 722 c 1,64,-1
 158 722 l 1,65,66
 158 684 158 684 181 661 c 128,-1,67
 204 638 204 638 241 638 c 128,-1,68
 278 638 278 638 301 661 c 128,-1,69
 324 684 324 684 324 722 c 1,58,-1
EndSplineSet
EndChar

StartChar: Edotaccent
Encoding: 278 278 214
Width: 588
GlyphClass: 2
Flags: W
LayerCount: 2
Fore
SplineSet
165 705 m 2,0,-1
 389 705 l 1,1,-1
 503 715 l 1,2,-1
 522 697 l 1,3,-1
 529 561 l 1,4,-1
 471 556 l 1,5,6
 468 580 468 580 463.5 600 c 128,-1,7
 459 620 459 620 440 644 c 1,8,9
 385 649 385 649 359 649 c 2,10,-1
 228 649 l 1,11,12
 221 575 221 575 221 538 c 2,13,-1
 221 396 l 1,14,15
 255 394 255 394 264 394 c 2,16,-1
 337 394 l 1,17,-1
 397 403 l 1,18,-1
 406 469 l 1,19,-1
 452 464 l 1,20,21
 451 400 451 400 451 380 c 2,22,-1
 454 271 l 1,23,-1
 406 265 l 1,24,-1
 397 332 l 1,25,26
 337 338 337 338 317 338 c 2,27,-1
 264 338 l 2,28,29
 246 338 246 338 221 335 c 1,30,-1
 221 167 l 2,31,32
 221 124 221 124 228 57 c 1,33,-1
 372 57 l 2,34,35
 410 57 410 57 459 66 c 1,36,37
 478 92 478 92 479.5 99.5 c 128,-1,38
 481 107 481 107 487.5 134 c 128,-1,39
 494 161 494 161 495 170 c 1,40,-1
 550 165 l 1,41,-1
 535 14 l 1,42,-1
 516 -4 l 1,43,44
 422 0 422 0 402 0 c 2,45,-1
 165 0 l 1,46,-1
 47 -5 l 1,47,-1
 42 45 l 1,48,-1
 121 61 l 1,49,50
 130 120 130 120 130 137 c 2,51,-1
 130 568 l 2,52,53
 130 586 130 586 121 644 c 1,54,-1
 44 656 l 1,55,-1
 49 710 l 1,56,57
 145 705 145 705 165 705 c 2,0,-1
294 890 m 128,-1,59
 322 890 322 890 337.5 873 c 128,-1,60
 353 856 353 856 353 826 c 128,-1,61
 353 796 353 796 337.5 778.5 c 128,-1,62
 322 761 322 761 294 761 c 128,-1,63
 266 761 266 761 250.5 778.5 c 128,-1,64
 235 796 235 796 235 825 c 128,-1,65
 235 854 235 854 250.5 872 c 128,-1,58
 266 890 266 890 294 890 c 128,-1,59
EndSplineSet
EndChar

StartChar: edotaccent
Encoding: 279 279 215
Width: 484
GlyphClass: 2
Flags: W
LayerCount: 2
Fore
SplineSet
200 479 m 1,0,-1
 195 405 l 1,1,-1
 195 298 l 1,2,3
 207 297 207 297 224 297 c 2,4,-1
 277 297 l 1,5,-1
 320 303 l 1,6,-1
 327 352 l 1,7,-1
 367 349 l 1,8,9
 366 301 366 301 366 286 c 2,10,-1
 368 199 l 1,11,-1
 327 194 l 1,12,-1
 320 243 l 1,13,14
 277 247 277 247 261 247 c 2,15,-1
 226 247 l 2,16,17
 206 247 206 247 195 245 c 1,18,-1
 195 133 l 2,19,20
 195 88 195 88 200 51 c 1,21,-1
 307 51 l 2,22,23
 335 51 335 51 372 58 c 1,24,25
 386 78 386 78 388 87 c 0,26,27
 398 129 398 129 399 135 c 1,28,-1
 446 131 l 1,29,-1
 434 11 l 1,30,-1
 419 -3 l 1,31,32
 346 0 346 0 330 0 c 2,33,-1
 134 0 l 1,34,-1
 46 -4 l 1,35,-1
 43 40 l 1,36,-1
 101 50 l 1,37,38
 108 82 108 82 108 110 c 2,39,-1
 108 410 l 2,40,41
 108 435 108 435 101 477 c 1,42,-1
 44 486 l 1,43,-1
 48 533 l 1,44,45
 114 529 114 529 134 529 c 2,46,-1
 320 529 l 1,47,-1
 409 536 l 1,48,-1
 424 523 l 1,49,-1
 429 415 l 1,50,-1
 380 411 l 1,51,52
 378 437 378 437 372 453 c 1,53,54
 372 459 372 459 359 476 c 1,55,56
 311 479 311 479 297 479 c 2,57,-1
 200 479 l 1,0,-1
242 720 m 128,-1,59
 270 720 270 720 285.5 703 c 128,-1,60
 301 686 301 686 301 656 c 128,-1,61
 301 626 301 626 285.5 608.5 c 128,-1,62
 270 591 270 591 242 591 c 128,-1,63
 214 591 214 591 198.5 608.5 c 128,-1,64
 183 626 183 626 183 655 c 128,-1,65
 183 684 183 684 198.5 702 c 128,-1,58
 214 720 214 720 242 720 c 128,-1,59
EndSplineSet
EndChar

StartChar: Eogonek
Encoding: 280 280 216
Width: 588
GlyphClass: 2
Flags: W
LayerCount: 2
Fore
SplineSet
165 705 m 2,0,-1
 389 705 l 1,1,-1
 503 715 l 1,2,-1
 522 697 l 1,3,-1
 529 561 l 1,4,-1
 471 556 l 1,5,6
 468 580 468 580 463.5 600 c 128,-1,7
 459 620 459 620 440 644 c 1,8,9
 385 649 385 649 359 649 c 2,10,-1
 228 649 l 1,11,12
 221 575 221 575 221 538 c 2,13,-1
 221 396 l 1,14,15
 255 394 255 394 264 394 c 2,16,-1
 337 394 l 1,17,-1
 397 403 l 1,18,-1
 406 469 l 1,19,-1
 452 464 l 1,20,21
 451 400 451 400 451 380 c 2,22,-1
 454 271 l 1,23,-1
 406 265 l 1,24,-1
 397 332 l 1,25,26
 337 338 337 338 317 338 c 2,27,-1
 264 338 l 2,28,29
 246 338 246 338 221 335 c 1,30,-1
 221 167 l 2,31,32
 221 124 221 124 228 57 c 1,33,-1
 372 57 l 2,34,35
 410 57 410 57 459 66 c 1,36,37
 478 92 478 92 479.5 99.5 c 128,-1,38
 481 107 481 107 487.5 134 c 128,-1,39
 494 161 494 161 495 170 c 1,40,-1
 550 165 l 1,41,-1
 535 14 l 1,42,-1
 516 -4 l 1,43,-1
 500 -4 l 2,44,45
 438 -4 438 -4 406 -35 c 128,-1,46
 374 -66 374 -66 374 -96 c 0,47,48
 374 -155 374 -155 430 -155 c 0,49,50
 453 -155 453 -155 485 -142 c 1,51,-1
 499 -175 l 1,52,53
 452 -197 452 -197 409 -197 c 128,-1,54
 366 -197 366 -197 338 -174.5 c 128,-1,55
 310 -152 310 -152 310 -115.5 c 128,-1,56
 310 -79 310 -79 325 -56 c 128,-1,57
 340 -33 340 -33 378 0 c 1,58,-1
 165 0 l 1,59,-1
 47 -5 l 1,60,-1
 42 45 l 1,61,-1
 121 61 l 1,62,63
 130 120 130 120 130 137 c 2,64,-1
 130 568 l 2,65,66
 130 586 130 586 121 644 c 1,67,-1
 44 656 l 1,68,-1
 49 710 l 1,69,70
 145 705 145 705 165 705 c 2,0,-1
EndSplineSet
EndChar

StartChar: eogonek
Encoding: 281 281 217
Width: 633
GlyphClass: 2
Flags: W
LayerCount: 2
Fore
SplineSet
101 50 m 1,0,-1
 108 110 l 1,1,-1
 108 410 l 2,2,3
 108 428 108 428 104.5 451.5 c 128,-1,4
 101 475 101 475 101 477 c 1,5,-1
 42 486 l 1,6,-1
 46 533 l 1,7,8
 110 529 110 529 133 529 c 2,9,-1
 182 529 l 1,10,-1
 197 514 l 1,11,12
 259 416 259 416 270 400 c 2,13,-1
 464 142 l 1,14,-1
 464 405 l 2,15,16
 464 431 464 431 457 476 c 1,17,-1
 399 482 l 1,18,-1
 403 531 l 1,19,-1
 472 529 l 1,20,-1
 596 533 l 1,21,-1
 600 485 l 1,22,-1
 542 476 l 1,23,24
 532 433 532 433 532 400 c 2,25,-1
 532 193 l 1,26,-1
 531 -3 l 1,27,28
 533 -30 533 -30 432 -150 c 1,29,-1
 401 -131 l 1,30,31
 454 -21 454 -21 461 2 c 1,32,-1
 175 386 l 1,33,-1
 175 133 l 2,34,35
 175 110 175 110 181 50 c 1,36,-1
 240 45 l 1,37,-1
 236 -4 l 1,38,39
 199 0 199 0 129 0 c 1,40,-1
 46 -4 l 1,41,-1
 43 40 l 1,42,-1
 101 50 l 1,0,-1
EndSplineSet
EndChar

StartChar: Ecaron
Encoding: 282 282 218
Width: 588
GlyphClass: 2
Flags: W
LayerCount: 2
Fore
SplineSet
165 705 m 2,0,-1
 389 705 l 1,1,-1
 503 715 l 1,2,-1
 522 697 l 1,3,-1
 529 561 l 1,4,-1
 471 556 l 1,5,6
 468 580 468 580 463.5 600 c 128,-1,7
 459 620 459 620 440 644 c 1,8,9
 385 649 385 649 359 649 c 2,10,-1
 228 649 l 1,11,12
 221 575 221 575 221 538 c 2,13,-1
 221 396 l 1,14,15
 255 394 255 394 264 394 c 2,16,-1
 337 394 l 1,17,-1
 397 403 l 1,18,-1
 406 469 l 1,19,-1
 452 464 l 1,20,21
 451 400 451 400 451 380 c 2,22,-1
 454 271 l 1,23,-1
 406 265 l 1,24,-1
 397 332 l 1,25,26
 337 338 337 338 317 338 c 2,27,-1
 264 338 l 2,28,29
 246 338 246 338 221 335 c 1,30,-1
 221 167 l 2,31,32
 221 124 221 124 228 57 c 1,33,-1
 372 57 l 2,34,35
 410 57 410 57 459 66 c 1,36,37
 478 92 478 92 479.5 99.5 c 128,-1,38
 481 107 481 107 487.5 134 c 128,-1,39
 494 161 494 161 495 170 c 1,40,-1
 550 165 l 1,41,-1
 535 14 l 1,42,-1
 516 -4 l 1,43,44
 422 0 422 0 402 0 c 2,45,-1
 165 0 l 1,46,-1
 47 -5 l 1,47,-1
 42 45 l 1,48,-1
 121 61 l 1,49,50
 130 120 130 120 130 137 c 2,51,-1
 130 568 l 2,52,53
 130 586 130 586 121 644 c 1,54,-1
 44 656 l 1,55,-1
 49 710 l 1,56,57
 145 705 145 705 165 705 c 2,0,-1
445 893 m 1,58,-1
 468 854 l 1,59,-1
 294 747 l 1,60,-1
 120 854 l 1,61,-1
 143 893 l 1,62,-1
 231 852 l 1,63,-1
 294 827 l 1,64,-1
 357 852 l 1,65,-1
 445 893 l 1,58,-1
EndSplineSet
EndChar

StartChar: ecaron
Encoding: 283 283 219
Width: 484
GlyphClass: 2
Flags: W
LayerCount: 2
Fore
SplineSet
200 479 m 1,0,-1
 195 405 l 1,1,-1
 195 298 l 1,2,3
 207 297 207 297 224 297 c 2,4,-1
 277 297 l 1,5,-1
 320 303 l 1,6,-1
 327 352 l 1,7,-1
 367 349 l 1,8,9
 366 301 366 301 366 286 c 2,10,-1
 368 199 l 1,11,-1
 327 194 l 1,12,-1
 320 243 l 1,13,14
 277 247 277 247 261 247 c 2,15,-1
 226 247 l 2,16,17
 206 247 206 247 195 245 c 1,18,-1
 195 133 l 2,19,20
 195 88 195 88 200 51 c 1,21,-1
 307 51 l 2,22,23
 335 51 335 51 372 58 c 1,24,25
 386 78 386 78 388 87 c 0,26,27
 398 129 398 129 399 135 c 1,28,-1
 446 131 l 1,29,-1
 434 11 l 1,30,-1
 419 -3 l 1,31,32
 346 0 346 0 330 0 c 2,33,-1
 134 0 l 1,34,-1
 46 -4 l 1,35,-1
 43 40 l 1,36,-1
 101 50 l 1,37,38
 108 82 108 82 108 110 c 2,39,-1
 108 410 l 2,40,41
 108 435 108 435 101 477 c 1,42,-1
 44 486 l 1,43,-1
 48 533 l 1,44,45
 114 529 114 529 134 529 c 2,46,-1
 320 529 l 1,47,-1
 409 536 l 1,48,-1
 424 523 l 1,49,-1
 429 415 l 1,50,-1
 380 411 l 1,51,52
 378 437 378 437 372 453 c 1,53,54
 372 459 372 459 359 476 c 1,55,56
 311 479 311 479 297 479 c 2,57,-1
 200 479 l 1,0,-1
108 765 m 1,58,-1
 182 704 l 2,59,60
 186 701 186 701 241 661 c 1,61,-1
 300 704 l 1,62,-1
 374 765 l 1,63,-1
 407 733 l 1,64,-1
 241 564 l 1,65,-1
 75 733 l 1,66,-1
 108 765 l 1,58,-1
EndSplineSet
EndChar

StartChar: Gcircumflex
Encoding: 284 284 220
Width: 664
GlyphClass: 2
Flags: W
LayerCount: 2
Fore
SplineSet
376 720 m 0,0,1
 454 720 454 720 596 686 c 1,2,-1
 585 538 l 1,3,-1
 527 544 l 1,4,-1
 527 589 l 2,5,6
 527 598 527 598 515 638 c 1,7,8
 434 662 434 662 373 662 c 0,9,10
 261 662 261 662 202 575.5 c 128,-1,11
 143 489 143 489 143 352.5 c 128,-1,12
 143 216 143 216 202 129.5 c 128,-1,13
 261 43 261 43 373 43 c 0,14,15
 438 43 438 43 513 63 c 1,16,17
 525 115 525 115 525 128 c 2,18,-1
 525 196 l 1,19,-1
 515 267 l 1,20,-1
 409 275 l 1,21,-1
 414 333 l 1,22,-1
 525 333 l 1,23,-1
 596 336 l 1,24,-1
 614 319 l 1,25,26
 605 216 605 216 605 166 c 2,27,-1
 605 19 l 1,28,29
 463 -15 463 -15 376 -15 c 0,30,31
 214 -15 214 -15 128 84.5 c 128,-1,32
 42 184 42 184 42 352 c 128,-1,33
 42 520 42 520 128 620 c 128,-1,34
 214 720 214 720 376 720 c 0,0,1
380 893 m 1,35,-1
 554 786 l 1,36,-1
 531 747 l 1,37,-1
 443 788 l 1,38,-1
 380 813 l 1,39,-1
 317 788 l 1,40,-1
 229 747 l 1,41,-1
 206 786 l 1,42,-1
 380 893 l 1,35,-1
EndSplineSet
EndChar

